<?xml version="1.0" encoding="utf-8" standalone="no"?>
<!DOCTYPE svg PUBLIC "-//W3C//DTD SVG 1.1//EN"
  "http://www.w3.org/Graphics/SVG/1.1/DTD/svg11.dtd">
<!-- Created with matplotlib (https://matplotlib.org/) -->
<svg height="1314.72pt" version="1.1" viewBox="0 0 738 1314.72" width="738pt" xmlns="http://www.w3.org/2000/svg" xmlns:xlink="http://www.w3.org/1999/xlink">
 <defs>
  <style type="text/css">
*{stroke-linecap:butt;stroke-linejoin:round;}
  </style>
 </defs>
 <g id="figure_1">
  <g id="patch_1">
   <path d="M 0 1314.72 
L 738 1314.72 
L 738 0 
L 0 0 
z
" style="fill:#ffffff;"/>
  </g>
  <g id="axes_1">
   <g id="patch_2">
    <path d="M 56.088 376.232611 
L 370.313221 376.232611 
L 370.313221 62.007389 
L 56.088 62.007389 
z
" style="fill:#ffffff;"/>
   </g>
   <g id="matplotlib.axis_1">
    <g id="xtick_1">
     <g id="line2d_1">
      <defs>
       <path d="M 0 0 
L 0 3.5 
" id="m3e541a0080" style="stroke:#000000;stroke-width:0.8;"/>
      </defs>
      <g>
       <use style="stroke:#000000;stroke-width:0.8;" x="93.795027" xlink:href="#m3e541a0080" y="376.232611"/>
      </g>
     </g>
     <g id="text_1">
      <!-- 0 -->
      <defs>
       <path d="M 31.78125 66.40625 
Q 24.171875 66.40625 20.328125 58.90625 
Q 16.5 51.421875 16.5 36.375 
Q 16.5 21.390625 20.328125 13.890625 
Q 24.171875 6.390625 31.78125 6.390625 
Q 39.453125 6.390625 43.28125 13.890625 
Q 47.125 21.390625 47.125 36.375 
Q 47.125 51.421875 43.28125 58.90625 
Q 39.453125 66.40625 31.78125 66.40625 
z
M 31.78125 74.21875 
Q 44.046875 74.21875 50.515625 64.515625 
Q 56.984375 54.828125 56.984375 36.375 
Q 56.984375 17.96875 50.515625 8.265625 
Q 44.046875 -1.421875 31.78125 -1.421875 
Q 19.53125 -1.421875 13.0625 8.265625 
Q 6.59375 17.96875 6.59375 36.375 
Q 6.59375 54.828125 13.0625 64.515625 
Q 19.53125 74.21875 31.78125 74.21875 
z
" id="DejaVuSans-48"/>
      </defs>
      <g transform="translate(87.432527 398.429486)scale(0.2 -0.2)">
       <use xlink:href="#DejaVuSans-48"/>
      </g>
     </g>
    </g>
    <g id="xtick_2">
     <g id="line2d_2">
      <g>
       <use style="stroke:#000000;stroke-width:0.8;" x="156.640071" xlink:href="#m3e541a0080" y="376.232611"/>
      </g>
     </g>
     <g id="text_2">
      <!-- 25 -->
      <defs>
       <path d="M 19.1875 8.296875 
L 53.609375 8.296875 
L 53.609375 0 
L 7.328125 0 
L 7.328125 8.296875 
Q 12.9375 14.109375 22.625 23.890625 
Q 32.328125 33.6875 34.8125 36.53125 
Q 39.546875 41.84375 41.421875 45.53125 
Q 43.3125 49.21875 43.3125 52.78125 
Q 43.3125 58.59375 39.234375 62.25 
Q 35.15625 65.921875 28.609375 65.921875 
Q 23.96875 65.921875 18.8125 64.3125 
Q 13.671875 62.703125 7.8125 59.421875 
L 7.8125 69.390625 
Q 13.765625 71.78125 18.9375 73 
Q 24.125 74.21875 28.421875 74.21875 
Q 39.75 74.21875 46.484375 68.546875 
Q 53.21875 62.890625 53.21875 53.421875 
Q 53.21875 48.921875 51.53125 44.890625 
Q 49.859375 40.875 45.40625 35.40625 
Q 44.1875 33.984375 37.640625 27.21875 
Q 31.109375 20.453125 19.1875 8.296875 
z
" id="DejaVuSans-50"/>
       <path d="M 10.796875 72.90625 
L 49.515625 72.90625 
L 49.515625 64.59375 
L 19.828125 64.59375 
L 19.828125 46.734375 
Q 21.96875 47.46875 24.109375 47.828125 
Q 26.265625 48.1875 28.421875 48.1875 
Q 40.625 48.1875 47.75 41.5 
Q 54.890625 34.8125 54.890625 23.390625 
Q 54.890625 11.625 47.5625 5.09375 
Q 40.234375 -1.421875 26.90625 -1.421875 
Q 22.3125 -1.421875 17.546875 -0.640625 
Q 12.796875 0.140625 7.71875 1.703125 
L 7.71875 11.625 
Q 12.109375 9.234375 16.796875 8.0625 
Q 21.484375 6.890625 26.703125 6.890625 
Q 35.15625 6.890625 40.078125 11.328125 
Q 45.015625 15.765625 45.015625 23.390625 
Q 45.015625 31 40.078125 35.4375 
Q 35.15625 39.890625 26.703125 39.890625 
Q 22.75 39.890625 18.8125 39.015625 
Q 14.890625 38.140625 10.796875 36.28125 
z
" id="DejaVuSans-53"/>
      </defs>
      <g transform="translate(143.915071 398.429486)scale(0.2 -0.2)">
       <use xlink:href="#DejaVuSans-50"/>
       <use x="63.623047" xlink:href="#DejaVuSans-53"/>
      </g>
     </g>
    </g>
    <g id="xtick_3">
     <g id="line2d_3">
      <g>
       <use style="stroke:#000000;stroke-width:0.8;" x="219.485115" xlink:href="#m3e541a0080" y="376.232611"/>
      </g>
     </g>
     <g id="text_3">
      <!-- 50 -->
      <g transform="translate(206.760115 398.429486)scale(0.2 -0.2)">
       <use xlink:href="#DejaVuSans-53"/>
       <use x="63.623047" xlink:href="#DejaVuSans-48"/>
      </g>
     </g>
    </g>
    <g id="xtick_4">
     <g id="line2d_4">
      <g>
       <use style="stroke:#000000;stroke-width:0.8;" x="282.330159" xlink:href="#m3e541a0080" y="376.232611"/>
      </g>
     </g>
     <g id="text_4">
      <!-- 75 -->
      <defs>
       <path d="M 8.203125 72.90625 
L 55.078125 72.90625 
L 55.078125 68.703125 
L 28.609375 0 
L 18.3125 0 
L 43.21875 64.59375 
L 8.203125 64.59375 
z
" id="DejaVuSans-55"/>
      </defs>
      <g transform="translate(269.605159 398.429486)scale(0.2 -0.2)">
       <use xlink:href="#DejaVuSans-55"/>
       <use x="63.623047" xlink:href="#DejaVuSans-53"/>
      </g>
     </g>
    </g>
    <g id="xtick_5">
     <g id="line2d_5">
      <g>
       <use style="stroke:#000000;stroke-width:0.8;" x="345.175203" xlink:href="#m3e541a0080" y="376.232611"/>
      </g>
     </g>
     <g id="text_5">
      <!-- 100 -->
      <defs>
       <path d="M 12.40625 8.296875 
L 28.515625 8.296875 
L 28.515625 63.921875 
L 10.984375 60.40625 
L 10.984375 69.390625 
L 28.421875 72.90625 
L 38.28125 72.90625 
L 38.28125 8.296875 
L 54.390625 8.296875 
L 54.390625 0 
L 12.40625 0 
z
" id="DejaVuSans-49"/>
      </defs>
      <g transform="translate(326.087703 398.429486)scale(0.2 -0.2)">
       <use xlink:href="#DejaVuSans-49"/>
       <use x="63.623047" xlink:href="#DejaVuSans-48"/>
       <use x="127.246094" xlink:href="#DejaVuSans-48"/>
      </g>
     </g>
    </g>
   </g>
   <g id="matplotlib.axis_2">
    <g id="ytick_1">
     <g id="line2d_6">
      <defs>
       <path d="M 0 0 
L -3.5 0 
" id="m19c6b2395e" style="stroke:#000000;stroke-width:0.8;"/>
      </defs>
      <g>
       <use style="stroke:#000000;stroke-width:0.8;" x="56.088" xlink:href="#m19c6b2395e" y="338.525584"/>
      </g>
     </g>
     <g id="text_6">
      <!-- 0 -->
      <g transform="translate(36.363 346.124021)scale(0.2 -0.2)">
       <use xlink:href="#DejaVuSans-48"/>
      </g>
     </g>
    </g>
    <g id="ytick_2">
     <g id="line2d_7">
      <g>
       <use style="stroke:#000000;stroke-width:0.8;" x="56.088" xlink:href="#m19c6b2395e" y="288.249549"/>
      </g>
     </g>
     <g id="text_7">
      <!-- 20 -->
      <g transform="translate(23.638 295.847986)scale(0.2 -0.2)">
       <use xlink:href="#DejaVuSans-50"/>
       <use x="63.623047" xlink:href="#DejaVuSans-48"/>
      </g>
     </g>
    </g>
    <g id="ytick_3">
     <g id="line2d_8">
      <g>
       <use style="stroke:#000000;stroke-width:0.8;" x="56.088" xlink:href="#m19c6b2395e" y="237.973513"/>
      </g>
     </g>
     <g id="text_8">
      <!-- 40 -->
      <defs>
       <path d="M 37.796875 64.3125 
L 12.890625 25.390625 
L 37.796875 25.390625 
z
M 35.203125 72.90625 
L 47.609375 72.90625 
L 47.609375 25.390625 
L 58.015625 25.390625 
L 58.015625 17.1875 
L 47.609375 17.1875 
L 47.609375 0 
L 37.796875 0 
L 37.796875 17.1875 
L 4.890625 17.1875 
L 4.890625 26.703125 
z
" id="DejaVuSans-52"/>
      </defs>
      <g transform="translate(23.638 245.571951)scale(0.2 -0.2)">
       <use xlink:href="#DejaVuSans-52"/>
       <use x="63.623047" xlink:href="#DejaVuSans-48"/>
      </g>
     </g>
    </g>
    <g id="ytick_4">
     <g id="line2d_9">
      <g>
       <use style="stroke:#000000;stroke-width:0.8;" x="56.088" xlink:href="#m19c6b2395e" y="187.697478"/>
      </g>
     </g>
     <g id="text_9">
      <!-- 60 -->
      <defs>
       <path d="M 33.015625 40.375 
Q 26.375 40.375 22.484375 35.828125 
Q 18.609375 31.296875 18.609375 23.390625 
Q 18.609375 15.53125 22.484375 10.953125 
Q 26.375 6.390625 33.015625 6.390625 
Q 39.65625 6.390625 43.53125 10.953125 
Q 47.40625 15.53125 47.40625 23.390625 
Q 47.40625 31.296875 43.53125 35.828125 
Q 39.65625 40.375 33.015625 40.375 
z
M 52.59375 71.296875 
L 52.59375 62.3125 
Q 48.875 64.0625 45.09375 64.984375 
Q 41.3125 65.921875 37.59375 65.921875 
Q 27.828125 65.921875 22.671875 59.328125 
Q 17.53125 52.734375 16.796875 39.40625 
Q 19.671875 43.65625 24.015625 45.921875 
Q 28.375 48.1875 33.59375 48.1875 
Q 44.578125 48.1875 50.953125 41.515625 
Q 57.328125 34.859375 57.328125 23.390625 
Q 57.328125 12.15625 50.6875 5.359375 
Q 44.046875 -1.421875 33.015625 -1.421875 
Q 20.359375 -1.421875 13.671875 8.265625 
Q 6.984375 17.96875 6.984375 36.375 
Q 6.984375 53.65625 15.1875 63.9375 
Q 23.390625 74.21875 37.203125 74.21875 
Q 40.921875 74.21875 44.703125 73.484375 
Q 48.484375 72.75 52.59375 71.296875 
z
" id="DejaVuSans-54"/>
      </defs>
      <g transform="translate(23.638 195.295915)scale(0.2 -0.2)">
       <use xlink:href="#DejaVuSans-54"/>
       <use x="63.623047" xlink:href="#DejaVuSans-48"/>
      </g>
     </g>
    </g>
    <g id="ytick_5">
     <g id="line2d_10">
      <g>
       <use style="stroke:#000000;stroke-width:0.8;" x="56.088" xlink:href="#m19c6b2395e" y="137.421443"/>
      </g>
     </g>
     <g id="text_10">
      <!-- 80 -->
      <defs>
       <path d="M 31.78125 34.625 
Q 24.75 34.625 20.71875 30.859375 
Q 16.703125 27.09375 16.703125 20.515625 
Q 16.703125 13.921875 20.71875 10.15625 
Q 24.75 6.390625 31.78125 6.390625 
Q 38.8125 6.390625 42.859375 10.171875 
Q 46.921875 13.96875 46.921875 20.515625 
Q 46.921875 27.09375 42.890625 30.859375 
Q 38.875 34.625 31.78125 34.625 
z
M 21.921875 38.8125 
Q 15.578125 40.375 12.03125 44.71875 
Q 8.5 49.078125 8.5 55.328125 
Q 8.5 64.0625 14.71875 69.140625 
Q 20.953125 74.21875 31.78125 74.21875 
Q 42.671875 74.21875 48.875 69.140625 
Q 55.078125 64.0625 55.078125 55.328125 
Q 55.078125 49.078125 51.53125 44.71875 
Q 48 40.375 41.703125 38.8125 
Q 48.828125 37.15625 52.796875 32.3125 
Q 56.78125 27.484375 56.78125 20.515625 
Q 56.78125 9.90625 50.3125 4.234375 
Q 43.84375 -1.421875 31.78125 -1.421875 
Q 19.734375 -1.421875 13.25 4.234375 
Q 6.78125 9.90625 6.78125 20.515625 
Q 6.78125 27.484375 10.78125 32.3125 
Q 14.796875 37.15625 21.921875 38.8125 
z
M 18.3125 54.390625 
Q 18.3125 48.734375 21.84375 45.5625 
Q 25.390625 42.390625 31.78125 42.390625 
Q 38.140625 42.390625 41.71875 45.5625 
Q 45.3125 48.734375 45.3125 54.390625 
Q 45.3125 60.0625 41.71875 63.234375 
Q 38.140625 66.40625 31.78125 66.40625 
Q 25.390625 66.40625 21.84375 63.234375 
Q 18.3125 60.0625 18.3125 54.390625 
z
" id="DejaVuSans-56"/>
      </defs>
      <g transform="translate(23.638 145.01988)scale(0.2 -0.2)">
       <use xlink:href="#DejaVuSans-56"/>
       <use x="63.623047" xlink:href="#DejaVuSans-48"/>
      </g>
     </g>
    </g>
    <g id="ytick_6">
     <g id="line2d_11">
      <g>
       <use style="stroke:#000000;stroke-width:0.8;" x="56.088" xlink:href="#m19c6b2395e" y="87.145407"/>
      </g>
     </g>
     <g id="text_11">
      <!-- 100 -->
      <g transform="translate(10.913 94.743845)scale(0.2 -0.2)">
       <use xlink:href="#DejaVuSans-49"/>
       <use x="63.623047" xlink:href="#DejaVuSans-48"/>
       <use x="127.246094" xlink:href="#DejaVuSans-48"/>
      </g>
     </g>
    </g>
   </g>
   <g id="line2d_12">
    <path clip-path="url(#p400b09ed5b)" d="M 93.795027 338.525584 
L 96.74514 338.421779 
L 100.746545 338.051753 
L 105.985638 337.328175 
L 112.629341 336.168577 
L 120.811337 334.500226 
L 130.619261 332.264455 
L 142.08361 329.420151 
L 155.169073 325.946147 
L 169.768957 321.842303 
L 185.703253 317.129124 
L 202.19159 312.01402 
L 218.438785 306.736345 
L 233.720591 301.540938 
L 247.92044 296.4852 
L 260.979556 291.606965 
L 272.883029 286.929681 
L 283.648442 282.466487 
L 293.31667 278.223351 
L 301.944549 274.20145 
L 309.599085 270.398921 
L 316.646763 266.650286 
L 322.819518 263.117465 
L 328.196174 259.795437 
L 333.074974 256.524559 
L 337.265708 253.459315 
L 341.020129 250.445583 
L 344.347471 247.48699 
L 347.121881 244.731622 
L 349.528547 242.035219 
L 351.576185 239.403965 
L 353.192488 236.978085 
L 354.500743 234.625029 
L 355.506883 232.353746 
L 356.18425 230.293082 
L 356.599905 228.324669 
L 356.754037 226.566501 
L 356.679166 224.910793 
L 356.400797 223.462152 
L 355.919795 222.124761 
L 355.286129 220.987306 
L 354.471409 219.967493 
L 353.472082 219.076625 
L 352.283631 218.326896 
L 350.900509 217.731426 
L 349.316078 217.304292 
L 347.522549 217.060569 
L 345.510916 217.01636 
L 343.270899 217.188838 
L 340.790879 217.596272 
L 337.852562 218.315614 
L 336.376981 218.75832 
L 336.376981 218.75832 
" style="fill:none;stroke:#00bfbf;stroke-linecap:square;stroke-width:2;"/>
   </g>
   <g id="line2d_13">
    <path clip-path="url(#p400b09ed5b)" d="M 93.795027 275.68054 
L 97.160817 275.568027 
L 100.618239 275.2388 
L 104.48842 274.646914 
L 108.789726 273.749283 
L 113.19621 272.603898 
L 118.050439 271.115079 
L 123.366285 269.251687 
L 129.1554 266.988622 
L 135.799213 264.142364 
L 143.323513 260.659131 
L 151.746875 256.505296 
L 161.8615 251.259506 
L 175.278242 244.031837 
L 213.565489 223.260706 
L 225.041601 217.365089 
L 235.221723 212.382599 
L 244.496222 208.09372 
L 252.870599 204.461739 
L 260.73084 201.289473 
L 268.078357 198.55602 
L 275.274288 196.119516 
L 281.954887 194.091926 
L 288.469071 192.353265 
L 294.473269 190.978802 
L 300.30141 189.873666 
L 305.631805 189.07914 
L 310.781064 188.527019 
L 315.736822 188.216141 
L 320.486232 188.143896 
L 325.015922 188.306225 
L 329.065975 188.668367 
L 332.896953 189.227646 
L 336.496247 189.977141 
L 339.850715 190.908779 
L 342.761001 191.939431 
L 345.432307 193.113558 
L 347.852393 194.421752 
L 349.873251 195.754616 
L 351.653406 197.186221 
L 353.181681 198.706807 
L 354.365121 200.189339 
L 355.311748 201.730711 
L 355.966752 203.197626 
L 356.403379 204.698903 
L 356.613267 206.226399 
L 356.587783 207.771598 
L 356.350055 209.196 
L 355.900004 210.620696 
L 355.230361 212.038306 
L 354.333649 213.441185 
L 353.20218 214.821424 
L 351.690814 216.291711 
L 349.880091 217.714358 
L 347.759128 219.078023 
L 345.316714 220.370989 
L 342.541304 221.581165 
L 339.421012 222.69608 
L 337.727727 223.213816 
L 337.727727 223.213816 
" style="fill:none;stroke:#008000;stroke-linecap:square;stroke-width:2;"/>
   </g>
   <g id="line2d_14">
    <path clip-path="url(#p400b09ed5b)" d="M 93.795027 212.835496 
L 110.558531 212.948105 
L 122.373202 213.244122 
L 132.746941 213.721969 
L 142.463721 214.395484 
L 151.534532 215.248168 
L 160.33491 216.300854 
L 168.85824 217.545643 
L 177.091324 218.968672 
L 185.415573 220.636451 
L 193.421053 222.464775 
L 201.492118 224.537658 
L 209.208591 226.741397 
L 216.959128 229.179887 
L 224.728203 231.857855 
L 232.498351 234.778541 
L 239.843114 237.770931 
L 247.153866 240.982724 
L 254.411702 244.412575 
L 261.596644 248.057684 
L 268.687756 251.913728 
L 275.279152 255.743928 
L 281.748508 259.7507 
L 288.076411 263.926366 
L 294.243051 268.261843 
L 300.228314 272.746596 
L 306.01187 277.368594 
L 311.252638 281.831941 
L 316.279522 286.392238 
L 321.075468 291.035591 
L 325.623524 295.746789 
L 329.906905 300.509264 
L 333.909059 305.305059 
L 337.391206 309.814165 
L 340.598786 314.318403 
L 343.519022 318.799488 
L 346.139516 323.237958 
L 348.304302 327.32387 
L 350.188174 331.336902 
L 351.782153 335.258339 
L 352.995223 338.800468 
L 353.944462 342.230138 
L 354.62374 345.530083 
L 355.006183 348.445473 
L 355.149496 351.220223 
L 355.067467 353.627118 
L 354.778471 355.890738 
L 354.279996 357.998445 
L 353.643148 359.768267 
L 352.829795 361.388336 
L 351.838612 362.848251 
L 350.793561 364.016404 
L 349.602859 365.038163 
L 348.265951 365.905323 
L 346.78242 366.609482 
L 345.151988 367.142034 
L 343.374525 367.49417 
L 341.450048 367.656875 
L 339.378727 367.620928 
L 337.160886 367.376897 
L 334.52537 366.849967 
L 331.710472 366.040696 
L 328.717348 364.935219 
L 325.547418 363.519338 
L 323.896667 362.690467 
L 323.896667 362.690467 
" style="fill:none;stroke:#0000ff;stroke-linecap:square;stroke-width:2;"/>
   </g>
   <g id="line2d_15">
    <defs>
     <path d="M 0 -5 
L -1.12257 -1.545085 
L -4.755283 -1.545085 
L -1.816356 0.59017 
L -2.938926 4.045085 
L -0 1.90983 
L 2.938926 4.045085 
L 1.816356 0.59017 
L 4.755283 -1.545085 
L 1.12257 -1.545085 
z
" id="m10680259ca" style="stroke:#ff0000;stroke-linejoin:bevel;"/>
    </defs>
    <g clip-path="url(#p400b09ed5b)">
     <use style="fill:#ff0000;stroke:#ff0000;stroke-linejoin:bevel;" x="156.640071" xlink:href="#m10680259ca" y="275.68054"/>
    </g>
   </g>
   <g id="line2d_16">
    <defs>
     <path d="M -2.25 4.5 
L 0 2.25 
L 2.25 4.5 
L 4.5 2.25 
L 2.25 0 
L 4.5 -2.25 
L 2.25 -4.5 
L 0 -2.25 
L -2.25 -4.5 
L -4.5 -2.25 
L -2.25 0 
L -4.5 2.25 
z
" id="m4c1d286532" style="stroke:#00bfbf;stroke-linejoin:miter;"/>
    </defs>
    <g clip-path="url(#p400b09ed5b)">
     <use style="fill:#00bfbf;stroke:#00bfbf;stroke-linejoin:miter;" x="93.795027" xlink:href="#m4c1d286532" y="338.525584"/>
    </g>
   </g>
   <g id="line2d_17">
    <defs>
     <path d="M -2.25 4.5 
L 0 2.25 
L 2.25 4.5 
L 4.5 2.25 
L 2.25 0 
L 4.5 -2.25 
L 2.25 -4.5 
L 0 -2.25 
L -2.25 -4.5 
L -4.5 -2.25 
L -2.25 0 
L -4.5 2.25 
z
" id="ma4968ad1bb" style="stroke:#008000;stroke-linejoin:miter;"/>
    </defs>
    <g clip-path="url(#p400b09ed5b)">
     <use style="fill:#008000;stroke:#008000;stroke-linejoin:miter;" x="93.795027" xlink:href="#ma4968ad1bb" y="275.68054"/>
    </g>
   </g>
   <g id="line2d_18">
    <defs>
     <path d="M -2.25 4.5 
L 0 2.25 
L 2.25 4.5 
L 4.5 2.25 
L 2.25 0 
L 4.5 -2.25 
L 2.25 -4.5 
L 0 -2.25 
L -2.25 -4.5 
L -4.5 -2.25 
L -2.25 0 
L -4.5 2.25 
z
" id="ma918f8893a" style="stroke:#0000ff;stroke-linejoin:miter;"/>
    </defs>
    <g clip-path="url(#p400b09ed5b)">
     <use style="fill:#0000ff;stroke:#0000ff;stroke-linejoin:miter;" x="93.795027" xlink:href="#ma918f8893a" y="212.835496"/>
    </g>
   </g>
   <g id="patch_3">
    <path d="M 56.088 376.232611 
L 56.088 62.007389 
" style="fill:none;stroke:#000000;stroke-linecap:square;stroke-linejoin:miter;stroke-width:0.8;"/>
   </g>
   <g id="patch_4">
    <path d="M 370.313221 376.232611 
L 370.313221 62.007389 
" style="fill:none;stroke:#000000;stroke-linecap:square;stroke-linejoin:miter;stroke-width:0.8;"/>
   </g>
   <g id="patch_5">
    <path d="M 56.088 376.232611 
L 370.313221 376.232611 
" style="fill:none;stroke:#000000;stroke-linecap:square;stroke-linejoin:miter;stroke-width:0.8;"/>
   </g>
   <g id="patch_6">
    <path d="M 56.088 62.007389 
L 370.313221 62.007389 
" style="fill:none;stroke:#000000;stroke-linecap:square;stroke-linejoin:miter;stroke-width:0.8;"/>
   </g>
   <g id="text_12">
    <!-- t = 0 -->
    <defs>
     <path d="M 18.3125 70.21875 
L 18.3125 54.6875 
L 36.8125 54.6875 
L 36.8125 47.703125 
L 18.3125 47.703125 
L 18.3125 18.015625 
Q 18.3125 11.328125 20.140625 9.421875 
Q 21.96875 7.515625 27.59375 7.515625 
L 36.8125 7.515625 
L 36.8125 0 
L 27.59375 0 
Q 17.1875 0 13.234375 3.875 
Q 9.28125 7.765625 9.28125 18.015625 
L 9.28125 47.703125 
L 2.6875 47.703125 
L 2.6875 54.6875 
L 9.28125 54.6875 
L 9.28125 70.21875 
z
" id="DejaVuSans-116"/>
     <path id="DejaVuSans-32"/>
     <path d="M 10.59375 45.40625 
L 73.1875 45.40625 
L 73.1875 37.203125 
L 10.59375 37.203125 
z
M 10.59375 25.484375 
L 73.1875 25.484375 
L 73.1875 17.1875 
L 10.59375 17.1875 
z
" id="DejaVuSans-61"/>
    </defs>
    <g transform="translate(183.178111 56.007389)scale(0.24 -0.24)">
     <use xlink:href="#DejaVuSans-116"/>
     <use x="39.208984" xlink:href="#DejaVuSans-32"/>
     <use x="70.996094" xlink:href="#DejaVuSans-61"/>
     <use x="154.785156" xlink:href="#DejaVuSans-32"/>
     <use x="186.572266" xlink:href="#DejaVuSans-48"/>
    </g>
   </g>
   <g id="legend_1">
    <g id="patch_7">
     <path d="M 70.088 195.432389 
L 212.36925 195.432389 
Q 216.36925 195.432389 216.36925 191.432389 
L 216.36925 76.007389 
Q 216.36925 72.007389 212.36925 72.007389 
L 70.088 72.007389 
Q 66.088 72.007389 66.088 76.007389 
L 66.088 191.432389 
Q 66.088 195.432389 70.088 195.432389 
z
" style="fill:#ffffff;opacity:0.8;stroke:#cccccc;stroke-linejoin:miter;"/>
    </g>
    <g id="line2d_19"/>
    <g id="line2d_20">
     <g>
      <use style="fill:#ff0000;stroke:#ff0000;stroke-linejoin:bevel;" x="94.088" xlink:href="#m10680259ca" y="88.204264"/>
     </g>
    </g>
    <g id="text_13">
     <!-- Target -->
     <defs>
      <path d="M -0.296875 72.90625 
L 61.375 72.90625 
L 61.375 64.59375 
L 35.5 64.59375 
L 35.5 0 
L 25.59375 0 
L 25.59375 64.59375 
L -0.296875 64.59375 
z
" id="DejaVuSans-84"/>
      <path d="M 34.28125 27.484375 
Q 23.390625 27.484375 19.1875 25 
Q 14.984375 22.515625 14.984375 16.5 
Q 14.984375 11.71875 18.140625 8.90625 
Q 21.296875 6.109375 26.703125 6.109375 
Q 34.1875 6.109375 38.703125 11.40625 
Q 43.21875 16.703125 43.21875 25.484375 
L 43.21875 27.484375 
z
M 52.203125 31.203125 
L 52.203125 0 
L 43.21875 0 
L 43.21875 8.296875 
Q 40.140625 3.328125 35.546875 0.953125 
Q 30.953125 -1.421875 24.3125 -1.421875 
Q 15.921875 -1.421875 10.953125 3.296875 
Q 6 8.015625 6 15.921875 
Q 6 25.140625 12.171875 29.828125 
Q 18.359375 34.515625 30.609375 34.515625 
L 43.21875 34.515625 
L 43.21875 35.40625 
Q 43.21875 41.609375 39.140625 45 
Q 35.0625 48.390625 27.6875 48.390625 
Q 23 48.390625 18.546875 47.265625 
Q 14.109375 46.140625 10.015625 43.890625 
L 10.015625 52.203125 
Q 14.9375 54.109375 19.578125 55.046875 
Q 24.21875 56 28.609375 56 
Q 40.484375 56 46.34375 49.84375 
Q 52.203125 43.703125 52.203125 31.203125 
z
" id="DejaVuSans-97"/>
      <path d="M 41.109375 46.296875 
Q 39.59375 47.171875 37.8125 47.578125 
Q 36.03125 48 33.890625 48 
Q 26.265625 48 22.1875 43.046875 
Q 18.109375 38.09375 18.109375 28.8125 
L 18.109375 0 
L 9.078125 0 
L 9.078125 54.6875 
L 18.109375 54.6875 
L 18.109375 46.1875 
Q 20.953125 51.171875 25.484375 53.578125 
Q 30.03125 56 36.53125 56 
Q 37.453125 56 38.578125 55.875 
Q 39.703125 55.765625 41.0625 55.515625 
z
" id="DejaVuSans-114"/>
      <path d="M 45.40625 27.984375 
Q 45.40625 37.75 41.375 43.109375 
Q 37.359375 48.484375 30.078125 48.484375 
Q 22.859375 48.484375 18.828125 43.109375 
Q 14.796875 37.75 14.796875 27.984375 
Q 14.796875 18.265625 18.828125 12.890625 
Q 22.859375 7.515625 30.078125 7.515625 
Q 37.359375 7.515625 41.375 12.890625 
Q 45.40625 18.265625 45.40625 27.984375 
z
M 54.390625 6.78125 
Q 54.390625 -7.171875 48.1875 -13.984375 
Q 42 -20.796875 29.203125 -20.796875 
Q 24.46875 -20.796875 20.265625 -20.09375 
Q 16.0625 -19.390625 12.109375 -17.921875 
L 12.109375 -9.1875 
Q 16.0625 -11.328125 19.921875 -12.34375 
Q 23.78125 -13.375 27.78125 -13.375 
Q 36.625 -13.375 41.015625 -8.765625 
Q 45.40625 -4.15625 45.40625 5.171875 
L 45.40625 9.625 
Q 42.625 4.78125 38.28125 2.390625 
Q 33.9375 0 27.875 0 
Q 17.828125 0 11.671875 7.65625 
Q 5.515625 15.328125 5.515625 27.984375 
Q 5.515625 40.671875 11.671875 48.328125 
Q 17.828125 56 27.875 56 
Q 33.9375 56 38.28125 53.609375 
Q 42.625 51.21875 45.40625 46.390625 
L 45.40625 54.6875 
L 54.390625 54.6875 
z
" id="DejaVuSans-103"/>
      <path d="M 56.203125 29.59375 
L 56.203125 25.203125 
L 14.890625 25.203125 
Q 15.484375 15.921875 20.484375 11.0625 
Q 25.484375 6.203125 34.421875 6.203125 
Q 39.59375 6.203125 44.453125 7.46875 
Q 49.3125 8.734375 54.109375 11.28125 
L 54.109375 2.78125 
Q 49.265625 0.734375 44.1875 -0.34375 
Q 39.109375 -1.421875 33.890625 -1.421875 
Q 20.796875 -1.421875 13.15625 6.1875 
Q 5.515625 13.8125 5.515625 26.8125 
Q 5.515625 40.234375 12.765625 48.109375 
Q 20.015625 56 32.328125 56 
Q 43.359375 56 49.78125 48.890625 
Q 56.203125 41.796875 56.203125 29.59375 
z
M 47.21875 32.234375 
Q 47.125 39.59375 43.09375 43.984375 
Q 39.0625 48.390625 32.421875 48.390625 
Q 24.90625 48.390625 20.390625 44.140625 
Q 15.875 39.890625 15.1875 32.171875 
z
" id="DejaVuSans-101"/>
     </defs>
     <g transform="translate(130.088 95.204264)scale(0.2 -0.2)">
      <use xlink:href="#DejaVuSans-84"/>
      <use x="60.833984" xlink:href="#DejaVuSans-97"/>
      <use x="122.113281" xlink:href="#DejaVuSans-114"/>
      <use x="163.210938" xlink:href="#DejaVuSans-103"/>
      <use x="226.6875" xlink:href="#DejaVuSans-101"/>
      <use x="288.210938" xlink:href="#DejaVuSans-116"/>
     </g>
    </g>
    <g id="line2d_21"/>
    <g id="line2d_22">
     <g>
      <use style="fill:#00bfbf;stroke:#00bfbf;stroke-linejoin:miter;" x="94.088" xlink:href="#m4c1d286532" y="117.560514"/>
     </g>
    </g>
    <g id="text_14">
     <!-- Agent 0 -->
     <defs>
      <path d="M 34.1875 63.1875 
L 20.796875 26.90625 
L 47.609375 26.90625 
z
M 28.609375 72.90625 
L 39.796875 72.90625 
L 67.578125 0 
L 57.328125 0 
L 50.6875 18.703125 
L 17.828125 18.703125 
L 11.1875 0 
L 0.78125 0 
z
" id="DejaVuSans-65"/>
      <path d="M 54.890625 33.015625 
L 54.890625 0 
L 45.90625 0 
L 45.90625 32.71875 
Q 45.90625 40.484375 42.875 44.328125 
Q 39.84375 48.1875 33.796875 48.1875 
Q 26.515625 48.1875 22.3125 43.546875 
Q 18.109375 38.921875 18.109375 30.90625 
L 18.109375 0 
L 9.078125 0 
L 9.078125 54.6875 
L 18.109375 54.6875 
L 18.109375 46.1875 
Q 21.34375 51.125 25.703125 53.5625 
Q 30.078125 56 35.796875 56 
Q 45.21875 56 50.046875 50.171875 
Q 54.890625 44.34375 54.890625 33.015625 
z
" id="DejaVuSans-110"/>
     </defs>
     <g transform="translate(130.088 124.560514)scale(0.2 -0.2)">
      <use xlink:href="#DejaVuSans-65"/>
      <use x="68.408203" xlink:href="#DejaVuSans-103"/>
      <use x="131.884766" xlink:href="#DejaVuSans-101"/>
      <use x="193.408203" xlink:href="#DejaVuSans-110"/>
      <use x="256.787109" xlink:href="#DejaVuSans-116"/>
      <use x="295.996094" xlink:href="#DejaVuSans-32"/>
      <use x="327.783203" xlink:href="#DejaVuSans-48"/>
     </g>
    </g>
    <g id="line2d_23"/>
    <g id="line2d_24">
     <g>
      <use style="fill:#008000;stroke:#008000;stroke-linejoin:miter;" x="94.088" xlink:href="#ma4968ad1bb" y="146.916764"/>
     </g>
    </g>
    <g id="text_15">
     <!-- Agent 1 -->
     <g transform="translate(130.088 153.916764)scale(0.2 -0.2)">
      <use xlink:href="#DejaVuSans-65"/>
      <use x="68.408203" xlink:href="#DejaVuSans-103"/>
      <use x="131.884766" xlink:href="#DejaVuSans-101"/>
      <use x="193.408203" xlink:href="#DejaVuSans-110"/>
      <use x="256.787109" xlink:href="#DejaVuSans-116"/>
      <use x="295.996094" xlink:href="#DejaVuSans-32"/>
      <use x="327.783203" xlink:href="#DejaVuSans-49"/>
     </g>
    </g>
    <g id="line2d_25"/>
    <g id="line2d_26">
     <g>
      <use style="fill:#0000ff;stroke:#0000ff;stroke-linejoin:miter;" x="94.088" xlink:href="#ma918f8893a" y="176.273014"/>
     </g>
    </g>
    <g id="text_16">
     <!-- Agent 2 -->
     <g transform="translate(130.088 183.273014)scale(0.2 -0.2)">
      <use xlink:href="#DejaVuSans-65"/>
      <use x="68.408203" xlink:href="#DejaVuSans-103"/>
      <use x="131.884766" xlink:href="#DejaVuSans-101"/>
      <use x="193.408203" xlink:href="#DejaVuSans-110"/>
      <use x="256.787109" xlink:href="#DejaVuSans-116"/>
      <use x="295.996094" xlink:href="#DejaVuSans-32"/>
      <use x="327.783203" xlink:href="#DejaVuSans-50"/>
     </g>
    </g>
   </g>
  </g>
  <g id="axes_2">
   <g id="patch_8">
    <path d="M 417.132779 376.232611 
L 731.358 376.232611 
L 731.358 62.007389 
L 417.132779 62.007389 
z
" style="fill:#ffffff;"/>
   </g>
   <g id="matplotlib.axis_3">
    <g id="xtick_6">
     <g id="line2d_27">
      <g>
       <use style="stroke:#000000;stroke-width:0.8;" x="454.839805" xlink:href="#m3e541a0080" y="376.232611"/>
      </g>
     </g>
     <g id="text_17">
      <!-- 0 -->
      <g transform="translate(448.477305 398.429486)scale(0.2 -0.2)">
       <use xlink:href="#DejaVuSans-48"/>
      </g>
     </g>
    </g>
    <g id="xtick_7">
     <g id="line2d_28">
      <g>
       <use style="stroke:#000000;stroke-width:0.8;" x="517.68485" xlink:href="#m3e541a0080" y="376.232611"/>
      </g>
     </g>
     <g id="text_18">
      <!-- 25 -->
      <g transform="translate(504.95985 398.429486)scale(0.2 -0.2)">
       <use xlink:href="#DejaVuSans-50"/>
       <use x="63.623047" xlink:href="#DejaVuSans-53"/>
      </g>
     </g>
    </g>
    <g id="xtick_8">
     <g id="line2d_29">
      <g>
       <use style="stroke:#000000;stroke-width:0.8;" x="580.529894" xlink:href="#m3e541a0080" y="376.232611"/>
      </g>
     </g>
     <g id="text_19">
      <!-- 50 -->
      <g transform="translate(567.804894 398.429486)scale(0.2 -0.2)">
       <use xlink:href="#DejaVuSans-53"/>
       <use x="63.623047" xlink:href="#DejaVuSans-48"/>
      </g>
     </g>
    </g>
    <g id="xtick_9">
     <g id="line2d_30">
      <g>
       <use style="stroke:#000000;stroke-width:0.8;" x="643.374938" xlink:href="#m3e541a0080" y="376.232611"/>
      </g>
     </g>
     <g id="text_20">
      <!-- 75 -->
      <g transform="translate(630.649938 398.429486)scale(0.2 -0.2)">
       <use xlink:href="#DejaVuSans-55"/>
       <use x="63.623047" xlink:href="#DejaVuSans-53"/>
      </g>
     </g>
    </g>
    <g id="xtick_10">
     <g id="line2d_31">
      <g>
       <use style="stroke:#000000;stroke-width:0.8;" x="706.219982" xlink:href="#m3e541a0080" y="376.232611"/>
      </g>
     </g>
     <g id="text_21">
      <!-- 100 -->
      <g transform="translate(687.132482 398.429486)scale(0.2 -0.2)">
       <use xlink:href="#DejaVuSans-49"/>
       <use x="63.623047" xlink:href="#DejaVuSans-48"/>
       <use x="127.246094" xlink:href="#DejaVuSans-48"/>
      </g>
     </g>
    </g>
   </g>
   <g id="matplotlib.axis_4">
    <g id="ytick_7">
     <g id="line2d_32">
      <g>
       <use style="stroke:#000000;stroke-width:0.8;" x="417.132779" xlink:href="#m19c6b2395e" y="338.525584"/>
      </g>
     </g>
     <g id="text_22">
      <!-- 0 -->
      <g transform="translate(397.407779 346.124021)scale(0.2 -0.2)">
       <use xlink:href="#DejaVuSans-48"/>
      </g>
     </g>
    </g>
    <g id="ytick_8">
     <g id="line2d_33">
      <g>
       <use style="stroke:#000000;stroke-width:0.8;" x="417.132779" xlink:href="#m19c6b2395e" y="288.249549"/>
      </g>
     </g>
     <g id="text_23">
      <!-- 20 -->
      <g transform="translate(384.682779 295.847986)scale(0.2 -0.2)">
       <use xlink:href="#DejaVuSans-50"/>
       <use x="63.623047" xlink:href="#DejaVuSans-48"/>
      </g>
     </g>
    </g>
    <g id="ytick_9">
     <g id="line2d_34">
      <g>
       <use style="stroke:#000000;stroke-width:0.8;" x="417.132779" xlink:href="#m19c6b2395e" y="237.973513"/>
      </g>
     </g>
     <g id="text_24">
      <!-- 40 -->
      <g transform="translate(384.682779 245.571951)scale(0.2 -0.2)">
       <use xlink:href="#DejaVuSans-52"/>
       <use x="63.623047" xlink:href="#DejaVuSans-48"/>
      </g>
     </g>
    </g>
    <g id="ytick_10">
     <g id="line2d_35">
      <g>
       <use style="stroke:#000000;stroke-width:0.8;" x="417.132779" xlink:href="#m19c6b2395e" y="187.697478"/>
      </g>
     </g>
     <g id="text_25">
      <!-- 60 -->
      <g transform="translate(384.682779 195.295915)scale(0.2 -0.2)">
       <use xlink:href="#DejaVuSans-54"/>
       <use x="63.623047" xlink:href="#DejaVuSans-48"/>
      </g>
     </g>
    </g>
    <g id="ytick_11">
     <g id="line2d_36">
      <g>
       <use style="stroke:#000000;stroke-width:0.8;" x="417.132779" xlink:href="#m19c6b2395e" y="137.421443"/>
      </g>
     </g>
     <g id="text_26">
      <!-- 80 -->
      <g transform="translate(384.682779 145.01988)scale(0.2 -0.2)">
       <use xlink:href="#DejaVuSans-56"/>
       <use x="63.623047" xlink:href="#DejaVuSans-48"/>
      </g>
     </g>
    </g>
    <g id="ytick_12">
     <g id="line2d_37">
      <g>
       <use style="stroke:#000000;stroke-width:0.8;" x="417.132779" xlink:href="#m19c6b2395e" y="87.145407"/>
      </g>
     </g>
     <g id="text_27">
      <!-- 100 -->
      <g transform="translate(371.957779 94.743845)scale(0.2 -0.2)">
       <use xlink:href="#DejaVuSans-49"/>
       <use x="63.623047" xlink:href="#DejaVuSans-48"/>
       <use x="127.246094" xlink:href="#DejaVuSans-48"/>
      </g>
     </g>
    </g>
   </g>
   <g id="line2d_38">
    <path clip-path="url(#p674cedacfa)" d="M 454.839805 338.525584 
L 459.453358 338.411089 
L 465.23796 338.029949 
L 472.312083 337.326542 
L 480.769078 336.246983 
L 490.290958 334.801387 
L 500.832175 332.976768 
L 512.328704 330.760601 
L 524.265231 328.236107 
L 536.513681 325.421927 
L 548.954437 322.334082 
L 561.028615 319.110435 
L 572.639632 315.788461 
L 584.156468 312.262317 
L 595.074325 308.687657 
L 605.355317 305.093768 
L 615.390321 301.3486 
L 624.733939 297.62505 
L 633.385864 293.947671 
L 641.727554 290.164991 
L 649.730441 286.285721 
L 657.029049 282.501718 
L 663.97316 278.648358 
L 670.238644 274.923977 
L 676.148212 271.157139 
L 681.686787 267.359637 
L 686.591986 263.735545 
L 691.138421 260.108066 
L 695.315575 256.490906 
L 699.113615 252.899107 
L 702.35371 249.534643 
L 705.237959 246.222938 
L 707.759468 242.980499 
L 709.801965 239.997855 
L 711.509938 237.109068 
L 712.807454 234.491451 
L 713.800388 231.987736 
L 714.45131 229.758523 
L 714.828273 227.65815 
L 714.930395 225.827386 
L 714.807305 224.251004 
L 714.472539 222.804805 
L 713.974133 221.595229 
L 713.292515 220.515598 
L 712.426337 219.575622 
L 711.374258 218.785397 
L 710.134942 218.155411 
L 708.707048 217.696558 
L 707.089227 217.42014 
L 705.280119 217.33788 
L 703.278347 217.461927 
L 700.890721 217.843729 
L 698.273524 218.499023 
L 697.42176 218.75832 
L 697.42176 218.75832 
" style="fill:none;stroke:#00bfbf;stroke-linecap:square;stroke-width:2;"/>
   </g>
   <g id="line2d_39">
    <path clip-path="url(#p674cedacfa)" d="M 454.839805 275.68054 
L 458.205596 275.568027 
L 461.663018 275.2388 
L 465.533199 274.646914 
L 469.834505 273.749283 
L 474.240989 272.603898 
L 479.095218 271.115079 
L 484.411063 269.251687 
L 490.200179 266.988622 
L 496.843992 264.142364 
L 504.368292 260.659131 
L 512.791654 256.505296 
L 522.906279 251.259506 
L 536.323021 244.031837 
L 574.610268 223.260706 
L 586.08638 217.365089 
L 596.266502 212.382599 
L 605.541001 208.09372 
L 613.915378 204.461739 
L 621.775619 201.289473 
L 629.123136 198.55602 
L 636.319067 196.119516 
L 642.999666 194.091926 
L 649.51385 192.353265 
L 655.518048 190.978802 
L 661.346189 189.873666 
L 666.676584 189.07914 
L 671.825843 188.527019 
L 676.781601 188.216141 
L 681.531011 188.143896 
L 686.060701 188.306225 
L 690.110754 188.668367 
L 693.941732 189.227646 
L 697.541025 189.977141 
L 700.895494 190.908779 
L 703.80578 191.939431 
L 706.477086 193.113558 
L 708.897172 194.421752 
L 710.918029 195.754616 
L 712.698185 197.186221 
L 714.22646 198.706807 
L 715.4099 200.189339 
L 716.356527 201.730711 
L 717.011531 203.197626 
L 717.448158 204.698903 
L 717.658046 206.226399 
L 717.632562 207.771598 
L 717.394834 209.196 
L 716.944783 210.620696 
L 716.27514 212.038306 
L 715.378428 213.441185 
L 714.246959 214.821424 
L 712.735593 216.291711 
L 710.92487 217.714358 
L 708.803907 219.078023 
L 706.361493 220.370989 
L 703.586083 221.581165 
L 700.465791 222.69608 
L 698.772505 223.213816 
L 698.772505 223.213816 
" style="fill:none;stroke:#008000;stroke-linecap:square;stroke-width:2;"/>
   </g>
   <g id="line2d_40">
    <path clip-path="url(#p674cedacfa)" d="M 454.839805 212.835496 
L 471.603313 212.948099 
L 483.417991 213.244107 
L 493.791736 213.721944 
L 503.508523 214.395448 
L 512.579341 215.248123 
L 521.379726 216.300799 
L 529.903061 217.54558 
L 538.136151 218.968601 
L 546.460405 220.636374 
L 554.465889 222.464693 
L 562.536957 224.537571 
L 570.253433 226.741307 
L 578.003973 229.179794 
L 585.77305 231.85776 
L 593.5432 234.778446 
L 600.887963 237.770836 
L 608.198716 240.98263 
L 615.456552 244.412483 
L 622.641493 248.057594 
L 629.732605 251.913641 
L 636.323999 255.743844 
L 642.793354 259.75062 
L 649.121255 263.926291 
L 655.287892 268.261772 
L 661.273153 272.746531 
L 667.056706 277.368533 
L 672.297471 281.831886 
L 677.324352 286.392187 
L 682.120295 291.035546 
L 686.668348 295.746749 
L 690.951726 300.509229 
L 694.953876 305.305029 
L 698.43602 309.814139 
L 701.643597 314.318381 
L 704.56383 318.799471 
L 707.184321 323.237944 
L 709.349105 327.323859 
L 711.232974 331.336894 
L 712.826951 335.258333 
L 714.040018 338.800465 
L 714.989255 342.230137 
L 715.668532 345.530084 
L 716.050973 348.445475 
L 716.194284 351.220225 
L 716.112254 353.627121 
L 715.823257 355.890742 
L 715.32478 357.998449 
L 714.687932 359.768271 
L 713.874578 361.388341 
L 712.883394 362.848255 
L 711.838343 364.016408 
L 710.64764 365.038167 
L 709.310732 365.905327 
L 707.8272 366.609486 
L 706.196768 367.142037 
L 704.419305 367.494172 
L 702.494827 367.656877 
L 700.423506 367.62093 
L 698.205665 367.376898 
L 695.570149 366.849968 
L 692.755251 366.040697 
L 689.762127 364.935219 
L 686.592197 363.519337 
L 684.941445 362.690467 
L 684.941445 362.690467 
" style="fill:none;stroke:#0000ff;stroke-linecap:square;stroke-width:2;"/>
   </g>
   <g id="line2d_41">
    <g clip-path="url(#p674cedacfa)">
     <use style="fill:#ff0000;stroke:#ff0000;stroke-linejoin:bevel;" x="517.68485" xlink:href="#m10680259ca" y="275.68054"/>
    </g>
   </g>
   <g id="line2d_42">
    <g clip-path="url(#p674cedacfa)">
     <use style="fill:#00bfbf;stroke:#00bfbf;stroke-linejoin:miter;" x="584.743184" xlink:href="#m4c1d286532" y="312.076152"/>
    </g>
   </g>
   <g id="line2d_43">
    <g clip-path="url(#p674cedacfa)">
     <use style="fill:#008000;stroke:#008000;stroke-linejoin:miter;" x="546.275222" xlink:href="#ma4968ad1bb" y="238.579081"/>
    </g>
   </g>
   <g id="line2d_44">
    <g clip-path="url(#p674cedacfa)">
     <use style="fill:#0000ff;stroke:#0000ff;stroke-linejoin:miter;" x="529.903061" xlink:href="#ma918f8893a" y="217.54558"/>
    </g>
   </g>
   <g id="patch_9">
    <path d="M 417.132779 376.232611 
L 417.132779 62.007389 
" style="fill:none;stroke:#000000;stroke-linecap:square;stroke-linejoin:miter;stroke-width:0.8;"/>
   </g>
   <g id="patch_10">
    <path d="M 731.358 376.232611 
L 731.358 62.007389 
" style="fill:none;stroke:#000000;stroke-linecap:square;stroke-linejoin:miter;stroke-width:0.8;"/>
   </g>
   <g id="patch_11">
    <path d="M 417.132779 376.232611 
L 731.358 376.232611 
" style="fill:none;stroke:#000000;stroke-linecap:square;stroke-linejoin:miter;stroke-width:0.8;"/>
   </g>
   <g id="patch_12">
    <path d="M 417.132779 62.007389 
L 731.358 62.007389 
" style="fill:none;stroke:#000000;stroke-linecap:square;stroke-linejoin:miter;stroke-width:0.8;"/>
   </g>
   <g id="text_28">
    <!-- t = 10 -->
    <g transform="translate(536.587889 56.007389)scale(0.24 -0.24)">
     <use xlink:href="#DejaVuSans-116"/>
     <use x="39.208984" xlink:href="#DejaVuSans-32"/>
     <use x="70.996094" xlink:href="#DejaVuSans-61"/>
     <use x="154.785156" xlink:href="#DejaVuSans-32"/>
     <use x="186.572266" xlink:href="#DejaVuSans-49"/>
     <use x="250.195312" xlink:href="#DejaVuSans-48"/>
    </g>
   </g>
  </g>
  <g id="axes_3">
   <g id="patch_13">
    <path d="M 56.088 814.472611 
L 370.313221 814.472611 
L 370.313221 500.247389 
L 56.088 500.247389 
z
" style="fill:#ffffff;"/>
   </g>
   <g id="matplotlib.axis_5">
    <g id="xtick_11">
     <g id="line2d_45">
      <g>
       <use style="stroke:#000000;stroke-width:0.8;" x="93.795027" xlink:href="#m3e541a0080" y="814.472611"/>
      </g>
     </g>
     <g id="text_29">
      <!-- 0 -->
      <g transform="translate(87.432527 836.669486)scale(0.2 -0.2)">
       <use xlink:href="#DejaVuSans-48"/>
      </g>
     </g>
    </g>
    <g id="xtick_12">
     <g id="line2d_46">
      <g>
       <use style="stroke:#000000;stroke-width:0.8;" x="156.640071" xlink:href="#m3e541a0080" y="814.472611"/>
      </g>
     </g>
     <g id="text_30">
      <!-- 25 -->
      <g transform="translate(143.915071 836.669486)scale(0.2 -0.2)">
       <use xlink:href="#DejaVuSans-50"/>
       <use x="63.623047" xlink:href="#DejaVuSans-53"/>
      </g>
     </g>
    </g>
    <g id="xtick_13">
     <g id="line2d_47">
      <g>
       <use style="stroke:#000000;stroke-width:0.8;" x="219.485115" xlink:href="#m3e541a0080" y="814.472611"/>
      </g>
     </g>
     <g id="text_31">
      <!-- 50 -->
      <g transform="translate(206.760115 836.669486)scale(0.2 -0.2)">
       <use xlink:href="#DejaVuSans-53"/>
       <use x="63.623047" xlink:href="#DejaVuSans-48"/>
      </g>
     </g>
    </g>
    <g id="xtick_14">
     <g id="line2d_48">
      <g>
       <use style="stroke:#000000;stroke-width:0.8;" x="282.330159" xlink:href="#m3e541a0080" y="814.472611"/>
      </g>
     </g>
     <g id="text_32">
      <!-- 75 -->
      <g transform="translate(269.605159 836.669486)scale(0.2 -0.2)">
       <use xlink:href="#DejaVuSans-55"/>
       <use x="63.623047" xlink:href="#DejaVuSans-53"/>
      </g>
     </g>
    </g>
    <g id="xtick_15">
     <g id="line2d_49">
      <g>
       <use style="stroke:#000000;stroke-width:0.8;" x="345.175203" xlink:href="#m3e541a0080" y="814.472611"/>
      </g>
     </g>
     <g id="text_33">
      <!-- 100 -->
      <g transform="translate(326.087703 836.669486)scale(0.2 -0.2)">
       <use xlink:href="#DejaVuSans-49"/>
       <use x="63.623047" xlink:href="#DejaVuSans-48"/>
       <use x="127.246094" xlink:href="#DejaVuSans-48"/>
      </g>
     </g>
    </g>
   </g>
   <g id="matplotlib.axis_6">
    <g id="ytick_13">
     <g id="line2d_50">
      <g>
       <use style="stroke:#000000;stroke-width:0.8;" x="56.088" xlink:href="#m19c6b2395e" y="776.765584"/>
      </g>
     </g>
     <g id="text_34">
      <!-- 0 -->
      <g transform="translate(36.363 784.364021)scale(0.2 -0.2)">
       <use xlink:href="#DejaVuSans-48"/>
      </g>
     </g>
    </g>
    <g id="ytick_14">
     <g id="line2d_51">
      <g>
       <use style="stroke:#000000;stroke-width:0.8;" x="56.088" xlink:href="#m19c6b2395e" y="726.489549"/>
      </g>
     </g>
     <g id="text_35">
      <!-- 20 -->
      <g transform="translate(23.638 734.087986)scale(0.2 -0.2)">
       <use xlink:href="#DejaVuSans-50"/>
       <use x="63.623047" xlink:href="#DejaVuSans-48"/>
      </g>
     </g>
    </g>
    <g id="ytick_15">
     <g id="line2d_52">
      <g>
       <use style="stroke:#000000;stroke-width:0.8;" x="56.088" xlink:href="#m19c6b2395e" y="676.213513"/>
      </g>
     </g>
     <g id="text_36">
      <!-- 40 -->
      <g transform="translate(23.638 683.811951)scale(0.2 -0.2)">
       <use xlink:href="#DejaVuSans-52"/>
       <use x="63.623047" xlink:href="#DejaVuSans-48"/>
      </g>
     </g>
    </g>
    <g id="ytick_16">
     <g id="line2d_53">
      <g>
       <use style="stroke:#000000;stroke-width:0.8;" x="56.088" xlink:href="#m19c6b2395e" y="625.937478"/>
      </g>
     </g>
     <g id="text_37">
      <!-- 60 -->
      <g transform="translate(23.638 633.535915)scale(0.2 -0.2)">
       <use xlink:href="#DejaVuSans-54"/>
       <use x="63.623047" xlink:href="#DejaVuSans-48"/>
      </g>
     </g>
    </g>
    <g id="ytick_17">
     <g id="line2d_54">
      <g>
       <use style="stroke:#000000;stroke-width:0.8;" x="56.088" xlink:href="#m19c6b2395e" y="575.661443"/>
      </g>
     </g>
     <g id="text_38">
      <!-- 80 -->
      <g transform="translate(23.638 583.25988)scale(0.2 -0.2)">
       <use xlink:href="#DejaVuSans-56"/>
       <use x="63.623047" xlink:href="#DejaVuSans-48"/>
      </g>
     </g>
    </g>
    <g id="ytick_18">
     <g id="line2d_55">
      <g>
       <use style="stroke:#000000;stroke-width:0.8;" x="56.088" xlink:href="#m19c6b2395e" y="525.385407"/>
      </g>
     </g>
     <g id="text_39">
      <!-- 100 -->
      <g transform="translate(10.913 532.983845)scale(0.2 -0.2)">
       <use xlink:href="#DejaVuSans-49"/>
       <use x="63.623047" xlink:href="#DejaVuSans-48"/>
       <use x="127.246094" xlink:href="#DejaVuSans-48"/>
      </g>
     </g>
    </g>
   </g>
   <g id="line2d_56">
    <path clip-path="url(#p487ba69b36)" d="M 93.795027 776.765584 
L 98.408579 776.651089 
L 104.193181 776.269949 
L 111.267304 775.566542 
L 119.7243 774.486983 
L 129.246179 773.041387 
L 139.787396 771.216768 
L 151.283925 769.000601 
L 163.220453 766.476107 
L 175.468902 763.661927 
L 187.909658 760.574082 
L 199.983836 757.350435 
L 211.594853 754.028461 
L 223.111689 750.502317 
L 234.029546 746.927657 
L 244.310538 743.333768 
L 254.345542 739.5886 
L 263.68916 735.86505 
L 272.341085 732.187671 
L 280.682775 728.404991 
L 288.685662 724.525721 
L 295.98427 720.741718 
L 302.928381 716.888358 
L 309.193865 713.163977 
L 315.103433 709.397139 
L 320.642008 705.599637 
L 325.547207 701.975545 
L 330.093642 698.348066 
L 334.270796 694.730906 
L 338.068836 691.139107 
L 341.308931 687.774643 
L 344.19318 684.462938 
L 346.714689 681.220499 
L 348.757186 678.237855 
L 350.465159 675.349068 
L 351.762675 672.731451 
L 352.755609 670.227736 
L 353.406531 667.998523 
L 353.783494 665.89815 
L 353.885616 664.067386 
L 353.762526 662.491004 
L 353.42776 661.044805 
L 352.929354 659.835229 
L 352.247736 658.755598 
L 351.381558 657.815622 
L 350.329479 657.025397 
L 349.090163 656.395411 
L 347.662269 655.936558 
L 346.044448 655.66014 
L 344.23534 655.57788 
L 342.233568 655.701927 
L 339.845942 656.083729 
L 337.228745 656.739023 
L 336.376981 656.99832 
L 336.376981 656.99832 
" style="fill:none;stroke:#00bfbf;stroke-linecap:square;stroke-width:2;"/>
   </g>
   <g id="line2d_57">
    <path clip-path="url(#p487ba69b36)" d="M 93.795027 713.92054 
L 97.160817 713.808027 
L 100.618239 713.4788 
L 104.48842 712.886914 
L 108.789726 711.989283 
L 113.19621 710.843898 
L 118.050439 709.355079 
L 123.366285 707.491687 
L 129.1554 705.228622 
L 135.799213 702.382364 
L 143.323513 698.899131 
L 151.746875 694.745296 
L 161.8615 689.499506 
L 175.278242 682.271837 
L 213.565489 661.500706 
L 225.041601 655.605089 
L 235.221723 650.622599 
L 244.496222 646.33372 
L 252.870599 642.701739 
L 260.73084 639.529473 
L 268.078357 636.79602 
L 275.274288 634.359516 
L 281.954887 632.331926 
L 288.469071 630.593265 
L 294.473269 629.218802 
L 300.30141 628.113666 
L 305.631805 627.31914 
L 310.781064 626.767019 
L 315.736822 626.456141 
L 320.486232 626.383896 
L 325.015922 626.546225 
L 329.065975 626.908367 
L 332.896953 627.467646 
L 336.496247 628.217141 
L 339.850715 629.148779 
L 342.761001 630.179431 
L 345.432307 631.353558 
L 347.852393 632.661752 
L 349.873251 633.994616 
L 351.653406 635.426221 
L 353.181681 636.946807 
L 354.365121 638.429339 
L 355.311748 639.970711 
L 355.966752 641.437626 
L 356.403379 642.938903 
L 356.613267 644.466399 
L 356.587783 646.011598 
L 356.350055 647.436 
L 355.900004 648.860696 
L 355.230361 650.278306 
L 354.333649 651.681185 
L 353.20218 653.061424 
L 351.690814 654.531711 
L 349.880091 655.954358 
L 347.759128 657.318023 
L 345.316714 658.610989 
L 342.541304 659.821165 
L 339.421012 660.93608 
L 337.727727 661.453816 
L 337.727727 661.453816 
" style="fill:none;stroke:#008000;stroke-linecap:square;stroke-width:2;"/>
   </g>
   <g id="line2d_58">
    <path clip-path="url(#p487ba69b36)" d="M 93.795027 651.075496 
L 110.558534 651.188099 
L 122.373212 651.484107 
L 132.746957 651.961944 
L 142.463744 652.635448 
L 151.534562 653.488123 
L 160.334947 654.540799 
L 168.858282 655.78558 
L 177.091372 657.208601 
L 185.415626 658.876374 
L 193.42111 660.704693 
L 201.492178 662.777571 
L 209.208654 664.981307 
L 216.959194 667.419794 
L 224.728271 670.09776 
L 232.498421 673.018446 
L 239.843185 676.010836 
L 247.153937 679.22263 
L 254.411773 682.652483 
L 261.596714 686.297594 
L 268.687826 690.153641 
L 275.27922 693.983844 
L 281.748575 697.99062 
L 288.076476 702.166291 
L 294.243113 706.501772 
L 300.228374 710.986531 
L 306.011927 715.608533 
L 311.252692 720.071886 
L 316.279573 724.632187 
L 321.075516 729.275546 
L 325.623569 733.986749 
L 329.906947 738.749229 
L 333.909097 743.545029 
L 337.391241 748.054139 
L 340.598818 752.558381 
L 343.519051 757.039471 
L 346.139542 761.477944 
L 348.304326 765.563859 
L 350.188195 769.576894 
L 351.782172 773.498333 
L 352.995239 777.040465 
L 353.944476 780.470137 
L 354.623753 783.770084 
L 355.006194 786.685475 
L 355.149505 789.460225 
L 355.067475 791.867121 
L 354.778478 794.130742 
L 354.280001 796.238449 
L 353.643153 798.008271 
L 352.829799 799.628341 
L 351.838615 801.088255 
L 350.793564 802.256408 
L 349.602861 803.278167 
L 348.265953 804.145327 
L 346.782421 804.849486 
L 345.151989 805.382037 
L 343.374526 805.734172 
L 341.450048 805.896877 
L 339.378727 805.86093 
L 337.160886 805.616898 
L 334.52537 805.089968 
L 331.710472 804.280697 
L 328.717348 803.175219 
L 325.547418 801.759337 
L 323.896666 800.930467 
L 323.896666 800.930467 
" style="fill:none;stroke:#0000ff;stroke-linecap:square;stroke-width:2;"/>
   </g>
   <g id="line2d_59">
    <g clip-path="url(#p487ba69b36)">
     <use style="fill:#ff0000;stroke:#ff0000;stroke-linejoin:bevel;" x="156.640071" xlink:href="#m10680259ca" y="713.92054"/>
    </g>
   </g>
   <g id="line2d_60">
    <g clip-path="url(#p487ba69b36)">
     <use style="fill:#00bfbf;stroke:#00bfbf;stroke-linejoin:miter;" x="337.088308" xlink:href="#m4c1d286532" y="656.780314"/>
    </g>
   </g>
   <g id="line2d_61">
    <g clip-path="url(#p487ba69b36)">
     <use style="fill:#008000;stroke:#008000;stroke-linejoin:miter;" x="347.310839" xlink:href="#ma4968ad1bb" y="632.345043"/>
    </g>
   </g>
   <g id="line2d_62">
    <g clip-path="url(#p487ba69b36)">
     <use style="fill:#0000ff;stroke:#0000ff;stroke-linejoin:miter;" x="321.075516" xlink:href="#ma918f8893a" y="729.275546"/>
    </g>
   </g>
   <g id="patch_14">
    <path d="M 56.088 814.472611 
L 56.088 500.247389 
" style="fill:none;stroke:#000000;stroke-linecap:square;stroke-linejoin:miter;stroke-width:0.8;"/>
   </g>
   <g id="patch_15">
    <path d="M 370.313221 814.472611 
L 370.313221 500.247389 
" style="fill:none;stroke:#000000;stroke-linecap:square;stroke-linejoin:miter;stroke-width:0.8;"/>
   </g>
   <g id="patch_16">
    <path d="M 56.088 814.472611 
L 370.313221 814.472611 
" style="fill:none;stroke:#000000;stroke-linecap:square;stroke-linejoin:miter;stroke-width:0.8;"/>
   </g>
   <g id="patch_17">
    <path d="M 56.088 500.247389 
L 370.313221 500.247389 
" style="fill:none;stroke:#000000;stroke-linecap:square;stroke-linejoin:miter;stroke-width:0.8;"/>
   </g>
   <g id="text_40">
    <!-- t = 30 -->
    <defs>
     <path d="M 40.578125 39.3125 
Q 47.65625 37.796875 51.625 33 
Q 55.609375 28.21875 55.609375 21.1875 
Q 55.609375 10.40625 48.1875 4.484375 
Q 40.765625 -1.421875 27.09375 -1.421875 
Q 22.515625 -1.421875 17.65625 -0.515625 
Q 12.796875 0.390625 7.625 2.203125 
L 7.625 11.71875 
Q 11.71875 9.328125 16.59375 8.109375 
Q 21.484375 6.890625 26.8125 6.890625 
Q 36.078125 6.890625 40.9375 10.546875 
Q 45.796875 14.203125 45.796875 21.1875 
Q 45.796875 27.640625 41.28125 31.265625 
Q 36.765625 34.90625 28.71875 34.90625 
L 20.21875 34.90625 
L 20.21875 43.015625 
L 29.109375 43.015625 
Q 36.375 43.015625 40.234375 45.921875 
Q 44.09375 48.828125 44.09375 54.296875 
Q 44.09375 59.90625 40.109375 62.90625 
Q 36.140625 65.921875 28.71875 65.921875 
Q 24.65625 65.921875 20.015625 65.03125 
Q 15.375 64.15625 9.8125 62.3125 
L 9.8125 71.09375 
Q 15.4375 72.65625 20.34375 73.4375 
Q 25.25 74.21875 29.59375 74.21875 
Q 40.828125 74.21875 47.359375 69.109375 
Q 53.90625 64.015625 53.90625 55.328125 
Q 53.90625 49.265625 50.4375 45.09375 
Q 46.96875 40.921875 40.578125 39.3125 
z
" id="DejaVuSans-51"/>
    </defs>
    <g transform="translate(175.543111 494.247389)scale(0.24 -0.24)">
     <use xlink:href="#DejaVuSans-116"/>
     <use x="39.208984" xlink:href="#DejaVuSans-32"/>
     <use x="70.996094" xlink:href="#DejaVuSans-61"/>
     <use x="154.785156" xlink:href="#DejaVuSans-32"/>
     <use x="186.572266" xlink:href="#DejaVuSans-51"/>
     <use x="250.195312" xlink:href="#DejaVuSans-48"/>
    </g>
   </g>
  </g>
  <g id="axes_4">
   <g id="patch_18">
    <path d="M 417.132779 814.472611 
L 731.358 814.472611 
L 731.358 500.247389 
L 417.132779 500.247389 
z
" style="fill:#ffffff;"/>
   </g>
   <g id="matplotlib.axis_7">
    <g id="xtick_16">
     <g id="line2d_63">
      <g>
       <use style="stroke:#000000;stroke-width:0.8;" x="454.839805" xlink:href="#m3e541a0080" y="814.472611"/>
      </g>
     </g>
     <g id="text_41">
      <!-- 0 -->
      <g transform="translate(448.477305 836.669486)scale(0.2 -0.2)">
       <use xlink:href="#DejaVuSans-48"/>
      </g>
     </g>
    </g>
    <g id="xtick_17">
     <g id="line2d_64">
      <g>
       <use style="stroke:#000000;stroke-width:0.8;" x="517.68485" xlink:href="#m3e541a0080" y="814.472611"/>
      </g>
     </g>
     <g id="text_42">
      <!-- 25 -->
      <g transform="translate(504.95985 836.669486)scale(0.2 -0.2)">
       <use xlink:href="#DejaVuSans-50"/>
       <use x="63.623047" xlink:href="#DejaVuSans-53"/>
      </g>
     </g>
    </g>
    <g id="xtick_18">
     <g id="line2d_65">
      <g>
       <use style="stroke:#000000;stroke-width:0.8;" x="580.529894" xlink:href="#m3e541a0080" y="814.472611"/>
      </g>
     </g>
     <g id="text_43">
      <!-- 50 -->
      <g transform="translate(567.804894 836.669486)scale(0.2 -0.2)">
       <use xlink:href="#DejaVuSans-53"/>
       <use x="63.623047" xlink:href="#DejaVuSans-48"/>
      </g>
     </g>
    </g>
    <g id="xtick_19">
     <g id="line2d_66">
      <g>
       <use style="stroke:#000000;stroke-width:0.8;" x="643.374938" xlink:href="#m3e541a0080" y="814.472611"/>
      </g>
     </g>
     <g id="text_44">
      <!-- 75 -->
      <g transform="translate(630.649938 836.669486)scale(0.2 -0.2)">
       <use xlink:href="#DejaVuSans-55"/>
       <use x="63.623047" xlink:href="#DejaVuSans-53"/>
      </g>
     </g>
    </g>
    <g id="xtick_20">
     <g id="line2d_67">
      <g>
       <use style="stroke:#000000;stroke-width:0.8;" x="706.219982" xlink:href="#m3e541a0080" y="814.472611"/>
      </g>
     </g>
     <g id="text_45">
      <!-- 100 -->
      <g transform="translate(687.132482 836.669486)scale(0.2 -0.2)">
       <use xlink:href="#DejaVuSans-49"/>
       <use x="63.623047" xlink:href="#DejaVuSans-48"/>
       <use x="127.246094" xlink:href="#DejaVuSans-48"/>
      </g>
     </g>
    </g>
   </g>
   <g id="matplotlib.axis_8">
    <g id="ytick_19">
     <g id="line2d_68">
      <g>
       <use style="stroke:#000000;stroke-width:0.8;" x="417.132779" xlink:href="#m19c6b2395e" y="776.765584"/>
      </g>
     </g>
     <g id="text_46">
      <!-- 0 -->
      <g transform="translate(397.407779 784.364021)scale(0.2 -0.2)">
       <use xlink:href="#DejaVuSans-48"/>
      </g>
     </g>
    </g>
    <g id="ytick_20">
     <g id="line2d_69">
      <g>
       <use style="stroke:#000000;stroke-width:0.8;" x="417.132779" xlink:href="#m19c6b2395e" y="726.489549"/>
      </g>
     </g>
     <g id="text_47">
      <!-- 20 -->
      <g transform="translate(384.682779 734.087986)scale(0.2 -0.2)">
       <use xlink:href="#DejaVuSans-50"/>
       <use x="63.623047" xlink:href="#DejaVuSans-48"/>
      </g>
     </g>
    </g>
    <g id="ytick_21">
     <g id="line2d_70">
      <g>
       <use style="stroke:#000000;stroke-width:0.8;" x="417.132779" xlink:href="#m19c6b2395e" y="676.213513"/>
      </g>
     </g>
     <g id="text_48">
      <!-- 40 -->
      <g transform="translate(384.682779 683.811951)scale(0.2 -0.2)">
       <use xlink:href="#DejaVuSans-52"/>
       <use x="63.623047" xlink:href="#DejaVuSans-48"/>
      </g>
     </g>
    </g>
    <g id="ytick_22">
     <g id="line2d_71">
      <g>
       <use style="stroke:#000000;stroke-width:0.8;" x="417.132779" xlink:href="#m19c6b2395e" y="625.937478"/>
      </g>
     </g>
     <g id="text_49">
      <!-- 60 -->
      <g transform="translate(384.682779 633.535915)scale(0.2 -0.2)">
       <use xlink:href="#DejaVuSans-54"/>
       <use x="63.623047" xlink:href="#DejaVuSans-48"/>
      </g>
     </g>
    </g>
    <g id="ytick_23">
     <g id="line2d_72">
      <g>
       <use style="stroke:#000000;stroke-width:0.8;" x="417.132779" xlink:href="#m19c6b2395e" y="575.661443"/>
      </g>
     </g>
     <g id="text_50">
      <!-- 80 -->
      <g transform="translate(384.682779 583.25988)scale(0.2 -0.2)">
       <use xlink:href="#DejaVuSans-56"/>
       <use x="63.623047" xlink:href="#DejaVuSans-48"/>
      </g>
     </g>
    </g>
    <g id="ytick_24">
     <g id="line2d_73">
      <g>
       <use style="stroke:#000000;stroke-width:0.8;" x="417.132779" xlink:href="#m19c6b2395e" y="525.385407"/>
      </g>
     </g>
     <g id="text_51">
      <!-- 100 -->
      <g transform="translate(371.957779 532.983845)scale(0.2 -0.2)">
       <use xlink:href="#DejaVuSans-49"/>
       <use x="63.623047" xlink:href="#DejaVuSans-48"/>
       <use x="127.246094" xlink:href="#DejaVuSans-48"/>
      </g>
     </g>
    </g>
   </g>
   <g id="line2d_74">
    <path clip-path="url(#p8ca94e2f6f)" d="M 578.55781 694.64223 
L 575.610052 695.6983 
L 573.09886 696.839597 
L 570.996717 698.043998 
L 569.277409 699.290926 
L 567.915994 700.561312 
L 566.888769 701.837558 
L 566.173238 703.103492 
L 565.775269 704.232929 
L 565.602067 705.331476 
L 565.639193 706.389894 
L 565.906637 707.497843 
L 566.394803 708.537177 
L 567.087492 709.499145 
L 568.058573 710.451441 
L 569.236541 711.294322 
L 570.72631 712.076116 
L 572.418706 712.71483 
L 574.446779 713.237218 
L 576.667525 713.584556 
L 579.239234 713.761072 
L 582.178827 713.727785 
L 585.299413 713.470667 
L 588.791695 712.961453 
L 592.666135 712.172109 
L 597.160705 711.017736 
L 602.310021 709.449762 
L 608.394938 707.353067 
L 617.028915 704.114262 
L 633.738644 697.802047 
L 640.812192 695.395255 
L 646.899539 693.549614 
L 652.51967 692.070801 
L 657.940134 690.876492 
L 663.142185 689.963946 
L 668.107855 689.320214 
L 672.820256 688.924377 
L 677.582831 688.744681 
L 682.389379 688.794163 
L 686.908504 689.056913 
L 691.451999 689.536278 
L 696.011248 690.2378 
L 700.576265 691.16512 
L 705.135592 692.319849 
L 709.676183 693.701429 
L 714.183309 695.307006 
L 718.640442 697.131293 
L 723.029156 699.166443 
L 727.329014 701.401911 
L 731.517467 703.824325 
L 735.569744 706.417351 
L 739 708.823939 
L 739 708.823939 
" style="fill:none;stroke:#00bfbf;stroke-linecap:square;stroke-width:2;"/>
   </g>
   <g id="line2d_75">
    <path clip-path="url(#p8ca94e2f6f)" d="M 717.480425 647.047193 
L 717.310218 647.32649 
L 716.718024 647.807998 
L 715.297245 648.643643 
L 712.481076 650.017998 
L 707.422888 652.214556 
L 699.201078 655.524395 
L 686.115018 660.534064 
L 664.852008 668.41239 
L 601.620145 691.721353 
L 586.424465 697.613414 
L 575.697976 701.998597 
L 568.17734 705.300813 
L 563.056912 707.775236 
L 559.659423 709.647135 
L 557.604142 711.008641 
L 556.430391 712.033065 
L 555.916811 712.743256 
L 555.787513 713.26777 
L 555.91359 713.668697 
L 556.146017 713.92054 
L 556.146017 713.92054 
" style="fill:none;stroke:#008000;stroke-linecap:square;stroke-width:2;"/>
   </g>
   <g id="line2d_76">
    <path clip-path="url(#p8ca94e2f6f)" d="M 706.17287 759.708964 
L 707.157382 761.608857 
L 707.625753 762.967383 
L 707.717904 763.865025 
L 707.569644 764.464565 
L 707.242011 764.862802 
L 706.741673 765.108534 
L 705.983802 765.212714 
L 704.854984 765.11795 
L 703.266082 764.745059 
L 701.045195 763.984126 
L 697.975077 762.683791 
L 693.801364 760.656792 
L 688.380182 757.764765 
L 681.360641 753.757447 
L 672.580729 748.47884 
L 662.372747 742.076657 
L 651.946517 735.276805 
L 642.97711 729.169837 
L 636.308717 724.376572 
L 631.665049 720.781951 
L 628.661679 718.191847 
L 626.938649 716.440038 
L 626.054094 715.260033 
L 625.719861 714.485485 
L 625.725784 713.987084 
L 625.935276 713.670904 
L 626.375248 713.438643 
L 627.152096 713.314087 
L 628.386179 713.355654 
L 630.319951 713.653143 
L 631.56007 713.92054 
L 631.56007 713.92054 
" style="fill:none;stroke:#0000ff;stroke-linecap:square;stroke-width:2;"/>
   </g>
   <g id="line2d_77">
    <g clip-path="url(#p8ca94e2f6f)">
     <use style="fill:#ff0000;stroke:#ff0000;stroke-linejoin:bevel;" x="593.098903" xlink:href="#m10680259ca" y="713.92054"/>
    </g>
   </g>
   <g id="line2d_78">
    <g clip-path="url(#p8ca94e2f6f)">
     <use style="fill:#00bfbf;stroke:#00bfbf;stroke-linejoin:miter;" x="569.165968" xlink:href="#m4c1d286532" y="711.250488"/>
    </g>
   </g>
   <g id="line2d_79">
    <g clip-path="url(#p8ca94e2f6f)">
     <use style="fill:#008000;stroke:#008000;stroke-linejoin:miter;" x="552.01981" xlink:href="#ma4968ad1bb" y="730.307884"/>
    </g>
   </g>
   <g id="line2d_80">
    <g clip-path="url(#p8ca94e2f6f)">
     <use style="fill:#0000ff;stroke:#0000ff;stroke-linejoin:miter;" x="641.510022" xlink:href="#ma918f8893a" y="728.139305"/>
    </g>
   </g>
   <g id="line2d_81">
    <path clip-path="url(#p8ca94e2f6f)" d="M 697.42176 656.99832 
L 577.594767 694.947223 
L 577.594767 694.947223 
" style="fill:none;stroke:#00bfbf;stroke-dasharray:7.4,3.2;stroke-dashoffset:0;stroke-width:2;"/>
   </g>
   <g id="line2d_82">
    <path clip-path="url(#p8ca94e2f6f)" d="M 556.146017 713.92054 
L 557.258728 714.961447 
L 557.927229 715.876706 
L 558.261806 716.692478 
L 558.34978 717.46442 
L 558.216163 718.272281 
L 557.840447 719.15256 
L 557.122814 720.239863 
L 555.653257 721.993206 
L 553.595031 724.50212 
L 552.679468 725.967999 
L 552.131967 727.248237 
L 551.869582 728.421166 
L 551.855914 729.470401 
L 552.060653 730.436174 
L 552.463732 731.295688 
L 553.055636 732.045795 
L 553.813908 732.654454 
L 554.707206 733.091183 
L 555.69762 733.33027 
L 556.744296 733.354946 
L 557.833601 733.155643 
L 558.980557 732.715961 
L 560.50721 731.863351 
L 562.053402 731.064922 
L 562.982918 730.837859 
L 563.489904 730.815888 
L 563.489904 730.815888 
" style="fill:none;stroke:#008000;stroke-dasharray:7.4,3.2;stroke-dashoffset:0;stroke-width:2;"/>
   </g>
   <g id="patch_19">
    <path d="M 417.132779 814.472611 
L 417.132779 500.247389 
" style="fill:none;stroke:#000000;stroke-linecap:square;stroke-linejoin:miter;stroke-width:0.8;"/>
   </g>
   <g id="patch_20">
    <path d="M 731.358 814.472611 
L 731.358 500.247389 
" style="fill:none;stroke:#000000;stroke-linecap:square;stroke-linejoin:miter;stroke-width:0.8;"/>
   </g>
   <g id="patch_21">
    <path d="M 417.132779 814.472611 
L 731.358 814.472611 
" style="fill:none;stroke:#000000;stroke-linecap:square;stroke-linejoin:miter;stroke-width:0.8;"/>
   </g>
   <g id="patch_22">
    <path d="M 417.132779 500.247389 
L 731.358 500.247389 
" style="fill:none;stroke:#000000;stroke-linecap:square;stroke-linejoin:miter;stroke-width:0.8;"/>
   </g>
   <g id="text_52">
    <!-- t = 45 -->
    <g transform="translate(536.587889 494.247389)scale(0.24 -0.24)">
     <use xlink:href="#DejaVuSans-116"/>
     <use x="39.208984" xlink:href="#DejaVuSans-32"/>
     <use x="70.996094" xlink:href="#DejaVuSans-61"/>
     <use x="154.785156" xlink:href="#DejaVuSans-32"/>
     <use x="186.572266" xlink:href="#DejaVuSans-52"/>
     <use x="250.195312" xlink:href="#DejaVuSans-53"/>
    </g>
   </g>
  </g>
  <g id="axes_5">
   <g id="patch_23">
    <path d="M 56.088 1252.712611 
L 370.313221 1252.712611 
L 370.313221 938.487389 
L 56.088 938.487389 
z
" style="fill:#ffffff;"/>
   </g>
   <g id="matplotlib.axis_9">
    <g id="xtick_21">
     <g id="line2d_83">
      <g>
       <use style="stroke:#000000;stroke-width:0.8;" x="93.795027" xlink:href="#m3e541a0080" y="1252.712611"/>
      </g>
     </g>
     <g id="text_53">
      <!-- 0 -->
      <g transform="translate(87.432527 1274.909486)scale(0.2 -0.2)">
       <use xlink:href="#DejaVuSans-48"/>
      </g>
     </g>
    </g>
    <g id="xtick_22">
     <g id="line2d_84">
      <g>
       <use style="stroke:#000000;stroke-width:0.8;" x="156.640071" xlink:href="#m3e541a0080" y="1252.712611"/>
      </g>
     </g>
     <g id="text_54">
      <!-- 25 -->
      <g transform="translate(143.915071 1274.909486)scale(0.2 -0.2)">
       <use xlink:href="#DejaVuSans-50"/>
       <use x="63.623047" xlink:href="#DejaVuSans-53"/>
      </g>
     </g>
    </g>
    <g id="xtick_23">
     <g id="line2d_85">
      <g>
       <use style="stroke:#000000;stroke-width:0.8;" x="219.485115" xlink:href="#m3e541a0080" y="1252.712611"/>
      </g>
     </g>
     <g id="text_55">
      <!-- 50 -->
      <g transform="translate(206.760115 1274.909486)scale(0.2 -0.2)">
       <use xlink:href="#DejaVuSans-53"/>
       <use x="63.623047" xlink:href="#DejaVuSans-48"/>
      </g>
     </g>
    </g>
    <g id="xtick_24">
     <g id="line2d_86">
      <g>
       <use style="stroke:#000000;stroke-width:0.8;" x="282.330159" xlink:href="#m3e541a0080" y="1252.712611"/>
      </g>
     </g>
     <g id="text_56">
      <!-- 75 -->
      <g transform="translate(269.605159 1274.909486)scale(0.2 -0.2)">
       <use xlink:href="#DejaVuSans-55"/>
       <use x="63.623047" xlink:href="#DejaVuSans-53"/>
      </g>
     </g>
    </g>
    <g id="xtick_25">
     <g id="line2d_87">
      <g>
       <use style="stroke:#000000;stroke-width:0.8;" x="345.175203" xlink:href="#m3e541a0080" y="1252.712611"/>
      </g>
     </g>
     <g id="text_57">
      <!-- 100 -->
      <g transform="translate(326.087703 1274.909486)scale(0.2 -0.2)">
       <use xlink:href="#DejaVuSans-49"/>
       <use x="63.623047" xlink:href="#DejaVuSans-48"/>
       <use x="127.246094" xlink:href="#DejaVuSans-48"/>
      </g>
     </g>
    </g>
   </g>
   <g id="matplotlib.axis_10">
    <g id="ytick_25">
     <g id="line2d_88">
      <g>
       <use style="stroke:#000000;stroke-width:0.8;" x="56.088" xlink:href="#m19c6b2395e" y="1215.005584"/>
      </g>
     </g>
     <g id="text_58">
      <!-- 0 -->
      <g transform="translate(36.363 1222.604021)scale(0.2 -0.2)">
       <use xlink:href="#DejaVuSans-48"/>
      </g>
     </g>
    </g>
    <g id="ytick_26">
     <g id="line2d_89">
      <g>
       <use style="stroke:#000000;stroke-width:0.8;" x="56.088" xlink:href="#m19c6b2395e" y="1164.729549"/>
      </g>
     </g>
     <g id="text_59">
      <!-- 20 -->
      <g transform="translate(23.638 1172.327986)scale(0.2 -0.2)">
       <use xlink:href="#DejaVuSans-50"/>
       <use x="63.623047" xlink:href="#DejaVuSans-48"/>
      </g>
     </g>
    </g>
    <g id="ytick_27">
     <g id="line2d_90">
      <g>
       <use style="stroke:#000000;stroke-width:0.8;" x="56.088" xlink:href="#m19c6b2395e" y="1114.453513"/>
      </g>
     </g>
     <g id="text_60">
      <!-- 40 -->
      <g transform="translate(23.638 1122.051951)scale(0.2 -0.2)">
       <use xlink:href="#DejaVuSans-52"/>
       <use x="63.623047" xlink:href="#DejaVuSans-48"/>
      </g>
     </g>
    </g>
    <g id="ytick_28">
     <g id="line2d_91">
      <g>
       <use style="stroke:#000000;stroke-width:0.8;" x="56.088" xlink:href="#m19c6b2395e" y="1064.177478"/>
      </g>
     </g>
     <g id="text_61">
      <!-- 60 -->
      <g transform="translate(23.638 1071.775915)scale(0.2 -0.2)">
       <use xlink:href="#DejaVuSans-54"/>
       <use x="63.623047" xlink:href="#DejaVuSans-48"/>
      </g>
     </g>
    </g>
    <g id="ytick_29">
     <g id="line2d_92">
      <g>
       <use style="stroke:#000000;stroke-width:0.8;" x="56.088" xlink:href="#m19c6b2395e" y="1013.901443"/>
      </g>
     </g>
     <g id="text_62">
      <!-- 80 -->
      <g transform="translate(23.638 1021.49988)scale(0.2 -0.2)">
       <use xlink:href="#DejaVuSans-56"/>
       <use x="63.623047" xlink:href="#DejaVuSans-48"/>
      </g>
     </g>
    </g>
    <g id="ytick_30">
     <g id="line2d_93">
      <g>
       <use style="stroke:#000000;stroke-width:0.8;" x="56.088" xlink:href="#m19c6b2395e" y="963.625407"/>
      </g>
     </g>
     <g id="text_63">
      <!-- 100 -->
      <g transform="translate(10.913 971.223845)scale(0.2 -0.2)">
       <use xlink:href="#DejaVuSans-49"/>
       <use x="63.623047" xlink:href="#DejaVuSans-48"/>
       <use x="127.246094" xlink:href="#DejaVuSans-48"/>
      </g>
     </g>
    </g>
   </g>
   <g id="line2d_94">
    <path clip-path="url(#pb49de5d488)" d="M 220.592942 1151.649977 
L 223.255957 1151.504774 
L 225.451768 1151.166807 
L 227.379931 1150.64179 
L 228.940708 1149.993772 
L 230.289468 1149.197586 
L 231.434887 1148.259302 
L 232.385422 1147.184834 
L 233.149314 1145.97995 
L 233.734597 1144.650277 
L 234.174134 1143.085052 
L 234.436096 1141.262067 
L 234.493021 1139.295906 
L 234.340222 1137.049617 
L 233.920781 1134.349825 
L 233.212855 1131.315139 
L 232.195574 1127.931188 
L 230.781349 1124.003471 
L 228.919654 1119.497286 
L 226.472442 1114.183651 
L 223.374813 1108.018967 
L 219.464466 1100.759498 
L 214.442868 1091.936404 
L 207.602327 1080.406206 
L 185.478098 1043.452974 
L 180.999748 1035.365356 
L 177.650439 1028.881821 
L 175.114246 1023.514533 
L 173.21778 1019.007402 
L 171.825889 1015.136085 
L 170.921396 1012.000899 
L 170.357454 1009.254161 
L 170.118084 1006.997548 
L 170.133679 1005.175057 
L 170.355579 1003.632872 
L 170.753634 1002.346758 
L 171.296607 1001.291624 
L 172.014297 1000.376685 
L 172.914492 999.608182 
L 174.005182 998.992515 
L 175.294561 998.536256 
L 176.79104 998.246146 
L 178.644143 998.127474 
L 180.758512 998.218404 
L 182.088395 998.367976 
L 182.088395 998.367976 
" style="fill:none;stroke:#00bfbf;stroke-linecap:square;stroke-width:2;"/>
   </g>
   <g id="line2d_95">
    <path clip-path="url(#pb49de5d488)" d="M 356.435646 1085.287193 
L 356.265439 1085.56649 
L 355.673245 1086.047998 
L 354.252466 1086.883643 
L 351.436297 1088.257998 
L 346.378109 1090.454556 
L 338.156299 1093.764395 
L 325.070239 1098.774064 
L 303.807229 1106.65239 
L 240.575366 1129.961353 
L 225.379686 1135.853414 
L 214.653197 1140.238597 
L 207.132561 1143.540813 
L 202.012133 1146.015236 
L 198.614644 1147.887135 
L 196.559363 1149.248641 
L 195.385612 1150.273065 
L 194.872032 1150.983256 
L 194.742734 1151.50777 
L 194.868811 1151.908697 
L 195.101238 1152.16054 
L 195.101238 1152.16054 
" style="fill:none;stroke:#008000;stroke-linecap:square;stroke-width:2;"/>
   </g>
   <g id="line2d_96">
    <path clip-path="url(#pb49de5d488)" d="M 261.060299 1139.2928 
L 259.101518 1136.642972 
L 256.036012 1132.133015 
L 252.610625 1126.69114 
L 249.112354 1120.698476 
L 245.781536 1114.545109 
L 242.590723 1108.176061 
L 239.623197 1101.75079 
L 236.929365 1095.396286 
L 234.390202 1088.820253 
L 232.179357 1082.475852 
L 230.173121 1076.023558 
L 228.501342 1069.911782 
L 227.050535 1063.77096 
L 225.835832 1057.630461 
L 224.925938 1051.924157 
L 224.2401 1046.263719 
L 223.784007 1040.669329 
L 223.561409 1035.160001 
L 223.574204 1029.753587 
L 223.822533 1024.466792 
L 224.262712 1019.678354 
L 224.902233 1015.018074 
L 225.737543 1010.496705 
L 226.764044 1006.124173 
L 227.97615 1001.909584 
L 229.367359 997.861229 
L 230.930307 993.986591 
L 232.656837 990.292355 
L 234.538059 986.784409 
L 236.564412 983.467857 
L 238.725731 980.347018 
L 241.011305 977.425442 
L 243.409943 974.705908 
L 245.910036 972.190437 
L 248.499618 969.880294 
L 251.374416 967.622654 
L 254.323178 965.603424 
L 257.330085 963.821306 
L 260.379188 962.274024 
L 263.454504 960.958337 
L 266.540104 959.870044 
L 269.839592 958.950488 
L 273.11367 958.278523 
L 276.343675 957.845403 
L 279.511515 957.641171 
L 282.599797 957.654674 
L 285.787624 957.895152 
L 288.847193 958.352886 
L 291.761017 959.009949 
L 294.513202 959.846944 
L 297.244524 960.91005 
L 299.762923 962.125932 
L 302.184311 963.548049 
L 304.343404 965.073249 
L 306.330949 966.752638 
L 308.097488 968.545886 
L 309.597934 970.393552 
L 310.796037 972.213325 
L 311.729399 974.028157 
L 312.346798 975.708932 
L 312.495684 976.319018 
L 312.495684 976.319018 
" style="fill:none;stroke:#0000ff;stroke-linecap:square;stroke-width:2;"/>
   </g>
   <g id="line2d_97">
    <g clip-path="url(#pb49de5d488)">
     <use style="fill:#ff0000;stroke:#ff0000;stroke-linejoin:bevel;" x="261.739857" xlink:href="#m10680259ca" y="1130.805425"/>
    </g>
   </g>
   <g id="line2d_98">
    <g clip-path="url(#pb49de5d488)">
     <use style="fill:#00bfbf;stroke:#00bfbf;stroke-linejoin:miter;" x="233.916707" xlink:href="#m4c1d286532" y="1144.097195"/>
    </g>
   </g>
   <g id="line2d_99">
    <g clip-path="url(#pb49de5d488)">
     <use style="fill:#008000;stroke:#008000;stroke-linejoin:miter;" x="202.141524" xlink:href="#ma4968ad1bb" y="1169.060564"/>
    </g>
   </g>
   <g id="line2d_100">
    <g clip-path="url(#pb49de5d488)">
     <use style="fill:#0000ff;stroke:#0000ff;stroke-linejoin:miter;" x="312.127281" xlink:href="#ma918f8893a" y="975.025065"/>
    </g>
   </g>
   <g id="line2d_101">
    <path clip-path="url(#pb49de5d488)" d="M 336.376981 1095.23832 
L 216.549988 1133.187223 
L 216.549988 1133.187223 
" style="fill:none;stroke:#00bfbf;stroke-dasharray:7.4,3.2;stroke-dashoffset:0;stroke-width:2;"/>
   </g>
   <g id="line2d_102">
    <path clip-path="url(#pb49de5d488)" d="M 195.101238 1152.16054 
L 196.213949 1153.201447 
L 196.88245 1154.116706 
L 197.217027 1154.932478 
L 197.305001 1155.70442 
L 197.171384 1156.512281 
L 196.795668 1157.39256 
L 196.078035 1158.479863 
L 194.608478 1160.233206 
L 192.550252 1162.74212 
L 191.634689 1164.207999 
L 191.087188 1165.488237 
L 190.824803 1166.661166 
L 190.811135 1167.710401 
L 191.015874 1168.676174 
L 191.418953 1169.535688 
L 192.010857 1170.285795 
L 192.76913 1170.894454 
L 193.662427 1171.331183 
L 194.652841 1171.57027 
L 195.699517 1171.594946 
L 196.788822 1171.395643 
L 197.935778 1170.955961 
L 199.462431 1170.103351 
L 201.008623 1169.304922 
L 201.938139 1169.077859 
L 202.445125 1169.055888 
L 202.445125 1169.055888 
" style="fill:none;stroke:#008000;stroke-dasharray:7.4,3.2;stroke-dashoffset:0;stroke-width:2;"/>
   </g>
   <g id="patch_24">
    <path d="M 56.088 1252.712611 
L 56.088 938.487389 
" style="fill:none;stroke:#000000;stroke-linecap:square;stroke-linejoin:miter;stroke-width:0.8;"/>
   </g>
   <g id="patch_25">
    <path d="M 370.313221 1252.712611 
L 370.313221 938.487389 
" style="fill:none;stroke:#000000;stroke-linecap:square;stroke-linejoin:miter;stroke-width:0.8;"/>
   </g>
   <g id="patch_26">
    <path d="M 56.088 1252.712611 
L 370.313221 1252.712611 
" style="fill:none;stroke:#000000;stroke-linecap:square;stroke-linejoin:miter;stroke-width:0.8;"/>
   </g>
   <g id="patch_27">
    <path d="M 56.088 938.487389 
L 370.313221 938.487389 
" style="fill:none;stroke:#000000;stroke-linecap:square;stroke-linejoin:miter;stroke-width:0.8;"/>
   </g>
   <g id="text_64">
    <!-- t = 50 -->
    <g transform="translate(175.543111 932.487389)scale(0.24 -0.24)">
     <use xlink:href="#DejaVuSans-116"/>
     <use x="39.208984" xlink:href="#DejaVuSans-32"/>
     <use x="70.996094" xlink:href="#DejaVuSans-61"/>
     <use x="154.785156" xlink:href="#DejaVuSans-32"/>
     <use x="186.572266" xlink:href="#DejaVuSans-53"/>
     <use x="250.195312" xlink:href="#DejaVuSans-48"/>
    </g>
   </g>
  </g>
  <g id="axes_6">
   <g id="patch_28">
    <path d="M 417.132779 1252.712611 
L 731.358 1252.712611 
L 731.358 938.487389 
L 417.132779 938.487389 
z
" style="fill:#ffffff;"/>
   </g>
   <g id="matplotlib.axis_11">
    <g id="xtick_26">
     <g id="line2d_103">
      <g>
       <use style="stroke:#000000;stroke-width:0.8;" x="454.839805" xlink:href="#m3e541a0080" y="1252.712611"/>
      </g>
     </g>
     <g id="text_65">
      <!-- 0 -->
      <g transform="translate(448.477305 1274.909486)scale(0.2 -0.2)">
       <use xlink:href="#DejaVuSans-48"/>
      </g>
     </g>
    </g>
    <g id="xtick_27">
     <g id="line2d_104">
      <g>
       <use style="stroke:#000000;stroke-width:0.8;" x="517.68485" xlink:href="#m3e541a0080" y="1252.712611"/>
      </g>
     </g>
     <g id="text_66">
      <!-- 25 -->
      <g transform="translate(504.95985 1274.909486)scale(0.2 -0.2)">
       <use xlink:href="#DejaVuSans-50"/>
       <use x="63.623047" xlink:href="#DejaVuSans-53"/>
      </g>
     </g>
    </g>
    <g id="xtick_28">
     <g id="line2d_105">
      <g>
       <use style="stroke:#000000;stroke-width:0.8;" x="580.529894" xlink:href="#m3e541a0080" y="1252.712611"/>
      </g>
     </g>
     <g id="text_67">
      <!-- 50 -->
      <g transform="translate(567.804894 1274.909486)scale(0.2 -0.2)">
       <use xlink:href="#DejaVuSans-53"/>
       <use x="63.623047" xlink:href="#DejaVuSans-48"/>
      </g>
     </g>
    </g>
    <g id="xtick_29">
     <g id="line2d_106">
      <g>
       <use style="stroke:#000000;stroke-width:0.8;" x="643.374938" xlink:href="#m3e541a0080" y="1252.712611"/>
      </g>
     </g>
     <g id="text_68">
      <!-- 75 -->
      <g transform="translate(630.649938 1274.909486)scale(0.2 -0.2)">
       <use xlink:href="#DejaVuSans-55"/>
       <use x="63.623047" xlink:href="#DejaVuSans-53"/>
      </g>
     </g>
    </g>
    <g id="xtick_30">
     <g id="line2d_107">
      <g>
       <use style="stroke:#000000;stroke-width:0.8;" x="706.219982" xlink:href="#m3e541a0080" y="1252.712611"/>
      </g>
     </g>
     <g id="text_69">
      <!-- 100 -->
      <g transform="translate(687.132482 1274.909486)scale(0.2 -0.2)">
       <use xlink:href="#DejaVuSans-49"/>
       <use x="63.623047" xlink:href="#DejaVuSans-48"/>
       <use x="127.246094" xlink:href="#DejaVuSans-48"/>
      </g>
     </g>
    </g>
   </g>
   <g id="matplotlib.axis_12">
    <g id="ytick_31">
     <g id="line2d_108">
      <g>
       <use style="stroke:#000000;stroke-width:0.8;" x="417.132779" xlink:href="#m19c6b2395e" y="1215.005584"/>
      </g>
     </g>
     <g id="text_70">
      <!-- 0 -->
      <g transform="translate(397.407779 1222.604021)scale(0.2 -0.2)">
       <use xlink:href="#DejaVuSans-48"/>
      </g>
     </g>
    </g>
    <g id="ytick_32">
     <g id="line2d_109">
      <g>
       <use style="stroke:#000000;stroke-width:0.8;" x="417.132779" xlink:href="#m19c6b2395e" y="1164.729549"/>
      </g>
     </g>
     <g id="text_71">
      <!-- 20 -->
      <g transform="translate(384.682779 1172.327986)scale(0.2 -0.2)">
       <use xlink:href="#DejaVuSans-50"/>
       <use x="63.623047" xlink:href="#DejaVuSans-48"/>
      </g>
     </g>
    </g>
    <g id="ytick_33">
     <g id="line2d_110">
      <g>
       <use style="stroke:#000000;stroke-width:0.8;" x="417.132779" xlink:href="#m19c6b2395e" y="1114.453513"/>
      </g>
     </g>
     <g id="text_72">
      <!-- 40 -->
      <g transform="translate(384.682779 1122.051951)scale(0.2 -0.2)">
       <use xlink:href="#DejaVuSans-52"/>
       <use x="63.623047" xlink:href="#DejaVuSans-48"/>
      </g>
     </g>
    </g>
    <g id="ytick_34">
     <g id="line2d_111">
      <g>
       <use style="stroke:#000000;stroke-width:0.8;" x="417.132779" xlink:href="#m19c6b2395e" y="1064.177478"/>
      </g>
     </g>
     <g id="text_73">
      <!-- 60 -->
      <g transform="translate(384.682779 1071.775915)scale(0.2 -0.2)">
       <use xlink:href="#DejaVuSans-54"/>
       <use x="63.623047" xlink:href="#DejaVuSans-48"/>
      </g>
     </g>
    </g>
    <g id="ytick_35">
     <g id="line2d_112">
      <g>
       <use style="stroke:#000000;stroke-width:0.8;" x="417.132779" xlink:href="#m19c6b2395e" y="1013.901443"/>
      </g>
     </g>
     <g id="text_74">
      <!-- 80 -->
      <g transform="translate(384.682779 1021.49988)scale(0.2 -0.2)">
       <use xlink:href="#DejaVuSans-56"/>
       <use x="63.623047" xlink:href="#DejaVuSans-48"/>
      </g>
     </g>
    </g>
    <g id="ytick_36">
     <g id="line2d_113">
      <g>
       <use style="stroke:#000000;stroke-width:0.8;" x="417.132779" xlink:href="#m19c6b2395e" y="963.625407"/>
      </g>
     </g>
     <g id="text_75">
      <!-- 100 -->
      <g transform="translate(371.957779 971.223845)scale(0.2 -0.2)">
       <use xlink:href="#DejaVuSans-49"/>
       <use x="63.623047" xlink:href="#DejaVuSans-48"/>
       <use x="127.246094" xlink:href="#DejaVuSans-48"/>
      </g>
     </g>
    </g>
   </g>
   <g id="line2d_114">
    <path clip-path="url(#p66e2930f95)" d="M 581.637721 1151.649977 
L 584.300736 1151.504774 
L 586.496546 1151.166807 
L 588.42471 1150.64179 
L 589.985487 1149.993772 
L 591.334247 1149.197586 
L 592.479666 1148.259302 
L 593.430201 1147.184834 
L 594.194093 1145.97995 
L 594.779376 1144.650277 
L 595.218913 1143.085052 
L 595.480875 1141.262067 
L 595.5378 1139.295906 
L 595.385001 1137.049617 
L 594.96556 1134.349825 
L 594.257634 1131.315139 
L 593.240353 1127.931188 
L 591.826128 1124.003471 
L 589.964433 1119.497286 
L 587.517221 1114.183651 
L 584.419592 1108.018967 
L 580.509244 1100.759498 
L 575.487647 1091.936404 
L 568.647106 1080.406206 
L 546.522877 1043.452974 
L 542.044527 1035.365356 
L 538.695218 1028.881821 
L 536.159025 1023.514533 
L 534.262559 1019.007402 
L 532.870668 1015.136085 
L 531.966175 1012.000899 
L 531.402233 1009.254161 
L 531.162862 1006.997548 
L 531.178458 1005.175057 
L 531.400358 1003.632872 
L 531.798413 1002.346758 
L 532.341386 1001.291624 
L 533.059076 1000.376685 
L 533.959271 999.608182 
L 535.049961 998.992515 
L 536.33934 998.536256 
L 537.835819 998.246146 
L 539.688922 998.127474 
L 541.803291 998.218404 
L 543.133174 998.367976 
L 543.133174 998.367976 
" style="fill:none;stroke:#00bfbf;stroke-linecap:square;stroke-width:2;"/>
   </g>
   <g id="line2d_115">
    <path clip-path="url(#p66e2930f95)" d="M 563.186303 1169.060564 
L 565.782726 1168.801288 
L 568.336027 1168.32143 
L 570.842957 1167.624418 
L 573.373726 1166.685598 
L 575.915999 1165.497456 
L 578.45983 1164.057276 
L 581.060182 1162.322376 
L 583.705058 1160.286842 
L 586.502037 1157.846769 
L 589.49907 1154.930335 
L 592.976264 1151.221447 
L 597.769028 1145.748589 
L 607.780105 1134.265103 
L 613.577642 1128.014438 
L 619.897647 1121.538716 
L 627.161309 1114.421754 
L 635.910884 1106.168132 
L 639.135294 1103.190906 
L 639.135294 1103.190906 
" style="fill:none;stroke:#008000;stroke-linecap:square;stroke-width:2;"/>
   </g>
   <g id="line2d_116">
    <path clip-path="url(#p66e2930f95)" d="M 622.105078 1139.2928 
L 620.146297 1136.642972 
L 617.080791 1132.133015 
L 613.655404 1126.69114 
L 610.157133 1120.698476 
L 606.826315 1114.545109 
L 603.635502 1108.176061 
L 600.667976 1101.75079 
L 597.974144 1095.396286 
L 595.434981 1088.820253 
L 593.224136 1082.475852 
L 591.2179 1076.023558 
L 589.546121 1069.911782 
L 588.095314 1063.77096 
L 586.880611 1057.630461 
L 585.970717 1051.924157 
L 585.284879 1046.263719 
L 584.828786 1040.669329 
L 584.606188 1035.160001 
L 584.618983 1029.753587 
L 584.867312 1024.466792 
L 585.307491 1019.678354 
L 585.947012 1015.018074 
L 586.782322 1010.496705 
L 587.808823 1006.124173 
L 589.020929 1001.909584 
L 590.412138 997.861229 
L 591.975086 993.986591 
L 593.701616 990.292355 
L 595.582838 986.784409 
L 597.609191 983.467857 
L 599.77051 980.347018 
L 602.056084 977.425442 
L 604.454722 974.705908 
L 606.954815 972.190437 
L 609.544397 969.880294 
L 612.419195 967.622654 
L 615.367957 965.603424 
L 618.374864 963.821306 
L 621.423967 962.274024 
L 624.499282 960.958337 
L 627.584883 959.870044 
L 630.884371 958.950488 
L 634.158449 958.278523 
L 637.388454 957.845403 
L 640.556294 957.641171 
L 643.644576 957.654674 
L 646.832403 957.895152 
L 649.891972 958.352886 
L 652.805796 959.009949 
L 655.557981 959.846944 
L 658.289303 960.91005 
L 660.807702 962.125932 
L 663.22909 963.548049 
L 665.388183 965.073249 
L 667.375728 966.752638 
L 669.142267 968.545886 
L 670.642713 970.393552 
L 671.840816 972.213325 
L 672.774178 974.028157 
L 673.391577 975.708932 
L 673.540463 976.319018 
L 673.540463 976.319018 
" style="fill:none;stroke:#0000ff;stroke-linecap:square;stroke-width:2;"/>
   </g>
   <g id="line2d_117">
    <g clip-path="url(#p66e2930f95)">
     <use style="fill:#ff0000;stroke:#ff0000;stroke-linejoin:bevel;" x="676.110424" xlink:href="#m10680259ca" y="1077.479636"/>
    </g>
   </g>
   <g id="line2d_118">
    <g clip-path="url(#p66e2930f95)">
     <use style="fill:#00bfbf;stroke:#00bfbf;stroke-linejoin:miter;" x="555.569457" xlink:href="#m4c1d286532" y="1058.826067"/>
    </g>
   </g>
   <g id="line2d_119">
    <g clip-path="url(#p66e2930f95)">
     <use style="fill:#008000;stroke:#008000;stroke-linejoin:miter;" x="586.222825" xlink:href="#ma4968ad1bb" y="1158.103109"/>
    </g>
   </g>
   <g id="line2d_120">
    <g clip-path="url(#p66e2930f95)">
     <use style="fill:#0000ff;stroke:#0000ff;stroke-linejoin:miter;" x="617.344059" xlink:href="#ma918f8893a" y="1109.253068"/>
    </g>
   </g>
   <g id="line2d_121">
    <path clip-path="url(#p66e2930f95)" d="M 697.42176 1095.23832 
L 577.594767 1133.187223 
L 577.594767 1133.187223 
" style="fill:none;stroke:#00bfbf;stroke-dasharray:7.4,3.2;stroke-dashoffset:0;stroke-width:2;"/>
   </g>
   <g id="line2d_122">
    <path clip-path="url(#p66e2930f95)" d="M 556.146017 1152.16054 
L 557.258728 1153.201447 
L 557.927229 1154.116706 
L 558.261806 1154.932478 
L 558.34978 1155.70442 
L 558.216163 1156.512281 
L 557.840447 1157.39256 
L 557.122814 1158.479863 
L 555.653257 1160.233206 
L 553.595031 1162.74212 
L 552.679468 1164.207999 
L 552.131967 1165.488237 
L 551.869582 1166.661166 
L 551.855914 1167.710401 
L 552.060653 1168.676174 
L 552.463732 1169.535688 
L 553.055636 1170.285795 
L 553.813908 1170.894454 
L 554.707206 1171.331183 
L 555.69762 1171.57027 
L 556.744296 1171.594946 
L 557.833601 1171.395643 
L 558.980557 1170.955961 
L 560.50721 1170.103351 
L 562.053402 1169.304922 
L 562.982918 1169.077859 
L 563.489904 1169.055888 
L 563.489904 1169.055888 
" style="fill:none;stroke:#008000;stroke-dasharray:7.4,3.2;stroke-dashoffset:0;stroke-width:2;"/>
   </g>
   <g id="line2d_123">
    <path clip-path="url(#p66e2930f95)" d="M 673.540463 976.319018 
L 673.645874 977.452078 
L 673.548819 978.976987 
L 673.169558 981.090848 
L 672.386923 984.061905 
L 670.945792 988.555706 
L 667.636647 997.949615 
L 663.680395 1009.407709 
L 660.94795 1017.996512 
L 658.58417 1026.161963 
L 656.563378 1033.935355 
L 654.791123 1041.637371 
L 653.288643 1049.146798 
L 651.994073 1056.763955 
L 650.937537 1064.303272 
L 650.051447 1072.237971 
L 649.074087 1083.305356 
L 648.442942 1089.224262 
L 647.927757 1092.106629 
L 647.37304 1094.046714 
L 646.742937 1095.486483 
L 646.025929 1096.597287 
L 645.148978 1097.53886 
L 644.087948 1098.340455 
L 642.752602 1099.06729 
L 640.841901 1099.838559 
L 637.416973 1100.936859 
L 631.125537 1102.959323 
L 626.962727 1104.551215 
L 623.105503 1106.260077 
L 619.216857 1108.221866 
L 615.171506 1110.519519 
L 615.171506 1110.519519 
" style="fill:none;stroke:#0000ff;stroke-dasharray:7.4,3.2;stroke-dashoffset:0;stroke-width:2;"/>
   </g>
   <g id="patch_29">
    <path d="M 417.132779 1252.712611 
L 417.132779 938.487389 
" style="fill:none;stroke:#000000;stroke-linecap:square;stroke-linejoin:miter;stroke-width:0.8;"/>
   </g>
   <g id="patch_30">
    <path d="M 731.358 1252.712611 
L 731.358 938.487389 
" style="fill:none;stroke:#000000;stroke-linecap:square;stroke-linejoin:miter;stroke-width:0.8;"/>
   </g>
   <g id="patch_31">
    <path d="M 417.132779 1252.712611 
L 731.358 1252.712611 
" style="fill:none;stroke:#000000;stroke-linecap:square;stroke-linejoin:miter;stroke-width:0.8;"/>
   </g>
   <g id="patch_32">
    <path d="M 417.132779 938.487389 
L 731.358 938.487389 
" style="fill:none;stroke:#000000;stroke-linecap:square;stroke-linejoin:miter;stroke-width:0.8;"/>
   </g>
   <g id="text_76">
    <!-- t = 60 -->
    <g transform="translate(536.587889 932.487389)scale(0.24 -0.24)">
     <use xlink:href="#DejaVuSans-116"/>
     <use x="39.208984" xlink:href="#DejaVuSans-32"/>
     <use x="70.996094" xlink:href="#DejaVuSans-61"/>
     <use x="154.785156" xlink:href="#DejaVuSans-32"/>
     <use x="186.572266" xlink:href="#DejaVuSans-54"/>
     <use x="250.195312" xlink:href="#DejaVuSans-48"/>
    </g>
   </g>
  </g>
 </g>
 <defs>
  <clipPath id="p400b09ed5b">
   <rect height="314.225221" width="314.225221" x="56.088" y="62.007389"/>
  </clipPath>
  <clipPath id="p674cedacfa">
   <rect height="314.225221" width="314.225221" x="417.132779" y="62.007389"/>
  </clipPath>
  <clipPath id="p487ba69b36">
   <rect height="314.225221" width="314.225221" x="56.088" y="500.247389"/>
  </clipPath>
  <clipPath id="p8ca94e2f6f">
   <rect height="314.225221" width="314.225221" x="417.132779" y="500.247389"/>
  </clipPath>
  <clipPath id="pb49de5d488">
   <rect height="314.225221" width="314.225221" x="56.088" y="938.487389"/>
  </clipPath>
  <clipPath id="p66e2930f95">
   <rect height="314.225221" width="314.225221" x="417.132779" y="938.487389"/>
  </clipPath>
 </defs>
</svg>
