<?xml version="1.0" encoding="utf-8" standalone="no"?>
<!DOCTYPE svg PUBLIC "-//W3C//DTD SVG 1.1//EN"
  "http://www.w3.org/Graphics/SVG/1.1/DTD/svg11.dtd">
<!-- Created with matplotlib (https://matplotlib.org/) -->
<svg height="709.92pt" version="1.1" viewBox="0 0 1342.8 709.92" width="1342.8pt" xmlns="http://www.w3.org/2000/svg" xmlns:xlink="http://www.w3.org/1999/xlink">
 <defs>
  <style type="text/css">
*{stroke-linecap:butt;stroke-linejoin:round;}
  </style>
 </defs>
 <g id="figure_1">
  <g id="patch_1">
   <path d="M 0 709.92 
L 1342.8 709.92 
L 1342.8 0 
L 0 0 
z
" style="fill:#ffffff;"/>
  </g>
  <g id="axes_1">
   <g id="patch_2">
    <path d="M 363.98 661.16 
L 978.82 661.16 
L 978.82 46.32 
L 363.98 46.32 
z
" style="fill:#ffffff;"/>
   </g>
   <g id="patch_3">
    <path clip-path="url(#p8de45bd4e8)" d="M 671.4 624.992941 
C 743.337121 624.992941 812.337568 596.41202 863.204794 545.544794 
C 914.07202 494.677568 942.652941 425.677121 942.652941 353.74 
C 942.652941 281.802879 914.07202 212.802432 863.204794 161.935206 
C 812.337568 111.06798 743.337121 82.487059 671.4 82.487059 
C 599.462879 82.487059 530.462432 111.06798 479.595206 161.935206 
C 428.72798 212.802432 400.147059 281.802879 400.147059 353.74 
C 400.147059 425.677121 428.72798 494.677568 479.595206 545.544794 
C 530.462432 596.41202 599.462879 624.992941 671.4 624.992941 
z
" style="fill:none;stroke:#ff0000;stroke-dasharray:1,1.65;stroke-dashoffset:0;stroke-linejoin:miter;"/>
   </g>
   <g id="patch_4">
    <path clip-path="url(#p8de45bd4e8)" d="M 671.4 444.157647 
C 695.37904 444.157647 718.379189 434.630673 735.334931 417.674931 
C 752.290673 400.719189 761.817647 377.71904 761.817647 353.74 
C 761.817647 329.76096 752.290673 306.760811 735.334931 289.805069 
C 718.379189 272.849327 695.37904 263.322353 671.4 263.322353 
C 647.42096 263.322353 624.420811 272.849327 607.465069 289.805069 
C 590.509327 306.760811 580.982353 329.76096 580.982353 353.74 
C 580.982353 377.71904 590.509327 400.719189 607.465069 417.674931 
C 624.420811 434.630673 647.42096 444.157647 671.4 444.157647 
z
" style="fill:none;stroke:#ff0000;stroke-dasharray:1,1.65;stroke-dashoffset:0;stroke-linejoin:miter;"/>
   </g>
   <g id="matplotlib.axis_1">
    <g id="xtick_1">
     <g id="line2d_1">
      <defs>
       <path d="M 0 0 
L 0 3.5 
" id="m1a0fc4b686" style="stroke:#000000;stroke-width:0.8;"/>
      </defs>
      <g>
       <use style="stroke:#000000;stroke-width:0.8;" x="363.98" xlink:href="#m1a0fc4b686" y="661.16"/>
      </g>
     </g>
     <g id="text_1">
      <!-- −60 -->
      <defs>
       <path d="M 10.59375 35.5 
L 73.1875 35.5 
L 73.1875 27.203125 
L 10.59375 27.203125 
z
" id="DejaVuSans-8722"/>
       <path d="M 33.015625 40.375 
Q 26.375 40.375 22.484375 35.828125 
Q 18.609375 31.296875 18.609375 23.390625 
Q 18.609375 15.53125 22.484375 10.953125 
Q 26.375 6.390625 33.015625 6.390625 
Q 39.65625 6.390625 43.53125 10.953125 
Q 47.40625 15.53125 47.40625 23.390625 
Q 47.40625 31.296875 43.53125 35.828125 
Q 39.65625 40.375 33.015625 40.375 
z
M 52.59375 71.296875 
L 52.59375 62.3125 
Q 48.875 64.0625 45.09375 64.984375 
Q 41.3125 65.921875 37.59375 65.921875 
Q 27.828125 65.921875 22.671875 59.328125 
Q 17.53125 52.734375 16.796875 39.40625 
Q 19.671875 43.65625 24.015625 45.921875 
Q 28.375 48.1875 33.59375 48.1875 
Q 44.578125 48.1875 50.953125 41.515625 
Q 57.328125 34.859375 57.328125 23.390625 
Q 57.328125 12.15625 50.6875 5.359375 
Q 44.046875 -1.421875 33.015625 -1.421875 
Q 20.359375 -1.421875 13.671875 8.265625 
Q 6.984375 17.96875 6.984375 36.375 
Q 6.984375 53.65625 15.1875 63.9375 
Q 23.390625 74.21875 37.203125 74.21875 
Q 40.921875 74.21875 44.703125 73.484375 
Q 48.484375 72.75 52.59375 71.296875 
z
" id="DejaVuSans-54"/>
       <path d="M 31.78125 66.40625 
Q 24.171875 66.40625 20.328125 58.90625 
Q 16.5 51.421875 16.5 36.375 
Q 16.5 21.390625 20.328125 13.890625 
Q 24.171875 6.390625 31.78125 6.390625 
Q 39.453125 6.390625 43.28125 13.890625 
Q 47.125 21.390625 47.125 36.375 
Q 47.125 51.421875 43.28125 58.90625 
Q 39.453125 66.40625 31.78125 66.40625 
z
M 31.78125 74.21875 
Q 44.046875 74.21875 50.515625 64.515625 
Q 56.984375 54.828125 56.984375 36.375 
Q 56.984375 17.96875 50.515625 8.265625 
Q 44.046875 -1.421875 31.78125 -1.421875 
Q 19.53125 -1.421875 13.0625 8.265625 
Q 6.59375 17.96875 6.59375 36.375 
Q 6.59375 54.828125 13.0625 64.515625 
Q 19.53125 74.21875 31.78125 74.21875 
z
" id="DejaVuSans-48"/>
      </defs>
      <g transform="translate(342.875312 683.356875)scale(0.2 -0.2)">
       <use xlink:href="#DejaVuSans-8722"/>
       <use x="83.789062" xlink:href="#DejaVuSans-54"/>
       <use x="147.412109" xlink:href="#DejaVuSans-48"/>
      </g>
     </g>
    </g>
    <g id="xtick_2">
     <g id="line2d_2">
      <g>
       <use style="stroke:#000000;stroke-width:0.8;" x="436.314118" xlink:href="#m1a0fc4b686" y="661.16"/>
      </g>
     </g>
     <g id="text_2">
      <!-- −40 -->
      <defs>
       <path d="M 37.796875 64.3125 
L 12.890625 25.390625 
L 37.796875 25.390625 
z
M 35.203125 72.90625 
L 47.609375 72.90625 
L 47.609375 25.390625 
L 58.015625 25.390625 
L 58.015625 17.1875 
L 47.609375 17.1875 
L 47.609375 0 
L 37.796875 0 
L 37.796875 17.1875 
L 4.890625 17.1875 
L 4.890625 26.703125 
z
" id="DejaVuSans-52"/>
      </defs>
      <g transform="translate(415.20943 683.356875)scale(0.2 -0.2)">
       <use xlink:href="#DejaVuSans-8722"/>
       <use x="83.789062" xlink:href="#DejaVuSans-52"/>
       <use x="147.412109" xlink:href="#DejaVuSans-48"/>
      </g>
     </g>
    </g>
    <g id="xtick_3">
     <g id="line2d_3">
      <g>
       <use style="stroke:#000000;stroke-width:0.8;" x="508.648235" xlink:href="#m1a0fc4b686" y="661.16"/>
      </g>
     </g>
     <g id="text_3">
      <!-- −20 -->
      <defs>
       <path d="M 19.1875 8.296875 
L 53.609375 8.296875 
L 53.609375 0 
L 7.328125 0 
L 7.328125 8.296875 
Q 12.9375 14.109375 22.625 23.890625 
Q 32.328125 33.6875 34.8125 36.53125 
Q 39.546875 41.84375 41.421875 45.53125 
Q 43.3125 49.21875 43.3125 52.78125 
Q 43.3125 58.59375 39.234375 62.25 
Q 35.15625 65.921875 28.609375 65.921875 
Q 23.96875 65.921875 18.8125 64.3125 
Q 13.671875 62.703125 7.8125 59.421875 
L 7.8125 69.390625 
Q 13.765625 71.78125 18.9375 73 
Q 24.125 74.21875 28.421875 74.21875 
Q 39.75 74.21875 46.484375 68.546875 
Q 53.21875 62.890625 53.21875 53.421875 
Q 53.21875 48.921875 51.53125 44.890625 
Q 49.859375 40.875 45.40625 35.40625 
Q 44.1875 33.984375 37.640625 27.21875 
Q 31.109375 20.453125 19.1875 8.296875 
z
" id="DejaVuSans-50"/>
      </defs>
      <g transform="translate(487.543548 683.356875)scale(0.2 -0.2)">
       <use xlink:href="#DejaVuSans-8722"/>
       <use x="83.789062" xlink:href="#DejaVuSans-50"/>
       <use x="147.412109" xlink:href="#DejaVuSans-48"/>
      </g>
     </g>
    </g>
    <g id="xtick_4">
     <g id="line2d_4">
      <g>
       <use style="stroke:#000000;stroke-width:0.8;" x="580.982353" xlink:href="#m1a0fc4b686" y="661.16"/>
      </g>
     </g>
     <g id="text_4">
      <!-- 0 -->
      <g transform="translate(574.619853 683.356875)scale(0.2 -0.2)">
       <use xlink:href="#DejaVuSans-48"/>
      </g>
     </g>
    </g>
    <g id="xtick_5">
     <g id="line2d_5">
      <g>
       <use style="stroke:#000000;stroke-width:0.8;" x="653.316471" xlink:href="#m1a0fc4b686" y="661.16"/>
      </g>
     </g>
     <g id="text_5">
      <!-- 20 -->
      <g transform="translate(640.591471 683.356875)scale(0.2 -0.2)">
       <use xlink:href="#DejaVuSans-50"/>
       <use x="63.623047" xlink:href="#DejaVuSans-48"/>
      </g>
     </g>
    </g>
    <g id="xtick_6">
     <g id="line2d_6">
      <g>
       <use style="stroke:#000000;stroke-width:0.8;" x="725.650588" xlink:href="#m1a0fc4b686" y="661.16"/>
      </g>
     </g>
     <g id="text_6">
      <!-- 40 -->
      <g transform="translate(712.925588 683.356875)scale(0.2 -0.2)">
       <use xlink:href="#DejaVuSans-52"/>
       <use x="63.623047" xlink:href="#DejaVuSans-48"/>
      </g>
     </g>
    </g>
    <g id="xtick_7">
     <g id="line2d_7">
      <g>
       <use style="stroke:#000000;stroke-width:0.8;" x="797.984706" xlink:href="#m1a0fc4b686" y="661.16"/>
      </g>
     </g>
     <g id="text_7">
      <!-- 60 -->
      <g transform="translate(785.259706 683.356875)scale(0.2 -0.2)">
       <use xlink:href="#DejaVuSans-54"/>
       <use x="63.623047" xlink:href="#DejaVuSans-48"/>
      </g>
     </g>
    </g>
    <g id="xtick_8">
     <g id="line2d_8">
      <g>
       <use style="stroke:#000000;stroke-width:0.8;" x="870.318824" xlink:href="#m1a0fc4b686" y="661.16"/>
      </g>
     </g>
     <g id="text_8">
      <!-- 80 -->
      <defs>
       <path d="M 31.78125 34.625 
Q 24.75 34.625 20.71875 30.859375 
Q 16.703125 27.09375 16.703125 20.515625 
Q 16.703125 13.921875 20.71875 10.15625 
Q 24.75 6.390625 31.78125 6.390625 
Q 38.8125 6.390625 42.859375 10.171875 
Q 46.921875 13.96875 46.921875 20.515625 
Q 46.921875 27.09375 42.890625 30.859375 
Q 38.875 34.625 31.78125 34.625 
z
M 21.921875 38.8125 
Q 15.578125 40.375 12.03125 44.71875 
Q 8.5 49.078125 8.5 55.328125 
Q 8.5 64.0625 14.71875 69.140625 
Q 20.953125 74.21875 31.78125 74.21875 
Q 42.671875 74.21875 48.875 69.140625 
Q 55.078125 64.0625 55.078125 55.328125 
Q 55.078125 49.078125 51.53125 44.71875 
Q 48 40.375 41.703125 38.8125 
Q 48.828125 37.15625 52.796875 32.3125 
Q 56.78125 27.484375 56.78125 20.515625 
Q 56.78125 9.90625 50.3125 4.234375 
Q 43.84375 -1.421875 31.78125 -1.421875 
Q 19.734375 -1.421875 13.25 4.234375 
Q 6.78125 9.90625 6.78125 20.515625 
Q 6.78125 27.484375 10.78125 32.3125 
Q 14.796875 37.15625 21.921875 38.8125 
z
M 18.3125 54.390625 
Q 18.3125 48.734375 21.84375 45.5625 
Q 25.390625 42.390625 31.78125 42.390625 
Q 38.140625 42.390625 41.71875 45.5625 
Q 45.3125 48.734375 45.3125 54.390625 
Q 45.3125 60.0625 41.71875 63.234375 
Q 38.140625 66.40625 31.78125 66.40625 
Q 25.390625 66.40625 21.84375 63.234375 
Q 18.3125 60.0625 18.3125 54.390625 
z
" id="DejaVuSans-56"/>
      </defs>
      <g transform="translate(857.593824 683.356875)scale(0.2 -0.2)">
       <use xlink:href="#DejaVuSans-56"/>
       <use x="63.623047" xlink:href="#DejaVuSans-48"/>
      </g>
     </g>
    </g>
    <g id="xtick_9">
     <g id="line2d_9">
      <g>
       <use style="stroke:#000000;stroke-width:0.8;" x="942.652941" xlink:href="#m1a0fc4b686" y="661.16"/>
      </g>
     </g>
     <g id="text_9">
      <!-- 100 -->
      <defs>
       <path d="M 12.40625 8.296875 
L 28.515625 8.296875 
L 28.515625 63.921875 
L 10.984375 60.40625 
L 10.984375 69.390625 
L 28.421875 72.90625 
L 38.28125 72.90625 
L 38.28125 8.296875 
L 54.390625 8.296875 
L 54.390625 0 
L 12.40625 0 
z
" id="DejaVuSans-49"/>
      </defs>
      <g transform="translate(923.565441 683.356875)scale(0.2 -0.2)">
       <use xlink:href="#DejaVuSans-49"/>
       <use x="63.623047" xlink:href="#DejaVuSans-48"/>
       <use x="127.246094" xlink:href="#DejaVuSans-48"/>
      </g>
     </g>
    </g>
   </g>
   <g id="matplotlib.axis_2">
    <g id="ytick_1">
     <g id="line2d_10">
      <defs>
       <path d="M 0 0 
L -3.5 0 
" id="m249a72d8d7" style="stroke:#000000;stroke-width:0.8;"/>
      </defs>
      <g>
       <use style="stroke:#000000;stroke-width:0.8;" x="363.98" xlink:href="#m249a72d8d7" y="661.16"/>
      </g>
     </g>
     <g id="text_10">
      <!-- −60 -->
      <g transform="translate(314.770625 668.758438)scale(0.2 -0.2)">
       <use xlink:href="#DejaVuSans-8722"/>
       <use x="83.789062" xlink:href="#DejaVuSans-54"/>
       <use x="147.412109" xlink:href="#DejaVuSans-48"/>
      </g>
     </g>
    </g>
    <g id="ytick_2">
     <g id="line2d_11">
      <g>
       <use style="stroke:#000000;stroke-width:0.8;" x="363.98" xlink:href="#m249a72d8d7" y="588.825882"/>
      </g>
     </g>
     <g id="text_11">
      <!-- −40 -->
      <g transform="translate(314.770625 596.42432)scale(0.2 -0.2)">
       <use xlink:href="#DejaVuSans-8722"/>
       <use x="83.789062" xlink:href="#DejaVuSans-52"/>
       <use x="147.412109" xlink:href="#DejaVuSans-48"/>
      </g>
     </g>
    </g>
    <g id="ytick_3">
     <g id="line2d_12">
      <g>
       <use style="stroke:#000000;stroke-width:0.8;" x="363.98" xlink:href="#m249a72d8d7" y="516.491765"/>
      </g>
     </g>
     <g id="text_12">
      <!-- −20 -->
      <g transform="translate(314.770625 524.090202)scale(0.2 -0.2)">
       <use xlink:href="#DejaVuSans-8722"/>
       <use x="83.789062" xlink:href="#DejaVuSans-50"/>
       <use x="147.412109" xlink:href="#DejaVuSans-48"/>
      </g>
     </g>
    </g>
    <g id="ytick_4">
     <g id="line2d_13">
      <g>
       <use style="stroke:#000000;stroke-width:0.8;" x="363.98" xlink:href="#m249a72d8d7" y="444.157647"/>
      </g>
     </g>
     <g id="text_13">
      <!-- 0 -->
      <g transform="translate(344.255 451.756085)scale(0.2 -0.2)">
       <use xlink:href="#DejaVuSans-48"/>
      </g>
     </g>
    </g>
    <g id="ytick_5">
     <g id="line2d_14">
      <g>
       <use style="stroke:#000000;stroke-width:0.8;" x="363.98" xlink:href="#m249a72d8d7" y="371.823529"/>
      </g>
     </g>
     <g id="text_14">
      <!-- 20 -->
      <g transform="translate(331.53 379.421967)scale(0.2 -0.2)">
       <use xlink:href="#DejaVuSans-50"/>
       <use x="63.623047" xlink:href="#DejaVuSans-48"/>
      </g>
     </g>
    </g>
    <g id="ytick_6">
     <g id="line2d_15">
      <g>
       <use style="stroke:#000000;stroke-width:0.8;" x="363.98" xlink:href="#m249a72d8d7" y="299.489412"/>
      </g>
     </g>
     <g id="text_15">
      <!-- 40 -->
      <g transform="translate(331.53 307.087849)scale(0.2 -0.2)">
       <use xlink:href="#DejaVuSans-52"/>
       <use x="63.623047" xlink:href="#DejaVuSans-48"/>
      </g>
     </g>
    </g>
    <g id="ytick_7">
     <g id="line2d_16">
      <g>
       <use style="stroke:#000000;stroke-width:0.8;" x="363.98" xlink:href="#m249a72d8d7" y="227.155294"/>
      </g>
     </g>
     <g id="text_16">
      <!-- 60 -->
      <g transform="translate(331.53 234.753732)scale(0.2 -0.2)">
       <use xlink:href="#DejaVuSans-54"/>
       <use x="63.623047" xlink:href="#DejaVuSans-48"/>
      </g>
     </g>
    </g>
    <g id="ytick_8">
     <g id="line2d_17">
      <g>
       <use style="stroke:#000000;stroke-width:0.8;" x="363.98" xlink:href="#m249a72d8d7" y="154.821176"/>
      </g>
     </g>
     <g id="text_17">
      <!-- 80 -->
      <g transform="translate(331.53 162.419614)scale(0.2 -0.2)">
       <use xlink:href="#DejaVuSans-56"/>
       <use x="63.623047" xlink:href="#DejaVuSans-48"/>
      </g>
     </g>
    </g>
    <g id="ytick_9">
     <g id="line2d_18">
      <g>
       <use style="stroke:#000000;stroke-width:0.8;" x="363.98" xlink:href="#m249a72d8d7" y="82.487059"/>
      </g>
     </g>
     <g id="text_18">
      <!-- 100 -->
      <g transform="translate(318.805 90.085496)scale(0.2 -0.2)">
       <use xlink:href="#DejaVuSans-49"/>
       <use x="63.623047" xlink:href="#DejaVuSans-48"/>
       <use x="127.246094" xlink:href="#DejaVuSans-48"/>
      </g>
     </g>
    </g>
   </g>
   <g id="line2d_19">
    <path clip-path="url(#p8de45bd4e8)" d="M 580.982353 444.157647 
L 584.486271 444.052963 
L 588.888329 443.70605 
L 594.772788 443.004321 
L 601.861017 441.92264 
L 610.22852 440.4217 
L 620.55944 438.335611 
L 632.338525 435.731055 
L 646.264597 432.421218 
L 662.386028 428.349401 
L 679.89801 423.691608 
L 698.634048 418.478916 
L 718.393911 412.750672 
L 738.159604 406.794866 
L 757.714671 400.678355 
L 776.870452 394.457734 
L 794.733299 388.431936 
L 811.955839 382.388288 
L 827.764542 376.605766 
L 842.177963 371.101851 
L 855.240596 365.885869 
L 867.586254 360.716405 
L 878.651489 355.843114 
L 888.521048 351.263259 
L 897.75417 346.735253 
L 905.90895 342.495772 
L 913.485674 338.307047 
L 920.111858 334.399164 
L 926.226865 330.539502 
L 931.835812 326.729637 
L 936.658542 323.191026 
L 941.045672 319.700038 
L 945.004835 316.258967 
L 948.335301 313.080794 
L 951.304314 309.951773 
L 953.919524 306.875267 
L 956.18876 303.85526 
L 958.00152 301.091676 
L 959.52612 298.385779 
L 960.768771 295.742604 
L 961.735452 293.167867 
L 962.431819 290.66802 
L 962.863118 288.250296 
L 963.030423 286.085842 
L 962.976619 284.006292 
L 962.704553 282.019483 
L 962.216511 280.133983 
L 961.514157 278.35912 
L 960.67647 276.82773 
L 959.657225 275.40783 
L 958.456045 274.108646 
L 957.071932 272.940055 
L 955.503222 271.912612 
L 953.747545 271.037571 
L 951.801783 270.326908 
L 949.66203 269.793349 
L 947.323548 269.450385 
L 944.78073 269.312306 
L 942.027055 269.394215 
L 939.055049 269.712058 
L 935.856242 270.282645 
L 932.421129 271.123673 
L 929.994592 271.843754 
L 929.994592 271.843754 
" style="fill:none;stroke:#00bfbf;stroke-linecap:square;stroke-width:2;"/>
   </g>
   <g id="line2d_20">
    <path clip-path="url(#p8de45bd4e8)" d="M 580.982353 353.74 
L 584.86339 353.615326 
L 588.699605 353.248719 
L 592.49852 352.651192 
L 596.267304 351.833604 
L 600.012789 350.806664 
L 604.154993 349.432915 
L 608.284858 347.827987 
L 612.822893 345.812279 
L 617.365423 343.552127 
L 622.336765 340.82883 
L 627.753346 337.600933 
L 633.636654 333.833518 
L 640.441554 329.201339 
L 648.658726 323.314384 
L 659.286789 315.397838 
L 696.600932 287.345767 
L 707.159942 279.804599 
L 716.939471 273.086201 
L 726.392929 266.86474 
L 735.47878 261.157212 
L 744.158588 255.966297 
L 752.397865 251.283514 
L 760.724072 246.799595 
L 769.124455 242.533697 
L 777.019452 238.764523 
L 784.954709 235.213918 
L 792.917193 231.893977 
L 800.893103 228.815657 
L 808.867914 225.988771 
L 816.258831 223.596526 
L 823.623027 221.434589 
L 830.947389 219.508122 
L 838.218391 217.821413 
L 845.422121 216.377867 
L 852.544314 215.179998 
L 859.570378 214.22943 
L 866.48543 213.526883 
L 873.274319 213.072175 
L 879.92166 212.864208 
L 885.918556 212.889513 
L 891.769168 213.12107 
L 897.460994 213.555923 
L 902.981447 214.190435 
L 908.317871 215.020287 
L 913.457564 216.040476 
L 918.387798 217.245305 
L 923.095837 218.628384 
L 927.56896 220.182626 
L 931.794478 221.90024 
L 935.439562 223.610992 
L 938.856294 225.44482 
L 942.035059 227.394152 
L 944.966322 229.450908 
L 947.640638 231.606498 
L 950.048666 233.851822 
L 951.998942 235.962813 
L 953.714683 238.13243 
L 955.189149 240.352723 
L 956.415703 242.615386 
L 957.387823 244.911757 
L 958.039894 246.999861 
L 958.476109 249.101136 
L 958.691976 251.208518 
L 958.683103 253.314703 
L 958.445193 255.412146 
L 957.974054 257.493063 
L 957.265602 259.549428 
L 956.315866 261.572974 
L 955.120995 263.555187 
L 953.677258 265.487312 
L 951.981053 267.360348 
L 950.028909 269.165045 
L 947.817493 270.89191 
L 945.343614 272.5312 
L 942.604226 274.072921 
L 939.596436 275.506832 
L 936.317505 276.822439 
L 932.764858 278.008998 
L 931.937963 278.254051 
L 931.937963 278.254051 
" style="fill:none;stroke:#008000;stroke-linecap:square;stroke-width:2;"/>
   </g>
   <g id="line2d_21">
    <path clip-path="url(#p8de45bd4e8)" d="M 580.982353 263.322353 
L 586.294833 263.220864 
L 591.899538 262.88893 
L 597.286073 262.348419 
L 602.950337 261.547191 
L 608.430613 260.552738 
L 614.201372 259.289367 
L 620.698678 257.634571 
L 628.346775 255.438207 
L 638.860618 252.154991 
L 656.315502 246.690072 
L 664.658651 244.322905 
L 672.321217 242.382651 
L 679.260659 240.852502 
L 685.901855 239.608478 
L 692.710569 238.567833 
L 699.18786 237.804092 
L 705.816694 237.253363 
L 712.070367 236.948143 
L 718.452121 236.850149 
L 724.959338 236.970344 
L 731.588115 237.318785 
L 738.333321 237.904618 
L 745.188659 238.73607 
L 752.146727 239.820443 
L 759.199072 241.164103 
L 765.738493 242.62822 
L 772.341251 244.318262 
L 778.998765 246.237038 
L 785.70188 248.386675 
L 792.440897 250.768619 
L 799.205614 253.383628 
L 805.985365 256.231769 
L 812.769061 259.312409 
L 819.545221 262.624215 
L 826.302018 266.165149 
L 833.027313 269.932459 
L 839.708696 273.922681 
L 846.333522 278.131627 
L 852.888951 282.554386 
L 859.361986 287.185317 
L 865.739512 292.018046 
L 872.008333 297.045458 
L 878.155211 302.259697 
L 884.166905 307.652155 
L 890.03021 313.213475 
L 895.731992 318.93354 
L 901.259232 324.801473 
L 906.599058 330.805628 
L 911.738789 336.933588 
L 916.66597 343.172161 
L 921.368412 349.507373 
L 925.83423 355.924466 
L 930.05188 362.407891 
L 933.661354 368.345736 
L 937.048414 374.312051 
L 940.205282 380.293434 
L 943.124514 386.275931 
L 945.799027 392.245037 
L 948.222115 398.185684 
L 950.387481 404.082247 
L 952.289256 409.918538 
L 953.922023 415.677801 
L 955.280845 421.342712 
L 956.265881 426.345681 
L 957.022548 431.244291 
L 957.54833 436.02472 
L 957.841085 440.672763 
L 957.899059 445.173834 
L 957.720896 449.512962 
L 957.363521 453.221608 
L 956.818445 456.77913 
L 956.085565 460.174244 
L 955.165064 463.39542 
L 954.057416 466.430885 
L 952.763394 469.268622 
L 951.47908 471.579805 
L 950.053814 473.721843 
L 948.488706 475.686216 
L 946.785056 477.464263 
L 944.944362 479.047171 
L 942.968322 480.425983 
L 940.858837 481.591595 
L 938.946091 482.41399 
L 936.938306 483.067038 
L 934.83705 483.544744 
L 932.644011 483.841035 
L 930.361 483.949754 
L 927.989945 483.864664 
L 925.532902 483.579448 
L 922.99205 483.087705 
L 920.369698 482.382955 
L 917.210538 481.282769 
L 913.947867 479.873155 
L 912.03867 478.924618 
L 912.03867 478.924618 
" style="fill:none;stroke:#0000ff;stroke-linecap:square;stroke-width:2;"/>
   </g>
   <g id="line2d_22">
    <defs>
     <path d="M 0 -5 
L -1.12257 -1.545085 
L -4.755283 -1.545085 
L -1.816356 0.59017 
L -2.938926 4.045085 
L -0 1.90983 
L 2.938926 4.045085 
L 1.816356 0.59017 
L 4.755283 -1.545085 
L 1.12257 -1.545085 
z
" id="m77a4086b29" style="stroke:#ff0000;stroke-linejoin:bevel;"/>
    </defs>
    <g clip-path="url(#p8de45bd4e8)">
     <use style="fill:#ff0000;stroke:#ff0000;stroke-linejoin:bevel;" x="671.4" xlink:href="#m77a4086b29" y="353.74"/>
    </g>
   </g>
   <g id="line2d_23">
    <defs>
     <path d="M -2.25 4.5 
L 0 2.25 
L 2.25 4.5 
L 4.5 2.25 
L 2.25 0 
L 4.5 -2.25 
L 2.25 -4.5 
L 0 -2.25 
L -2.25 -4.5 
L -4.5 -2.25 
L -2.25 0 
L -4.5 2.25 
z
" id="m691eb37707" style="stroke:#00bfbf;stroke-linejoin:miter;"/>
    </defs>
    <g clip-path="url(#p8de45bd4e8)">
     <use style="fill:#00bfbf;stroke:#00bfbf;stroke-linejoin:miter;" x="580.982353" xlink:href="#m691eb37707" y="444.157647"/>
    </g>
   </g>
   <g id="line2d_24">
    <defs>
     <path d="M -2.25 4.5 
L 0 2.25 
L 2.25 4.5 
L 4.5 2.25 
L 2.25 0 
L 4.5 -2.25 
L 2.25 -4.5 
L 0 -2.25 
L -2.25 -4.5 
L -4.5 -2.25 
L -2.25 0 
L -4.5 2.25 
z
" id="m776e88593b" style="stroke:#008000;stroke-linejoin:miter;"/>
    </defs>
    <g clip-path="url(#p8de45bd4e8)">
     <use style="fill:#008000;stroke:#008000;stroke-linejoin:miter;" x="580.982353" xlink:href="#m776e88593b" y="353.74"/>
    </g>
   </g>
   <g id="line2d_25">
    <defs>
     <path d="M -2.25 4.5 
L 0 2.25 
L 2.25 4.5 
L 4.5 2.25 
L 2.25 0 
L 4.5 -2.25 
L 2.25 -4.5 
L 0 -2.25 
L -2.25 -4.5 
L -4.5 -2.25 
L -2.25 0 
L -4.5 2.25 
z
" id="m1475bc731c" style="stroke:#0000ff;stroke-linejoin:miter;"/>
    </defs>
    <g clip-path="url(#p8de45bd4e8)">
     <use style="fill:#0000ff;stroke:#0000ff;stroke-linejoin:miter;" x="580.982353" xlink:href="#m1475bc731c" y="263.322353"/>
    </g>
   </g>
   <g id="patch_5">
    <path d="M 363.98 661.16 
L 363.98 46.32 
" style="fill:none;stroke:#000000;stroke-linecap:square;stroke-linejoin:miter;stroke-width:0.8;"/>
   </g>
   <g id="patch_6">
    <path d="M 978.82 661.16 
L 978.82 46.32 
" style="fill:none;stroke:#000000;stroke-linecap:square;stroke-linejoin:miter;stroke-width:0.8;"/>
   </g>
   <g id="patch_7">
    <path d="M 363.98 661.16 
L 978.82 661.16 
" style="fill:none;stroke:#000000;stroke-linecap:square;stroke-linejoin:miter;stroke-width:0.8;"/>
   </g>
   <g id="patch_8">
    <path d="M 363.98 46.32 
L 978.82 46.32 
" style="fill:none;stroke:#000000;stroke-linecap:square;stroke-linejoin:miter;stroke-width:0.8;"/>
   </g>
   <g id="text_19">
    <!-- $t = 0$ -->
    <defs>
     <path d="M 42.28125 54.6875 
L 40.921875 47.703125 
L 23 47.703125 
L 17.1875 18.015625 
Q 16.890625 16.359375 16.75 15.234375 
Q 16.609375 14.109375 16.609375 13.484375 
Q 16.609375 10.359375 18.484375 8.9375 
Q 20.359375 7.515625 24.515625 7.515625 
L 33.59375 7.515625 
L 32.078125 0 
L 23.484375 0 
Q 15.484375 0 11.546875 3.125 
Q 7.625 6.25 7.625 12.59375 
Q 7.625 13.71875 7.765625 15.0625 
Q 7.90625 16.40625 8.203125 18.015625 
L 14.015625 47.703125 
L 6.390625 47.703125 
L 7.8125 54.6875 
L 15.28125 54.6875 
L 18.3125 70.21875 
L 27.296875 70.21875 
L 24.3125 54.6875 
z
" id="DejaVuSans-Oblique-116"/>
     <path d="M 10.59375 45.40625 
L 73.1875 45.40625 
L 73.1875 37.203125 
L 10.59375 37.203125 
z
M 10.59375 25.484375 
L 73.1875 25.484375 
L 73.1875 17.1875 
L 10.59375 17.1875 
z
" id="DejaVuSans-61"/>
    </defs>
    <g transform="translate(644.28 40.32)scale(0.24 -0.24)">
     <use transform="translate(0 0.78125)" xlink:href="#DejaVuSans-Oblique-116"/>
     <use transform="translate(58.691406 0.78125)" xlink:href="#DejaVuSans-61"/>
     <use transform="translate(161.962891 0.78125)" xlink:href="#DejaVuSans-48"/>
    </g>
   </g>
   <g id="legend_1">
    <g id="patch_9">
     <path d="M 822.53875 179.745 
L 964.82 179.745 
Q 968.82 179.745 968.82 175.745 
L 968.82 60.32 
Q 968.82 56.32 964.82 56.32 
L 822.53875 56.32 
Q 818.53875 56.32 818.53875 60.32 
L 818.53875 175.745 
Q 818.53875 179.745 822.53875 179.745 
z
" style="fill:#ffffff;opacity:0.8;stroke:#cccccc;stroke-linejoin:miter;"/>
    </g>
    <g id="line2d_26"/>
    <g id="line2d_27">
     <g>
      <use style="fill:#ff0000;stroke:#ff0000;stroke-linejoin:bevel;" x="846.53875" xlink:href="#m77a4086b29" y="72.516875"/>
     </g>
    </g>
    <g id="text_20">
     <!-- Target -->
     <defs>
      <path d="M -0.296875 72.90625 
L 61.375 72.90625 
L 61.375 64.59375 
L 35.5 64.59375 
L 35.5 0 
L 25.59375 0 
L 25.59375 64.59375 
L -0.296875 64.59375 
z
" id="DejaVuSans-84"/>
      <path d="M 34.28125 27.484375 
Q 23.390625 27.484375 19.1875 25 
Q 14.984375 22.515625 14.984375 16.5 
Q 14.984375 11.71875 18.140625 8.90625 
Q 21.296875 6.109375 26.703125 6.109375 
Q 34.1875 6.109375 38.703125 11.40625 
Q 43.21875 16.703125 43.21875 25.484375 
L 43.21875 27.484375 
z
M 52.203125 31.203125 
L 52.203125 0 
L 43.21875 0 
L 43.21875 8.296875 
Q 40.140625 3.328125 35.546875 0.953125 
Q 30.953125 -1.421875 24.3125 -1.421875 
Q 15.921875 -1.421875 10.953125 3.296875 
Q 6 8.015625 6 15.921875 
Q 6 25.140625 12.171875 29.828125 
Q 18.359375 34.515625 30.609375 34.515625 
L 43.21875 34.515625 
L 43.21875 35.40625 
Q 43.21875 41.609375 39.140625 45 
Q 35.0625 48.390625 27.6875 48.390625 
Q 23 48.390625 18.546875 47.265625 
Q 14.109375 46.140625 10.015625 43.890625 
L 10.015625 52.203125 
Q 14.9375 54.109375 19.578125 55.046875 
Q 24.21875 56 28.609375 56 
Q 40.484375 56 46.34375 49.84375 
Q 52.203125 43.703125 52.203125 31.203125 
z
" id="DejaVuSans-97"/>
      <path d="M 41.109375 46.296875 
Q 39.59375 47.171875 37.8125 47.578125 
Q 36.03125 48 33.890625 48 
Q 26.265625 48 22.1875 43.046875 
Q 18.109375 38.09375 18.109375 28.8125 
L 18.109375 0 
L 9.078125 0 
L 9.078125 54.6875 
L 18.109375 54.6875 
L 18.109375 46.1875 
Q 20.953125 51.171875 25.484375 53.578125 
Q 30.03125 56 36.53125 56 
Q 37.453125 56 38.578125 55.875 
Q 39.703125 55.765625 41.0625 55.515625 
z
" id="DejaVuSans-114"/>
      <path d="M 45.40625 27.984375 
Q 45.40625 37.75 41.375 43.109375 
Q 37.359375 48.484375 30.078125 48.484375 
Q 22.859375 48.484375 18.828125 43.109375 
Q 14.796875 37.75 14.796875 27.984375 
Q 14.796875 18.265625 18.828125 12.890625 
Q 22.859375 7.515625 30.078125 7.515625 
Q 37.359375 7.515625 41.375 12.890625 
Q 45.40625 18.265625 45.40625 27.984375 
z
M 54.390625 6.78125 
Q 54.390625 -7.171875 48.1875 -13.984375 
Q 42 -20.796875 29.203125 -20.796875 
Q 24.46875 -20.796875 20.265625 -20.09375 
Q 16.0625 -19.390625 12.109375 -17.921875 
L 12.109375 -9.1875 
Q 16.0625 -11.328125 19.921875 -12.34375 
Q 23.78125 -13.375 27.78125 -13.375 
Q 36.625 -13.375 41.015625 -8.765625 
Q 45.40625 -4.15625 45.40625 5.171875 
L 45.40625 9.625 
Q 42.625 4.78125 38.28125 2.390625 
Q 33.9375 0 27.875 0 
Q 17.828125 0 11.671875 7.65625 
Q 5.515625 15.328125 5.515625 27.984375 
Q 5.515625 40.671875 11.671875 48.328125 
Q 17.828125 56 27.875 56 
Q 33.9375 56 38.28125 53.609375 
Q 42.625 51.21875 45.40625 46.390625 
L 45.40625 54.6875 
L 54.390625 54.6875 
z
" id="DejaVuSans-103"/>
      <path d="M 56.203125 29.59375 
L 56.203125 25.203125 
L 14.890625 25.203125 
Q 15.484375 15.921875 20.484375 11.0625 
Q 25.484375 6.203125 34.421875 6.203125 
Q 39.59375 6.203125 44.453125 7.46875 
Q 49.3125 8.734375 54.109375 11.28125 
L 54.109375 2.78125 
Q 49.265625 0.734375 44.1875 -0.34375 
Q 39.109375 -1.421875 33.890625 -1.421875 
Q 20.796875 -1.421875 13.15625 6.1875 
Q 5.515625 13.8125 5.515625 26.8125 
Q 5.515625 40.234375 12.765625 48.109375 
Q 20.015625 56 32.328125 56 
Q 43.359375 56 49.78125 48.890625 
Q 56.203125 41.796875 56.203125 29.59375 
z
M 47.21875 32.234375 
Q 47.125 39.59375 43.09375 43.984375 
Q 39.0625 48.390625 32.421875 48.390625 
Q 24.90625 48.390625 20.390625 44.140625 
Q 15.875 39.890625 15.1875 32.171875 
z
" id="DejaVuSans-101"/>
      <path d="M 18.3125 70.21875 
L 18.3125 54.6875 
L 36.8125 54.6875 
L 36.8125 47.703125 
L 18.3125 47.703125 
L 18.3125 18.015625 
Q 18.3125 11.328125 20.140625 9.421875 
Q 21.96875 7.515625 27.59375 7.515625 
L 36.8125 7.515625 
L 36.8125 0 
L 27.59375 0 
Q 17.1875 0 13.234375 3.875 
Q 9.28125 7.765625 9.28125 18.015625 
L 9.28125 47.703125 
L 2.6875 47.703125 
L 2.6875 54.6875 
L 9.28125 54.6875 
L 9.28125 70.21875 
z
" id="DejaVuSans-116"/>
     </defs>
     <g transform="translate(882.53875 79.516875)scale(0.2 -0.2)">
      <use xlink:href="#DejaVuSans-84"/>
      <use x="60.833984" xlink:href="#DejaVuSans-97"/>
      <use x="122.113281" xlink:href="#DejaVuSans-114"/>
      <use x="163.210938" xlink:href="#DejaVuSans-103"/>
      <use x="226.6875" xlink:href="#DejaVuSans-101"/>
      <use x="288.210938" xlink:href="#DejaVuSans-116"/>
     </g>
    </g>
    <g id="line2d_28"/>
    <g id="line2d_29">
     <g>
      <use style="fill:#00bfbf;stroke:#00bfbf;stroke-linejoin:miter;" x="846.53875" xlink:href="#m691eb37707" y="101.873125"/>
     </g>
    </g>
    <g id="text_21">
     <!-- Agent 0 -->
     <defs>
      <path d="M 34.1875 63.1875 
L 20.796875 26.90625 
L 47.609375 26.90625 
z
M 28.609375 72.90625 
L 39.796875 72.90625 
L 67.578125 0 
L 57.328125 0 
L 50.6875 18.703125 
L 17.828125 18.703125 
L 11.1875 0 
L 0.78125 0 
z
" id="DejaVuSans-65"/>
      <path d="M 54.890625 33.015625 
L 54.890625 0 
L 45.90625 0 
L 45.90625 32.71875 
Q 45.90625 40.484375 42.875 44.328125 
Q 39.84375 48.1875 33.796875 48.1875 
Q 26.515625 48.1875 22.3125 43.546875 
Q 18.109375 38.921875 18.109375 30.90625 
L 18.109375 0 
L 9.078125 0 
L 9.078125 54.6875 
L 18.109375 54.6875 
L 18.109375 46.1875 
Q 21.34375 51.125 25.703125 53.5625 
Q 30.078125 56 35.796875 56 
Q 45.21875 56 50.046875 50.171875 
Q 54.890625 44.34375 54.890625 33.015625 
z
" id="DejaVuSans-110"/>
      <path id="DejaVuSans-32"/>
     </defs>
     <g transform="translate(882.53875 108.873125)scale(0.2 -0.2)">
      <use xlink:href="#DejaVuSans-65"/>
      <use x="68.408203" xlink:href="#DejaVuSans-103"/>
      <use x="131.884766" xlink:href="#DejaVuSans-101"/>
      <use x="193.408203" xlink:href="#DejaVuSans-110"/>
      <use x="256.787109" xlink:href="#DejaVuSans-116"/>
      <use x="295.996094" xlink:href="#DejaVuSans-32"/>
      <use x="327.783203" xlink:href="#DejaVuSans-48"/>
     </g>
    </g>
    <g id="line2d_30"/>
    <g id="line2d_31">
     <g>
      <use style="fill:#008000;stroke:#008000;stroke-linejoin:miter;" x="846.53875" xlink:href="#m776e88593b" y="131.229375"/>
     </g>
    </g>
    <g id="text_22">
     <!-- Agent 1 -->
     <g transform="translate(882.53875 138.229375)scale(0.2 -0.2)">
      <use xlink:href="#DejaVuSans-65"/>
      <use x="68.408203" xlink:href="#DejaVuSans-103"/>
      <use x="131.884766" xlink:href="#DejaVuSans-101"/>
      <use x="193.408203" xlink:href="#DejaVuSans-110"/>
      <use x="256.787109" xlink:href="#DejaVuSans-116"/>
      <use x="295.996094" xlink:href="#DejaVuSans-32"/>
      <use x="327.783203" xlink:href="#DejaVuSans-49"/>
     </g>
    </g>
    <g id="line2d_32"/>
    <g id="line2d_33">
     <g>
      <use style="fill:#0000ff;stroke:#0000ff;stroke-linejoin:miter;" x="846.53875" xlink:href="#m1475bc731c" y="160.585625"/>
     </g>
    </g>
    <g id="text_23">
     <!-- Agent 2 -->
     <g transform="translate(882.53875 167.585625)scale(0.2 -0.2)">
      <use xlink:href="#DejaVuSans-65"/>
      <use x="68.408203" xlink:href="#DejaVuSans-103"/>
      <use x="131.884766" xlink:href="#DejaVuSans-101"/>
      <use x="193.408203" xlink:href="#DejaVuSans-110"/>
      <use x="256.787109" xlink:href="#DejaVuSans-116"/>
      <use x="295.996094" xlink:href="#DejaVuSans-32"/>
      <use x="327.783203" xlink:href="#DejaVuSans-50"/>
     </g>
    </g>
   </g>
  </g>
 </g>
 <defs>
  <clipPath id="p8de45bd4e8">
   <rect height="614.84" width="614.84" x="363.98" y="46.32"/>
  </clipPath>
 </defs>
</svg>
