<?xml version="1.0" encoding="utf-8" standalone="no"?>
<!DOCTYPE svg PUBLIC "-//W3C//DTD SVG 1.1//EN"
  "http://www.w3.org/Graphics/SVG/1.1/DTD/svg11.dtd">
<!-- Created with matplotlib (https://matplotlib.org/) -->
<svg height="709.92pt" version="1.1" viewBox="0 0 1342.8 709.92" width="1342.8pt" xmlns="http://www.w3.org/2000/svg" xmlns:xlink="http://www.w3.org/1999/xlink">
 <defs>
  <style type="text/css">
*{stroke-linecap:butt;stroke-linejoin:round;}
  </style>
 </defs>
 <g id="figure_1">
  <g id="patch_1">
   <path d="M 0 709.92 
L 1342.8 709.92 
L 1342.8 0 
L 0 0 
z
" style="fill:#ffffff;"/>
  </g>
  <g id="axes_1">
   <g id="patch_2">
    <path d="M 363.98 661.16 
L 978.82 661.16 
L 978.82 46.32 
L 363.98 46.32 
z
" style="fill:#ffffff;"/>
   </g>
   <g id="patch_3">
    <path clip-path="url(#p2de492715c)" d="M 671.4 624.992941 
C 743.337121 624.992941 812.337568 596.41202 863.204794 545.544794 
C 914.07202 494.677568 942.652941 425.677121 942.652941 353.74 
C 942.652941 281.802879 914.07202 212.802432 863.204794 161.935206 
C 812.337568 111.06798 743.337121 82.487059 671.4 82.487059 
C 599.462879 82.487059 530.462432 111.06798 479.595206 161.935206 
C 428.72798 212.802432 400.147059 281.802879 400.147059 353.74 
C 400.147059 425.677121 428.72798 494.677568 479.595206 545.544794 
C 530.462432 596.41202 599.462879 624.992941 671.4 624.992941 
z
" style="fill:none;stroke:#ff0000;stroke-dasharray:1,1.65;stroke-dashoffset:0;stroke-linejoin:miter;"/>
   </g>
   <g id="patch_4">
    <path clip-path="url(#p2de492715c)" d="M 671.4 444.157647 
C 695.37904 444.157647 718.379189 434.630673 735.334931 417.674931 
C 752.290673 400.719189 761.817647 377.71904 761.817647 353.74 
C 761.817647 329.76096 752.290673 306.760811 735.334931 289.805069 
C 718.379189 272.849327 695.37904 263.322353 671.4 263.322353 
C 647.42096 263.322353 624.420811 272.849327 607.465069 289.805069 
C 590.509327 306.760811 580.982353 329.76096 580.982353 353.74 
C 580.982353 377.71904 590.509327 400.719189 607.465069 417.674931 
C 624.420811 434.630673 647.42096 444.157647 671.4 444.157647 
z
" style="fill:none;stroke:#ff0000;stroke-dasharray:1,1.65;stroke-dashoffset:0;stroke-linejoin:miter;"/>
   </g>
   <g id="matplotlib.axis_1">
    <g id="xtick_1">
     <g id="line2d_1">
      <defs>
       <path d="M 0 0 
L 0 3.5 
" id="m7501e02492" style="stroke:#000000;stroke-width:0.8;"/>
      </defs>
      <g>
       <use style="stroke:#000000;stroke-width:0.8;" x="363.98" xlink:href="#m7501e02492" y="661.16"/>
      </g>
     </g>
     <g id="text_1">
      <!-- −60 -->
      <defs>
       <path d="M 10.59375 35.5 
L 73.1875 35.5 
L 73.1875 27.203125 
L 10.59375 27.203125 
z
" id="DejaVuSans-8722"/>
       <path d="M 33.015625 40.375 
Q 26.375 40.375 22.484375 35.828125 
Q 18.609375 31.296875 18.609375 23.390625 
Q 18.609375 15.53125 22.484375 10.953125 
Q 26.375 6.390625 33.015625 6.390625 
Q 39.65625 6.390625 43.53125 10.953125 
Q 47.40625 15.53125 47.40625 23.390625 
Q 47.40625 31.296875 43.53125 35.828125 
Q 39.65625 40.375 33.015625 40.375 
z
M 52.59375 71.296875 
L 52.59375 62.3125 
Q 48.875 64.0625 45.09375 64.984375 
Q 41.3125 65.921875 37.59375 65.921875 
Q 27.828125 65.921875 22.671875 59.328125 
Q 17.53125 52.734375 16.796875 39.40625 
Q 19.671875 43.65625 24.015625 45.921875 
Q 28.375 48.1875 33.59375 48.1875 
Q 44.578125 48.1875 50.953125 41.515625 
Q 57.328125 34.859375 57.328125 23.390625 
Q 57.328125 12.15625 50.6875 5.359375 
Q 44.046875 -1.421875 33.015625 -1.421875 
Q 20.359375 -1.421875 13.671875 8.265625 
Q 6.984375 17.96875 6.984375 36.375 
Q 6.984375 53.65625 15.1875 63.9375 
Q 23.390625 74.21875 37.203125 74.21875 
Q 40.921875 74.21875 44.703125 73.484375 
Q 48.484375 72.75 52.59375 71.296875 
z
" id="DejaVuSans-54"/>
       <path d="M 31.78125 66.40625 
Q 24.171875 66.40625 20.328125 58.90625 
Q 16.5 51.421875 16.5 36.375 
Q 16.5 21.390625 20.328125 13.890625 
Q 24.171875 6.390625 31.78125 6.390625 
Q 39.453125 6.390625 43.28125 13.890625 
Q 47.125 21.390625 47.125 36.375 
Q 47.125 51.421875 43.28125 58.90625 
Q 39.453125 66.40625 31.78125 66.40625 
z
M 31.78125 74.21875 
Q 44.046875 74.21875 50.515625 64.515625 
Q 56.984375 54.828125 56.984375 36.375 
Q 56.984375 17.96875 50.515625 8.265625 
Q 44.046875 -1.421875 31.78125 -1.421875 
Q 19.53125 -1.421875 13.0625 8.265625 
Q 6.59375 17.96875 6.59375 36.375 
Q 6.59375 54.828125 13.0625 64.515625 
Q 19.53125 74.21875 31.78125 74.21875 
z
" id="DejaVuSans-48"/>
      </defs>
      <g transform="translate(342.875312 683.356875)scale(0.2 -0.2)">
       <use xlink:href="#DejaVuSans-8722"/>
       <use x="83.789062" xlink:href="#DejaVuSans-54"/>
       <use x="147.412109" xlink:href="#DejaVuSans-48"/>
      </g>
     </g>
    </g>
    <g id="xtick_2">
     <g id="line2d_2">
      <g>
       <use style="stroke:#000000;stroke-width:0.8;" x="436.314118" xlink:href="#m7501e02492" y="661.16"/>
      </g>
     </g>
     <g id="text_2">
      <!-- −40 -->
      <defs>
       <path d="M 37.796875 64.3125 
L 12.890625 25.390625 
L 37.796875 25.390625 
z
M 35.203125 72.90625 
L 47.609375 72.90625 
L 47.609375 25.390625 
L 58.015625 25.390625 
L 58.015625 17.1875 
L 47.609375 17.1875 
L 47.609375 0 
L 37.796875 0 
L 37.796875 17.1875 
L 4.890625 17.1875 
L 4.890625 26.703125 
z
" id="DejaVuSans-52"/>
      </defs>
      <g transform="translate(415.20943 683.356875)scale(0.2 -0.2)">
       <use xlink:href="#DejaVuSans-8722"/>
       <use x="83.789062" xlink:href="#DejaVuSans-52"/>
       <use x="147.412109" xlink:href="#DejaVuSans-48"/>
      </g>
     </g>
    </g>
    <g id="xtick_3">
     <g id="line2d_3">
      <g>
       <use style="stroke:#000000;stroke-width:0.8;" x="508.648235" xlink:href="#m7501e02492" y="661.16"/>
      </g>
     </g>
     <g id="text_3">
      <!-- −20 -->
      <defs>
       <path d="M 19.1875 8.296875 
L 53.609375 8.296875 
L 53.609375 0 
L 7.328125 0 
L 7.328125 8.296875 
Q 12.9375 14.109375 22.625 23.890625 
Q 32.328125 33.6875 34.8125 36.53125 
Q 39.546875 41.84375 41.421875 45.53125 
Q 43.3125 49.21875 43.3125 52.78125 
Q 43.3125 58.59375 39.234375 62.25 
Q 35.15625 65.921875 28.609375 65.921875 
Q 23.96875 65.921875 18.8125 64.3125 
Q 13.671875 62.703125 7.8125 59.421875 
L 7.8125 69.390625 
Q 13.765625 71.78125 18.9375 73 
Q 24.125 74.21875 28.421875 74.21875 
Q 39.75 74.21875 46.484375 68.546875 
Q 53.21875 62.890625 53.21875 53.421875 
Q 53.21875 48.921875 51.53125 44.890625 
Q 49.859375 40.875 45.40625 35.40625 
Q 44.1875 33.984375 37.640625 27.21875 
Q 31.109375 20.453125 19.1875 8.296875 
z
" id="DejaVuSans-50"/>
      </defs>
      <g transform="translate(487.543548 683.356875)scale(0.2 -0.2)">
       <use xlink:href="#DejaVuSans-8722"/>
       <use x="83.789062" xlink:href="#DejaVuSans-50"/>
       <use x="147.412109" xlink:href="#DejaVuSans-48"/>
      </g>
     </g>
    </g>
    <g id="xtick_4">
     <g id="line2d_4">
      <g>
       <use style="stroke:#000000;stroke-width:0.8;" x="580.982353" xlink:href="#m7501e02492" y="661.16"/>
      </g>
     </g>
     <g id="text_4">
      <!-- 0 -->
      <g transform="translate(574.619853 683.356875)scale(0.2 -0.2)">
       <use xlink:href="#DejaVuSans-48"/>
      </g>
     </g>
    </g>
    <g id="xtick_5">
     <g id="line2d_5">
      <g>
       <use style="stroke:#000000;stroke-width:0.8;" x="653.316471" xlink:href="#m7501e02492" y="661.16"/>
      </g>
     </g>
     <g id="text_5">
      <!-- 20 -->
      <g transform="translate(640.591471 683.356875)scale(0.2 -0.2)">
       <use xlink:href="#DejaVuSans-50"/>
       <use x="63.623047" xlink:href="#DejaVuSans-48"/>
      </g>
     </g>
    </g>
    <g id="xtick_6">
     <g id="line2d_6">
      <g>
       <use style="stroke:#000000;stroke-width:0.8;" x="725.650588" xlink:href="#m7501e02492" y="661.16"/>
      </g>
     </g>
     <g id="text_6">
      <!-- 40 -->
      <g transform="translate(712.925588 683.356875)scale(0.2 -0.2)">
       <use xlink:href="#DejaVuSans-52"/>
       <use x="63.623047" xlink:href="#DejaVuSans-48"/>
      </g>
     </g>
    </g>
    <g id="xtick_7">
     <g id="line2d_7">
      <g>
       <use style="stroke:#000000;stroke-width:0.8;" x="797.984706" xlink:href="#m7501e02492" y="661.16"/>
      </g>
     </g>
     <g id="text_7">
      <!-- 60 -->
      <g transform="translate(785.259706 683.356875)scale(0.2 -0.2)">
       <use xlink:href="#DejaVuSans-54"/>
       <use x="63.623047" xlink:href="#DejaVuSans-48"/>
      </g>
     </g>
    </g>
    <g id="xtick_8">
     <g id="line2d_8">
      <g>
       <use style="stroke:#000000;stroke-width:0.8;" x="870.318824" xlink:href="#m7501e02492" y="661.16"/>
      </g>
     </g>
     <g id="text_8">
      <!-- 80 -->
      <defs>
       <path d="M 31.78125 34.625 
Q 24.75 34.625 20.71875 30.859375 
Q 16.703125 27.09375 16.703125 20.515625 
Q 16.703125 13.921875 20.71875 10.15625 
Q 24.75 6.390625 31.78125 6.390625 
Q 38.8125 6.390625 42.859375 10.171875 
Q 46.921875 13.96875 46.921875 20.515625 
Q 46.921875 27.09375 42.890625 30.859375 
Q 38.875 34.625 31.78125 34.625 
z
M 21.921875 38.8125 
Q 15.578125 40.375 12.03125 44.71875 
Q 8.5 49.078125 8.5 55.328125 
Q 8.5 64.0625 14.71875 69.140625 
Q 20.953125 74.21875 31.78125 74.21875 
Q 42.671875 74.21875 48.875 69.140625 
Q 55.078125 64.0625 55.078125 55.328125 
Q 55.078125 49.078125 51.53125 44.71875 
Q 48 40.375 41.703125 38.8125 
Q 48.828125 37.15625 52.796875 32.3125 
Q 56.78125 27.484375 56.78125 20.515625 
Q 56.78125 9.90625 50.3125 4.234375 
Q 43.84375 -1.421875 31.78125 -1.421875 
Q 19.734375 -1.421875 13.25 4.234375 
Q 6.78125 9.90625 6.78125 20.515625 
Q 6.78125 27.484375 10.78125 32.3125 
Q 14.796875 37.15625 21.921875 38.8125 
z
M 18.3125 54.390625 
Q 18.3125 48.734375 21.84375 45.5625 
Q 25.390625 42.390625 31.78125 42.390625 
Q 38.140625 42.390625 41.71875 45.5625 
Q 45.3125 48.734375 45.3125 54.390625 
Q 45.3125 60.0625 41.71875 63.234375 
Q 38.140625 66.40625 31.78125 66.40625 
Q 25.390625 66.40625 21.84375 63.234375 
Q 18.3125 60.0625 18.3125 54.390625 
z
" id="DejaVuSans-56"/>
      </defs>
      <g transform="translate(857.593824 683.356875)scale(0.2 -0.2)">
       <use xlink:href="#DejaVuSans-56"/>
       <use x="63.623047" xlink:href="#DejaVuSans-48"/>
      </g>
     </g>
    </g>
    <g id="xtick_9">
     <g id="line2d_9">
      <g>
       <use style="stroke:#000000;stroke-width:0.8;" x="942.652941" xlink:href="#m7501e02492" y="661.16"/>
      </g>
     </g>
     <g id="text_9">
      <!-- 100 -->
      <defs>
       <path d="M 12.40625 8.296875 
L 28.515625 8.296875 
L 28.515625 63.921875 
L 10.984375 60.40625 
L 10.984375 69.390625 
L 28.421875 72.90625 
L 38.28125 72.90625 
L 38.28125 8.296875 
L 54.390625 8.296875 
L 54.390625 0 
L 12.40625 0 
z
" id="DejaVuSans-49"/>
      </defs>
      <g transform="translate(923.565441 683.356875)scale(0.2 -0.2)">
       <use xlink:href="#DejaVuSans-49"/>
       <use x="63.623047" xlink:href="#DejaVuSans-48"/>
       <use x="127.246094" xlink:href="#DejaVuSans-48"/>
      </g>
     </g>
    </g>
   </g>
   <g id="matplotlib.axis_2">
    <g id="ytick_1">
     <g id="line2d_10">
      <defs>
       <path d="M 0 0 
L -3.5 0 
" id="m299e7202f7" style="stroke:#000000;stroke-width:0.8;"/>
      </defs>
      <g>
       <use style="stroke:#000000;stroke-width:0.8;" x="363.98" xlink:href="#m299e7202f7" y="661.16"/>
      </g>
     </g>
     <g id="text_10">
      <!-- −60 -->
      <g transform="translate(314.770625 668.758438)scale(0.2 -0.2)">
       <use xlink:href="#DejaVuSans-8722"/>
       <use x="83.789062" xlink:href="#DejaVuSans-54"/>
       <use x="147.412109" xlink:href="#DejaVuSans-48"/>
      </g>
     </g>
    </g>
    <g id="ytick_2">
     <g id="line2d_11">
      <g>
       <use style="stroke:#000000;stroke-width:0.8;" x="363.98" xlink:href="#m299e7202f7" y="588.825882"/>
      </g>
     </g>
     <g id="text_11">
      <!-- −40 -->
      <g transform="translate(314.770625 596.42432)scale(0.2 -0.2)">
       <use xlink:href="#DejaVuSans-8722"/>
       <use x="83.789062" xlink:href="#DejaVuSans-52"/>
       <use x="147.412109" xlink:href="#DejaVuSans-48"/>
      </g>
     </g>
    </g>
    <g id="ytick_3">
     <g id="line2d_12">
      <g>
       <use style="stroke:#000000;stroke-width:0.8;" x="363.98" xlink:href="#m299e7202f7" y="516.491765"/>
      </g>
     </g>
     <g id="text_12">
      <!-- −20 -->
      <g transform="translate(314.770625 524.090202)scale(0.2 -0.2)">
       <use xlink:href="#DejaVuSans-8722"/>
       <use x="83.789062" xlink:href="#DejaVuSans-50"/>
       <use x="147.412109" xlink:href="#DejaVuSans-48"/>
      </g>
     </g>
    </g>
    <g id="ytick_4">
     <g id="line2d_13">
      <g>
       <use style="stroke:#000000;stroke-width:0.8;" x="363.98" xlink:href="#m299e7202f7" y="444.157647"/>
      </g>
     </g>
     <g id="text_13">
      <!-- 0 -->
      <g transform="translate(344.255 451.756085)scale(0.2 -0.2)">
       <use xlink:href="#DejaVuSans-48"/>
      </g>
     </g>
    </g>
    <g id="ytick_5">
     <g id="line2d_14">
      <g>
       <use style="stroke:#000000;stroke-width:0.8;" x="363.98" xlink:href="#m299e7202f7" y="371.823529"/>
      </g>
     </g>
     <g id="text_14">
      <!-- 20 -->
      <g transform="translate(331.53 379.421967)scale(0.2 -0.2)">
       <use xlink:href="#DejaVuSans-50"/>
       <use x="63.623047" xlink:href="#DejaVuSans-48"/>
      </g>
     </g>
    </g>
    <g id="ytick_6">
     <g id="line2d_15">
      <g>
       <use style="stroke:#000000;stroke-width:0.8;" x="363.98" xlink:href="#m299e7202f7" y="299.489412"/>
      </g>
     </g>
     <g id="text_15">
      <!-- 40 -->
      <g transform="translate(331.53 307.087849)scale(0.2 -0.2)">
       <use xlink:href="#DejaVuSans-52"/>
       <use x="63.623047" xlink:href="#DejaVuSans-48"/>
      </g>
     </g>
    </g>
    <g id="ytick_7">
     <g id="line2d_16">
      <g>
       <use style="stroke:#000000;stroke-width:0.8;" x="363.98" xlink:href="#m299e7202f7" y="227.155294"/>
      </g>
     </g>
     <g id="text_16">
      <!-- 60 -->
      <g transform="translate(331.53 234.753732)scale(0.2 -0.2)">
       <use xlink:href="#DejaVuSans-54"/>
       <use x="63.623047" xlink:href="#DejaVuSans-48"/>
      </g>
     </g>
    </g>
    <g id="ytick_8">
     <g id="line2d_17">
      <g>
       <use style="stroke:#000000;stroke-width:0.8;" x="363.98" xlink:href="#m299e7202f7" y="154.821176"/>
      </g>
     </g>
     <g id="text_17">
      <!-- 80 -->
      <g transform="translate(331.53 162.419614)scale(0.2 -0.2)">
       <use xlink:href="#DejaVuSans-56"/>
       <use x="63.623047" xlink:href="#DejaVuSans-48"/>
      </g>
     </g>
    </g>
    <g id="ytick_9">
     <g id="line2d_18">
      <g>
       <use style="stroke:#000000;stroke-width:0.8;" x="363.98" xlink:href="#m299e7202f7" y="82.487059"/>
      </g>
     </g>
     <g id="text_18">
      <!-- 100 -->
      <g transform="translate(318.805 90.085496)scale(0.2 -0.2)">
       <use xlink:href="#DejaVuSans-49"/>
       <use x="63.623047" xlink:href="#DejaVuSans-48"/>
       <use x="127.246094" xlink:href="#DejaVuSans-48"/>
      </g>
     </g>
    </g>
   </g>
   <g id="line2d_19">
    <path clip-path="url(#p2de492715c)" d="M 758.974418 326.00545 
L 756.059321 326.82345 
L 753.111167 327.446182 
L 749.703916 327.926859 
L 746.258956 328.170001 
L 742.779066 328.184734 
L 739.266929 327.980038 
L 735.725138 327.564743 
L 731.708289 326.856617 
L 727.660502 325.90509 
L 723.585068 324.722079 
L 719.028218 323.150335 
L 714.445271 321.322931 
L 709.840177 319.25522 
L 704.753475 316.721085 
L 699.649273 313.933831 
L 694.066371 310.626823 
L 688.007133 306.757622 
L 681.942738 302.619165 
L 675.41309 297.894081 
L 668.426326 292.561052 
L 660.993233 286.609157 
L 652.665917 279.646326 
L 643.470237 271.65391 
L 632.987078 262.234568 
L 619.937537 250.186594 
L 572.248339 205.837206 
L 562.097972 196.888578 
L 553.370651 189.484409 
L 545.612211 183.177404 
L 538.404139 177.589049 
L 531.728366 172.67858 
L 525.208463 168.158621 
L 519.200756 164.2611 
L 513.345923 160.734281 
L 507.982076 157.76049 
L 502.767607 155.126722 
L 498.021616 152.969279 
L 493.420745 151.114996 
L 488.972614 149.564149 
L 484.685505 148.315867 
L 480.837404 147.422026 
L 477.145302 146.787499 
L 473.617706 146.408934 
L 470.263761 146.282157 
L 467.313439 146.385537 
L 464.529701 146.69711 
L 461.921486 147.211672 
L 459.498301 147.923441 
L 457.434463 148.750008 
L 455.545278 149.733776 
L 453.839603 150.868915 
L 452.326769 152.1492 
L 451.016592 153.568009 
L 450.00243 154.984297 
L 449.17555 156.50542 
L 448.544657 158.125433 
L 448.11884 159.838125 
L 447.907579 161.637031 
L 447.920761 163.515425 
L 448.168683 165.466331 
L 448.662068 167.482525 
L 449.412067 169.556538 
L 450.430277 171.680657 
L 451.728743 173.846933 
L 453.319973 176.047183 
L 455.216946 178.27299 
L 457.433119 180.515712 
L 459.982441 182.766483 
L 460.482868 183.175872 
L 460.482868 183.175872 
" style="fill:none;stroke:#00bfbf;stroke-linecap:square;stroke-width:2;"/>
   </g>
   <g id="line2d_20">
    <path clip-path="url(#p2de492715c)" d="M 759.63254 328.17629 
L 755.861755 329.145736 
L 752.055995 329.885479 
L 748.213691 330.40535 
L 744.333432 330.715038 
L 739.975996 330.824234 
L 735.568653 330.698621 
L 731.11013 330.35087 
L 726.145397 329.726632 
L 721.116382 328.864942 
L 715.555972 327.672827 
L 709.917563 326.23735 
L 703.721093 324.430568 
L 696.945812 322.219507 
L 689.570335 319.578272 
L 681.069052 316.288298 
L 671.39442 312.297383 
L 659.451075 307.115334 
L 642.448783 299.465672 
L 608.484151 284.141421 
L 593.964484 277.862416 
L 581.050378 272.519469 
L 569.240339 267.877699 
L 558.569656 263.914894 
L 548.498868 260.399108 
L 538.489779 257.140943 
L 529.115747 254.320591 
L 519.840338 251.766758 
L 511.220307 249.619659 
L 502.725773 247.731899 
L 494.375715 246.112122 
L 486.695852 244.843139 
L 479.175898 243.820097 
L 471.832006 243.04596 
L 464.680436 242.522338 
L 458.193556 242.259878 
L 451.901738 242.214989 
L 445.818293 242.385744 
L 439.956518 242.769166 
L 434.329672 243.361218 
L 428.95095 244.156803 
L 423.833467 245.149755 
L 419.326805 246.242194 
L 415.066928 247.49195 
L 411.06404 248.89159 
L 407.328219 250.432867 
L 403.869402 252.106726 
L 400.697367 253.903291 
L 398.032185 255.661334 
L 395.62696 257.505791 
L 393.488958 259.427027 
L 391.625285 261.414801 
L 390.163839 263.286127 
L 388.943952 265.195453 
L 387.970703 267.133546 
L 387.249035 269.090738 
L 386.815322 270.878085 
L 386.596983 272.664971 
L 386.5974 274.443194 
L 386.819846 276.204254 
L 387.267472 277.939349 
L 387.943311 279.639374 
L 388.85027 281.294924 
L 389.991126 282.896288 
L 391.368521 284.43345 
L 392.984962 285.89609 
L 394.842809 287.273579 
L 396.944281 288.554981 
L 399.291442 289.729053 
L 401.886204 290.784238 
L 404.730318 291.708672 
L 407.186217 292.345905 
L 407.186217 292.345905 
" style="fill:none;stroke:#008000;stroke-linecap:square;stroke-width:2;"/>
   </g>
   <g id="line2d_21">
    <path clip-path="url(#p2de492715c)" d="M 752.893583 396.134371 
L 749.58561 394.291845 
L 746.591447 392.380166 
L 743.904233 390.411754 
L 741.517107 388.398374 
L 739.423211 386.351149 
L 737.615686 384.280573 
L 736.087681 382.196524 
L 734.832347 380.108278 
L 733.842843 378.024523 
L 733.112336 375.953371 
L 732.633999 373.902371 
L 732.401019 371.878523 
L 732.406591 369.888293 
L 732.643924 367.937623 
L 733.106241 366.031947 
L 733.786779 364.176202 
L 734.678792 362.374844 
L 735.775551 360.631859 
L 737.226145 358.767951 
L 738.912052 356.984659 
L 740.824129 355.285536 
L 742.953267 353.673502 
L 745.535198 352.0036 
L 748.356773 350.444133 
L 751.694117 348.870525 
L 755.286983 347.430871 
L 759.120021 346.124935 
L 763.525826 344.859618 
L 768.543683 343.667596 
L 773.821529 342.647539 
L 779.738038 341.737942 
L 786.315655 340.965804 
L 793.56819 340.354021 
L 801.499087 339.919535 
L 810.099664 339.67134 
L 820.280715 339.611774 
L 832.037931 339.774946 
L 847.667267 340.229251 
L 880.997998 341.262772 
L 892.387031 341.35416 
L 901.616988 341.2125 
L 909.625352 340.870275 
L 916.480885 340.364325 
L 922.61833 339.698423 
L 928.070972 338.894648 
L 933.187708 337.912554 
L 937.66124 336.826674 
L 941.53947 335.668492 
L 945.1179 334.372269 
L 948.161683 333.048271 
L 950.927242 331.613154 
L 953.40573 330.073339 
L 955.431484 328.56613 
L 957.199173 326.984602 
L 958.702837 325.338083 
L 959.844438 323.78089 
L 960.755357 322.18762 
L 961.43174 320.568862 
L 961.869979 318.936367 
L 962.066712 317.303079 
L 962.033365 315.829493 
L 961.795692 314.378518 
L 961.351712 312.962608 
L 960.699619 311.595126 
L 959.837786 310.290372 
L 958.764769 309.063601 
L 957.479306 307.931051 
L 955.980319 306.909958 
L 954.26692 306.018588 
L 952.338409 305.27625 
L 950.194278 304.703325 
L 947.834212 304.321285 
L 945.258092 304.152719 
L 942.75492 304.203115 
L 940.077002 304.463726 
L 938.194799 304.763541 
L 938.194799 304.763541 
" style="fill:none;stroke:#0000ff;stroke-linecap:square;stroke-width:2;"/>
   </g>
   <g id="line2d_22">
    <defs>
     <path d="M 0 -5 
L -1.12257 -1.545085 
L -4.755283 -1.545085 
L -1.816356 0.59017 
L -2.938926 4.045085 
L -0 1.90983 
L 2.938926 4.045085 
L 1.816356 0.59017 
L 4.755283 -1.545085 
L 1.12257 -1.545085 
z
" id="m99668e9bd7" style="stroke:#ff0000;stroke-linejoin:bevel;"/>
    </defs>
    <g clip-path="url(#p2de492715c)">
     <use style="fill:#ff0000;stroke:#ff0000;stroke-linejoin:bevel;" x="671.4" xlink:href="#m99668e9bd7" y="353.74"/>
    </g>
   </g>
   <g id="line2d_23">
    <defs>
     <path d="M -2.25 4.5 
L 0 2.25 
L 2.25 4.5 
L 4.5 2.25 
L 2.25 0 
L 4.5 -2.25 
L 2.25 -4.5 
L 0 -2.25 
L -2.25 -4.5 
L -4.5 -2.25 
L -2.25 0 
L -4.5 2.25 
z
" id="m5ff3d5918e" style="stroke:#00bfbf;stroke-linejoin:miter;"/>
    </defs>
    <g clip-path="url(#p2de492715c)">
     <use style="fill:#00bfbf;stroke:#00bfbf;stroke-linejoin:miter;" x="484.219483" xlink:href="#m5ff3d5918e" y="148.195769"/>
    </g>
   </g>
   <g id="line2d_24">
    <defs>
     <path d="M -2.25 4.5 
L 0 2.25 
L 2.25 4.5 
L 4.5 2.25 
L 2.25 0 
L 4.5 -2.25 
L 2.25 -4.5 
L 0 -2.25 
L -2.25 -4.5 
L -4.5 -2.25 
L -2.25 0 
L -4.5 2.25 
z
" id="m272ce981cf" style="stroke:#008000;stroke-linejoin:miter;"/>
    </defs>
    <g clip-path="url(#p2de492715c)">
     <use style="fill:#008000;stroke:#008000;stroke-linejoin:miter;" x="593.777677" xlink:href="#m272ce981cf" y="277.78336"/>
    </g>
   </g>
   <g id="line2d_25">
    <defs>
     <path d="M -2.25 4.5 
L 0 2.25 
L 2.25 4.5 
L 4.5 2.25 
L 2.25 0 
L 4.5 -2.25 
L 2.25 -4.5 
L 0 -2.25 
L -2.25 -4.5 
L -4.5 -2.25 
L -2.25 0 
L -4.5 2.25 
z
" id="m8c1b4bed6e" style="stroke:#0000ff;stroke-linejoin:miter;"/>
    </defs>
    <g clip-path="url(#p2de492715c)">
     <use style="fill:#0000ff;stroke:#0000ff;stroke-linejoin:miter;" x="752.893583" xlink:href="#m8c1b4bed6e" y="396.134371"/>
    </g>
   </g>
   <g id="line2d_26">
    <path clip-path="url(#p2de492715c)" d="M 929.994592 271.843754 
L 757.59476 326.442386 
L 757.59476 326.442386 
" style="fill:none;stroke:#00bfbf;stroke-dasharray:7.4,3.2;stroke-dashoffset:0;stroke-width:2;"/>
   </g>
   <g id="line2d_27">
    <path clip-path="url(#p2de492715c)" d="M 931.937963 278.254051 
L 758.242514 328.579024 
L 758.242514 328.579024 
" style="fill:none;stroke:#008000;stroke-dasharray:7.4,3.2;stroke-dashoffset:0;stroke-width:2;"/>
   </g>
   <g id="line2d_28">
    <path clip-path="url(#p2de492715c)" d="M 912.03867 478.924618 
L 751.609718 395.466496 
L 751.609718 395.466496 
" style="fill:none;stroke:#0000ff;stroke-dasharray:7.4,3.2;stroke-dashoffset:0;stroke-width:2;"/>
   </g>
   <g id="patch_5">
    <path d="M 363.98 661.16 
L 363.98 46.32 
" style="fill:none;stroke:#000000;stroke-linecap:square;stroke-linejoin:miter;stroke-width:0.8;"/>
   </g>
   <g id="patch_6">
    <path d="M 978.82 661.16 
L 978.82 46.32 
" style="fill:none;stroke:#000000;stroke-linecap:square;stroke-linejoin:miter;stroke-width:0.8;"/>
   </g>
   <g id="patch_7">
    <path d="M 363.98 661.16 
L 978.82 661.16 
" style="fill:none;stroke:#000000;stroke-linecap:square;stroke-linejoin:miter;stroke-width:0.8;"/>
   </g>
   <g id="patch_8">
    <path d="M 363.98 46.32 
L 978.82 46.32 
" style="fill:none;stroke:#000000;stroke-linecap:square;stroke-linejoin:miter;stroke-width:0.8;"/>
   </g>
   <g id="text_19">
    <!-- $t = 60.0$ -->
    <defs>
     <path d="M 42.28125 54.6875 
L 40.921875 47.703125 
L 23 47.703125 
L 17.1875 18.015625 
Q 16.890625 16.359375 16.75 15.234375 
Q 16.609375 14.109375 16.609375 13.484375 
Q 16.609375 10.359375 18.484375 8.9375 
Q 20.359375 7.515625 24.515625 7.515625 
L 33.59375 7.515625 
L 32.078125 0 
L 23.484375 0 
Q 15.484375 0 11.546875 3.125 
Q 7.625 6.25 7.625 12.59375 
Q 7.625 13.71875 7.765625 15.0625 
Q 7.90625 16.40625 8.203125 18.015625 
L 14.015625 47.703125 
L 6.390625 47.703125 
L 7.8125 54.6875 
L 15.28125 54.6875 
L 18.3125 70.21875 
L 27.296875 70.21875 
L 24.3125 54.6875 
z
" id="DejaVuSans-Oblique-116"/>
     <path d="M 10.59375 45.40625 
L 73.1875 45.40625 
L 73.1875 37.203125 
L 10.59375 37.203125 
z
M 10.59375 25.484375 
L 73.1875 25.484375 
L 73.1875 17.1875 
L 10.59375 17.1875 
z
" id="DejaVuSans-61"/>
     <path d="M 10.6875 12.40625 
L 21 12.40625 
L 21 0 
L 10.6875 0 
z
" id="DejaVuSans-46"/>
    </defs>
    <g transform="translate(625.2 40.32)scale(0.24 -0.24)">
     <use transform="translate(0 0.78125)" xlink:href="#DejaVuSans-Oblique-116"/>
     <use transform="translate(58.691406 0.78125)" xlink:href="#DejaVuSans-61"/>
     <use transform="translate(161.962891 0.78125)" xlink:href="#DejaVuSans-54"/>
     <use transform="translate(225.585938 0.78125)" xlink:href="#DejaVuSans-48"/>
     <use transform="translate(289.208984 0.78125)" xlink:href="#DejaVuSans-46"/>
     <use transform="translate(320.996094 0.78125)" xlink:href="#DejaVuSans-48"/>
    </g>
   </g>
   <g id="legend_1">
    <g id="patch_9">
     <path d="M 822.53875 179.745 
L 964.82 179.745 
Q 968.82 179.745 968.82 175.745 
L 968.82 60.32 
Q 968.82 56.32 964.82 56.32 
L 822.53875 56.32 
Q 818.53875 56.32 818.53875 60.32 
L 818.53875 175.745 
Q 818.53875 179.745 822.53875 179.745 
z
" style="fill:#ffffff;opacity:0.8;stroke:#cccccc;stroke-linejoin:miter;"/>
    </g>
    <g id="line2d_29"/>
    <g id="line2d_30">
     <g>
      <use style="fill:#ff0000;stroke:#ff0000;stroke-linejoin:bevel;" x="846.53875" xlink:href="#m99668e9bd7" y="72.516875"/>
     </g>
    </g>
    <g id="text_20">
     <!-- Target -->
     <defs>
      <path d="M -0.296875 72.90625 
L 61.375 72.90625 
L 61.375 64.59375 
L 35.5 64.59375 
L 35.5 0 
L 25.59375 0 
L 25.59375 64.59375 
L -0.296875 64.59375 
z
" id="DejaVuSans-84"/>
      <path d="M 34.28125 27.484375 
Q 23.390625 27.484375 19.1875 25 
Q 14.984375 22.515625 14.984375 16.5 
Q 14.984375 11.71875 18.140625 8.90625 
Q 21.296875 6.109375 26.703125 6.109375 
Q 34.1875 6.109375 38.703125 11.40625 
Q 43.21875 16.703125 43.21875 25.484375 
L 43.21875 27.484375 
z
M 52.203125 31.203125 
L 52.203125 0 
L 43.21875 0 
L 43.21875 8.296875 
Q 40.140625 3.328125 35.546875 0.953125 
Q 30.953125 -1.421875 24.3125 -1.421875 
Q 15.921875 -1.421875 10.953125 3.296875 
Q 6 8.015625 6 15.921875 
Q 6 25.140625 12.171875 29.828125 
Q 18.359375 34.515625 30.609375 34.515625 
L 43.21875 34.515625 
L 43.21875 35.40625 
Q 43.21875 41.609375 39.140625 45 
Q 35.0625 48.390625 27.6875 48.390625 
Q 23 48.390625 18.546875 47.265625 
Q 14.109375 46.140625 10.015625 43.890625 
L 10.015625 52.203125 
Q 14.9375 54.109375 19.578125 55.046875 
Q 24.21875 56 28.609375 56 
Q 40.484375 56 46.34375 49.84375 
Q 52.203125 43.703125 52.203125 31.203125 
z
" id="DejaVuSans-97"/>
      <path d="M 41.109375 46.296875 
Q 39.59375 47.171875 37.8125 47.578125 
Q 36.03125 48 33.890625 48 
Q 26.265625 48 22.1875 43.046875 
Q 18.109375 38.09375 18.109375 28.8125 
L 18.109375 0 
L 9.078125 0 
L 9.078125 54.6875 
L 18.109375 54.6875 
L 18.109375 46.1875 
Q 20.953125 51.171875 25.484375 53.578125 
Q 30.03125 56 36.53125 56 
Q 37.453125 56 38.578125 55.875 
Q 39.703125 55.765625 41.0625 55.515625 
z
" id="DejaVuSans-114"/>
      <path d="M 45.40625 27.984375 
Q 45.40625 37.75 41.375 43.109375 
Q 37.359375 48.484375 30.078125 48.484375 
Q 22.859375 48.484375 18.828125 43.109375 
Q 14.796875 37.75 14.796875 27.984375 
Q 14.796875 18.265625 18.828125 12.890625 
Q 22.859375 7.515625 30.078125 7.515625 
Q 37.359375 7.515625 41.375 12.890625 
Q 45.40625 18.265625 45.40625 27.984375 
z
M 54.390625 6.78125 
Q 54.390625 -7.171875 48.1875 -13.984375 
Q 42 -20.796875 29.203125 -20.796875 
Q 24.46875 -20.796875 20.265625 -20.09375 
Q 16.0625 -19.390625 12.109375 -17.921875 
L 12.109375 -9.1875 
Q 16.0625 -11.328125 19.921875 -12.34375 
Q 23.78125 -13.375 27.78125 -13.375 
Q 36.625 -13.375 41.015625 -8.765625 
Q 45.40625 -4.15625 45.40625 5.171875 
L 45.40625 9.625 
Q 42.625 4.78125 38.28125 2.390625 
Q 33.9375 0 27.875 0 
Q 17.828125 0 11.671875 7.65625 
Q 5.515625 15.328125 5.515625 27.984375 
Q 5.515625 40.671875 11.671875 48.328125 
Q 17.828125 56 27.875 56 
Q 33.9375 56 38.28125 53.609375 
Q 42.625 51.21875 45.40625 46.390625 
L 45.40625 54.6875 
L 54.390625 54.6875 
z
" id="DejaVuSans-103"/>
      <path d="M 56.203125 29.59375 
L 56.203125 25.203125 
L 14.890625 25.203125 
Q 15.484375 15.921875 20.484375 11.0625 
Q 25.484375 6.203125 34.421875 6.203125 
Q 39.59375 6.203125 44.453125 7.46875 
Q 49.3125 8.734375 54.109375 11.28125 
L 54.109375 2.78125 
Q 49.265625 0.734375 44.1875 -0.34375 
Q 39.109375 -1.421875 33.890625 -1.421875 
Q 20.796875 -1.421875 13.15625 6.1875 
Q 5.515625 13.8125 5.515625 26.8125 
Q 5.515625 40.234375 12.765625 48.109375 
Q 20.015625 56 32.328125 56 
Q 43.359375 56 49.78125 48.890625 
Q 56.203125 41.796875 56.203125 29.59375 
z
M 47.21875 32.234375 
Q 47.125 39.59375 43.09375 43.984375 
Q 39.0625 48.390625 32.421875 48.390625 
Q 24.90625 48.390625 20.390625 44.140625 
Q 15.875 39.890625 15.1875 32.171875 
z
" id="DejaVuSans-101"/>
      <path d="M 18.3125 70.21875 
L 18.3125 54.6875 
L 36.8125 54.6875 
L 36.8125 47.703125 
L 18.3125 47.703125 
L 18.3125 18.015625 
Q 18.3125 11.328125 20.140625 9.421875 
Q 21.96875 7.515625 27.59375 7.515625 
L 36.8125 7.515625 
L 36.8125 0 
L 27.59375 0 
Q 17.1875 0 13.234375 3.875 
Q 9.28125 7.765625 9.28125 18.015625 
L 9.28125 47.703125 
L 2.6875 47.703125 
L 2.6875 54.6875 
L 9.28125 54.6875 
L 9.28125 70.21875 
z
" id="DejaVuSans-116"/>
     </defs>
     <g transform="translate(882.53875 79.516875)scale(0.2 -0.2)">
      <use xlink:href="#DejaVuSans-84"/>
      <use x="60.833984" xlink:href="#DejaVuSans-97"/>
      <use x="122.113281" xlink:href="#DejaVuSans-114"/>
      <use x="163.210938" xlink:href="#DejaVuSans-103"/>
      <use x="226.6875" xlink:href="#DejaVuSans-101"/>
      <use x="288.210938" xlink:href="#DejaVuSans-116"/>
     </g>
    </g>
    <g id="line2d_31"/>
    <g id="line2d_32">
     <g>
      <use style="fill:#00bfbf;stroke:#00bfbf;stroke-linejoin:miter;" x="846.53875" xlink:href="#m5ff3d5918e" y="101.873125"/>
     </g>
    </g>
    <g id="text_21">
     <!-- Agent 0 -->
     <defs>
      <path d="M 34.1875 63.1875 
L 20.796875 26.90625 
L 47.609375 26.90625 
z
M 28.609375 72.90625 
L 39.796875 72.90625 
L 67.578125 0 
L 57.328125 0 
L 50.6875 18.703125 
L 17.828125 18.703125 
L 11.1875 0 
L 0.78125 0 
z
" id="DejaVuSans-65"/>
      <path d="M 54.890625 33.015625 
L 54.890625 0 
L 45.90625 0 
L 45.90625 32.71875 
Q 45.90625 40.484375 42.875 44.328125 
Q 39.84375 48.1875 33.796875 48.1875 
Q 26.515625 48.1875 22.3125 43.546875 
Q 18.109375 38.921875 18.109375 30.90625 
L 18.109375 0 
L 9.078125 0 
L 9.078125 54.6875 
L 18.109375 54.6875 
L 18.109375 46.1875 
Q 21.34375 51.125 25.703125 53.5625 
Q 30.078125 56 35.796875 56 
Q 45.21875 56 50.046875 50.171875 
Q 54.890625 44.34375 54.890625 33.015625 
z
" id="DejaVuSans-110"/>
      <path id="DejaVuSans-32"/>
     </defs>
     <g transform="translate(882.53875 108.873125)scale(0.2 -0.2)">
      <use xlink:href="#DejaVuSans-65"/>
      <use x="68.408203" xlink:href="#DejaVuSans-103"/>
      <use x="131.884766" xlink:href="#DejaVuSans-101"/>
      <use x="193.408203" xlink:href="#DejaVuSans-110"/>
      <use x="256.787109" xlink:href="#DejaVuSans-116"/>
      <use x="295.996094" xlink:href="#DejaVuSans-32"/>
      <use x="327.783203" xlink:href="#DejaVuSans-48"/>
     </g>
    </g>
    <g id="line2d_33"/>
    <g id="line2d_34">
     <g>
      <use style="fill:#008000;stroke:#008000;stroke-linejoin:miter;" x="846.53875" xlink:href="#m272ce981cf" y="131.229375"/>
     </g>
    </g>
    <g id="text_22">
     <!-- Agent 1 -->
     <g transform="translate(882.53875 138.229375)scale(0.2 -0.2)">
      <use xlink:href="#DejaVuSans-65"/>
      <use x="68.408203" xlink:href="#DejaVuSans-103"/>
      <use x="131.884766" xlink:href="#DejaVuSans-101"/>
      <use x="193.408203" xlink:href="#DejaVuSans-110"/>
      <use x="256.787109" xlink:href="#DejaVuSans-116"/>
      <use x="295.996094" xlink:href="#DejaVuSans-32"/>
      <use x="327.783203" xlink:href="#DejaVuSans-49"/>
     </g>
    </g>
    <g id="line2d_35"/>
    <g id="line2d_36">
     <g>
      <use style="fill:#0000ff;stroke:#0000ff;stroke-linejoin:miter;" x="846.53875" xlink:href="#m8c1b4bed6e" y="160.585625"/>
     </g>
    </g>
    <g id="text_23">
     <!-- Agent 2 -->
     <g transform="translate(882.53875 167.585625)scale(0.2 -0.2)">
      <use xlink:href="#DejaVuSans-65"/>
      <use x="68.408203" xlink:href="#DejaVuSans-103"/>
      <use x="131.884766" xlink:href="#DejaVuSans-101"/>
      <use x="193.408203" xlink:href="#DejaVuSans-110"/>
      <use x="256.787109" xlink:href="#DejaVuSans-116"/>
      <use x="295.996094" xlink:href="#DejaVuSans-32"/>
      <use x="327.783203" xlink:href="#DejaVuSans-50"/>
     </g>
    </g>
   </g>
  </g>
 </g>
 <defs>
  <clipPath id="p2de492715c">
   <rect height="614.84" width="614.84" x="363.98" y="46.32"/>
  </clipPath>
 </defs>
</svg>
